<svg width="828" height="103" viewBox="0 0 828 103" fill="none" xmlns="http://www.w3.org/2000/svg">
<path d="M4 0.5H0V100.5H4V0.5Z" fill="#1E1E1E"/>
<path d="M8 0.5H6V100.5H8V0.5Z" fill="#1E1E1E"/>
<path d="M14 0.5H12V100.5H14V0.5Z" fill="#1E1E1E"/>
<path d="M24 0.5H22V100.5H24V0.5Z" fill="#1E1E1E"/>
<path d="M34 2.5H28V102.5H34V2.5Z" fill="#1E1E1E"/>
<path d="M42 0.5H38V100.5H42V0.5Z" fill="#1E1E1E"/>
<path d="M48 0.5H44V100.5H48V0.5Z" fill="#1E1E1E"/>
<path d="M58 0.5H52V100.5H58V0.5Z" fill="#1E1E1E"/>
<path d="M64 0.5H62V100.5H64V0.5Z" fill="#1E1E1E"/>
<path d="M70 0.5H66V100.5H70V0.5Z" fill="#1E1E1E"/>
<path d="M82 0.5H76V100.5H82V0.5Z" fill="#1E1E1E"/>
<path d="M86 0.5H84V100.5H86V0.5Z" fill="#1E1E1E"/>
<path d="M92 0.5H88V100.5H92V0.5Z" fill="#1E1E1E"/>
<path d="M96 0.5H92V100.5H96V0.5Z" fill="#1E1E1E"/>
<path d="M100 0.5H98V100.5H100V0.5Z" fill="#1E1E1E"/>
<path d="M106 0.5H104V100.5H106V0.5Z" fill="#1E1E1E"/>
<path d="M116 0.5H114V100.5H116V0.5Z" fill="#1E1E1E"/>
<path d="M126 2.5H120V102.5H126V2.5Z" fill="#1E1E1E"/>
<path d="M134 0.5H130V100.5H134V0.5Z" fill="#1E1E1E"/>
<path d="M140 0.5H136V100.5H140V0.5Z" fill="#1E1E1E"/>
<path d="M150 0.5H144V100.5H150V0.5Z" fill="#1E1E1E"/>
<path d="M156 0.5H154V100.5H156V0.5Z" fill="#1E1E1E"/>
<path d="M162 0.5H158V100.5H162V0.5Z" fill="#1E1E1E"/>
<path d="M174 0.5H168V100.5H174V0.5Z" fill="#1E1E1E"/>
<path d="M178 0.5H176V100.5H178V0.5Z" fill="#1E1E1E"/>
<path d="M184 0.5H180V100.5H184V0.5Z" fill="#1E1E1E"/>
<path d="M188 0.5H184V100.5H188V0.5Z" fill="#1E1E1E"/>
<path d="M192 0.5H190V100.5H192V0.5Z" fill="#1E1E1E"/>
<path d="M198 0.5H196V100.5H198V0.5Z" fill="#1E1E1E"/>
<path d="M208 0.5H206V100.5H208V0.5Z" fill="#1E1E1E"/>
<path d="M218 2.5H212V102.5H218V2.5Z" fill="#1E1E1E"/>
<path d="M226 0.5H222V100.5H226V0.5Z" fill="#1E1E1E"/>
<path d="M232 0.5H228V100.5H232V0.5Z" fill="#1E1E1E"/>
<path d="M242 0.5H236V100.5H242V0.5Z" fill="#1E1E1E"/>
<path d="M248 0.5H246V100.5H248V0.5Z" fill="#1E1E1E"/>
<path d="M254 0.5H250V100.5H254V0.5Z" fill="#1E1E1E"/>
<path d="M266 0.5H260V100.5H266V0.5Z" fill="#1E1E1E"/>
<path d="M270 0.5H268V100.5H270V0.5Z" fill="#1E1E1E"/>
<path d="M276 0.5H272V100.5H276V0.5Z" fill="#1E1E1E"/>
<path d="M280 0.5H276V100.5H280V0.5Z" fill="#1E1E1E"/>
<path d="M284 0.5H282V100.5H284V0.5Z" fill="#1E1E1E"/>
<path d="M290 0.5H288V100.5H290V0.5Z" fill="#1E1E1E"/>
<path d="M300 0.5H298V100.5H300V0.5Z" fill="#1E1E1E"/>
<path d="M310 2.5H304V102.5H310V2.5Z" fill="#1E1E1E"/>
<path d="M318 0.5H314V100.5H318V0.5Z" fill="#1E1E1E"/>
<path d="M324 0.5H320V100.5H324V0.5Z" fill="#1E1E1E"/>
<path d="M334 0.5H328V100.5H334V0.5Z" fill="#1E1E1E"/>
<path d="M340 0.5H338V100.5H340V0.5Z" fill="#1E1E1E"/>
<path d="M346 0.5H342V100.5H346V0.5Z" fill="#1E1E1E"/>
<path d="M358 0.5H352V100.5H358V0.5Z" fill="#1E1E1E"/>
<path d="M362 0.5H360V100.5H362V0.5Z" fill="#1E1E1E"/>
<path d="M368 0.5H364V100.5H368V0.5Z" fill="#1E1E1E"/>
<path d="M372 0.5H368V100.5H372V0.5Z" fill="#1E1E1E"/>
<path d="M376 0.5H374V100.5H376V0.5Z" fill="#1E1E1E"/>
<path d="M382 0.5H380V100.5H382V0.5Z" fill="#1E1E1E"/>
<path d="M392 0.5H390V100.5H392V0.5Z" fill="#1E1E1E"/>
<path d="M402 2.5H396V102.5H402V2.5Z" fill="#1E1E1E"/>
<path d="M410 0.5H406V100.5H410V0.5Z" fill="#1E1E1E"/>
<path d="M416 0.5H412V100.5H416V0.5Z" fill="#1E1E1E"/>
<path d="M426 0.5H420V100.5H426V0.5Z" fill="#1E1E1E"/>
<path d="M432 0.5H430V100.5H432V0.5Z" fill="#1E1E1E"/>
<path d="M438 0.5H434V100.5H438V0.5Z" fill="#1E1E1E"/>
<path d="M450 0.5H444V100.5H450V0.5Z" fill="#1E1E1E"/>
<path d="M454 0.5H452V100.5H454V0.5Z" fill="#1E1E1E"/>
<path d="M460 0.5H456V100.5H460V0.5Z" fill="#1E1E1E"/>
<path d="M464 0.5H460V100.5H464V0.5Z" fill="#1E1E1E"/>
<path d="M468 0.5H466V100.5H468V0.5Z" fill="#1E1E1E"/>
<path d="M474 0.5H472V100.5H474V0.5Z" fill="#1E1E1E"/>
<path d="M484 0.5H482V100.5H484V0.5Z" fill="#1E1E1E"/>
<path d="M494 2.5H488V102.5H494V2.5Z" fill="#1E1E1E"/>
<path d="M502 0.5H498V100.5H502V0.5Z" fill="#1E1E1E"/>
<path d="M508 0.5H504V100.5H508V0.5Z" fill="#1E1E1E"/>
<path d="M518 0.5H512V100.5H518V0.5Z" fill="#1E1E1E"/>
<path d="M524 0.5H522V100.5H524V0.5Z" fill="#1E1E1E"/>
<path d="M530 0.5H526V100.5H530V0.5Z" fill="#1E1E1E"/>
<path d="M542 0.5H536V100.5H542V0.5Z" fill="#1E1E1E"/>
<path d="M546 0.5H544V100.5H546V0.5Z" fill="#1E1E1E"/>
<path d="M552 0.5H548V100.5H552V0.5Z" fill="#1E1E1E"/>
<path d="M556 0.5H552V100.5H556V0.5Z" fill="#1E1E1E"/>
<path d="M560 0.5H558V100.5H560V0.5Z" fill="#1E1E1E"/>
<path d="M566 0.5H564V100.5H566V0.5Z" fill="#1E1E1E"/>
<path d="M576 0.5H574V100.5H576V0.5Z" fill="#1E1E1E"/>
<path d="M586 2.5H580V102.5H586V2.5Z" fill="#1E1E1E"/>
<path d="M594 0.5H590V100.5H594V0.5Z" fill="#1E1E1E"/>
<path d="M600 0.5H596V100.5H600V0.5Z" fill="#1E1E1E"/>
<path d="M610 0.5H604V100.5H610V0.5Z" fill="#1E1E1E"/>
<path d="M616 0.5H614V100.5H616V0.5Z" fill="#1E1E1E"/>
<path d="M622 0.5H618V100.5H622V0.5Z" fill="#1E1E1E"/>
<path d="M634 0.5H628V100.5H634V0.5Z" fill="#1E1E1E"/>
<path d="M638 0.5H636V100.5H638V0.5Z" fill="#1E1E1E"/>
<path d="M644 0.5H640V100.5H644V0.5Z" fill="#1E1E1E"/>
<path d="M648 0.5H644V100.5H648V0.5Z" fill="#1E1E1E"/>
<path d="M652 0.5H650V100.5H652V0.5Z" fill="#1E1E1E"/>
<path d="M658 0.5H656V100.5H658V0.5Z" fill="#1E1E1E"/>
<path d="M668 0.5H666V100.5H668V0.5Z" fill="#1E1E1E"/>
<path d="M678 2.5H672V102.5H678V2.5Z" fill="#1E1E1E"/>
<path d="M686 0.5H682V100.5H686V0.5Z" fill="#1E1E1E"/>
<path d="M692 0.5H688V100.5H692V0.5Z" fill="#1E1E1E"/>
<path d="M702 0.5H696V100.5H702V0.5Z" fill="#1E1E1E"/>
<path d="M708 0.5H706V100.5H708V0.5Z" fill="#1E1E1E"/>
<path d="M714 0.5H710V100.5H714V0.5Z" fill="#1E1E1E"/>
<path d="M726 0.5H720V100.5H726V0.5Z" fill="#1E1E1E"/>
<path d="M730 0.5H728V100.5H730V0.5Z" fill="#1E1E1E"/>
<path d="M736 0.5H732V100.5H736V0.5Z" fill="#1E1E1E"/>
<path d="M740 0.5H736V100.5H740V0.5Z" fill="#1E1E1E"/>
<path d="M744 0.5H742V100.5H744V0.5Z" fill="#1E1E1E"/>
<path d="M750 0.5H748V100.5H750V0.5Z" fill="#1E1E1E"/>
<path d="M760 0.5H758V100.5H760V0.5Z" fill="#1E1E1E"/>
<path d="M770 2.5H764V102.5H770V2.5Z" fill="#1E1E1E"/>
<path d="M778 0.5H774V100.5H778V0.5Z" fill="#1E1E1E"/>
<path d="M784 0.5H780V100.5H784V0.5Z" fill="#1E1E1E"/>
<path d="M794 0.5H788V100.5H794V0.5Z" fill="#1E1E1E"/>
<path d="M800 0.5H798V100.5H800V0.5Z" fill="#1E1E1E"/>
<path d="M806 0.5H802V100.5H806V0.5Z" fill="#1E1E1E"/>
<path d="M818 0.5H812V100.5H818V0.5Z" fill="#1E1E1E"/>
<path d="M822 0.5H820V100.5H822V0.5Z" fill="#1E1E1E"/>
<path d="M828 0.5H824V100.5H828V0.5Z" fill="#1E1E1E"/>
</svg>
