<svg width="145" height="55" viewBox="0 0 145 55" fill="none" xmlns="http://www.w3.org/2000/svg">
<mask id="path-1-outside-1_264_589" maskUnits="userSpaceOnUse" x="-0.240997" y="0.506481" width="144.544" height="50.1797" fill="black">
<rect fill="white" x="-0.240997" y="0.506481" width="144.544" height="50.1797"/>
<path d="M6.56267 45.4946L5.2876 10.5178L10.684 10.3211L11.9591 45.2979L6.56267 45.4946ZM18.8825 12.724L18.7841 10.0258L37.5716 9.34091L37.67 12.0391L40.3182 11.9426L40.4166 14.6408L43.1148 14.5424L43.4081 22.5871L38.0616 22.782L37.8667 17.4355L35.2185 17.5321L35.1201 14.8339L21.679 15.3239L21.7774 18.0221L19.0792 18.1204L19.7641 36.9079L22.4623 36.8096L22.5607 39.5078L30.6053 39.2145L30.5069 36.5163L33.2052 36.418L33.1086 33.7697L35.7569 33.6732L35.6585 30.975L30.2621 31.1717L30.0654 25.7753L43.5064 25.2853L44.1931 44.1228L38.8467 44.3177L38.6518 38.9712L36.0035 39.0678L36.1019 41.766L33.4037 41.8643L33.5002 44.5126L20.0592 45.0026L19.9608 42.3044L17.2626 42.4027L17.1661 39.7545L14.4679 39.8528L13.5844 15.6189L16.2826 15.5206L16.1843 12.8224L18.8825 12.724ZM46.8679 44.0253L45.5929 9.0485L50.9893 8.85177L51.0876 11.55L53.7359 11.4534L53.9326 16.8499L56.6308 16.7515L56.7274 19.3997L59.4256 19.3014L59.6223 24.6978L62.3205 24.5994L62.4189 27.2976L65.1171 27.1993L65.3138 32.5957L68.012 32.4973L67.9136 29.7991L67.8637 29.8009L67.0786 8.26524L72.475 8.06852L73.7501 43.0453L68.3537 43.242L68.2553 40.5438L65.607 40.6403L65.5087 37.9421L62.8105 38.0405L62.7139 35.3923L60.0157 35.4906L59.819 30.0942L57.1208 30.1926L57.0224 27.4944L54.3242 27.5927L54.1275 22.1963L51.4793 22.2928L52.2643 43.8285L46.8679 44.0253ZM76.4381 42.9473L75.1631 7.97052L80.5595 7.7738L81.8345 42.7506L76.4381 42.9473ZM95.2811 42.2604L94.2027 12.68L83.4599 13.0717L83.2631 7.67524L110.095 6.69708L110.292 12.0935L99.5992 12.4833L100.677 42.0637L95.2811 42.2604ZM114.06 41.5758L112.785 6.59905L137.018 5.71561L137.215 11.112L118.378 11.7987L118.671 19.8434L134.81 19.255L135.007 24.6515L118.868 25.2398L119.259 35.9827L138.097 35.296L138.294 40.6924L114.06 41.5758Z"/>
</mask>
<path d="M6.56267 45.4946L5.2876 10.5178L10.684 10.3211L11.9591 45.2979L6.56267 45.4946ZM18.8825 12.724L18.7841 10.0258L37.5716 9.34091L37.67 12.0391L40.3182 11.9426L40.4166 14.6408L43.1148 14.5424L43.4081 22.5871L38.0616 22.782L37.8667 17.4355L35.2185 17.5321L35.1201 14.8339L21.679 15.3239L21.7774 18.0221L19.0792 18.1204L19.7641 36.9079L22.4623 36.8096L22.5607 39.5078L30.6053 39.2145L30.5069 36.5163L33.2052 36.418L33.1086 33.7697L35.7569 33.6732L35.6585 30.975L30.2621 31.1717L30.0654 25.7753L43.5064 25.2853L44.1931 44.1228L38.8467 44.3177L38.6518 38.9712L36.0035 39.0678L36.1019 41.766L33.4037 41.8643L33.5002 44.5126L20.0592 45.0026L19.9608 42.3044L17.2626 42.4027L17.1661 39.7545L14.4679 39.8528L13.5844 15.6189L16.2826 15.5206L16.1843 12.8224L18.8825 12.724ZM46.8679 44.0253L45.5929 9.0485L50.9893 8.85177L51.0876 11.55L53.7359 11.4534L53.9326 16.8499L56.6308 16.7515L56.7274 19.3997L59.4256 19.3014L59.6223 24.6978L62.3205 24.5994L62.4189 27.2976L65.1171 27.1993L65.3138 32.5957L68.012 32.4973L67.9136 29.7991L67.8637 29.8009L67.0786 8.26524L72.475 8.06852L73.7501 43.0453L68.3537 43.242L68.2553 40.5438L65.607 40.6403L65.5087 37.9421L62.8105 38.0405L62.7139 35.3923L60.0157 35.4906L59.819 30.0942L57.1208 30.1926L57.0224 27.4944L54.3242 27.5927L54.1275 22.1963L51.4793 22.2928L52.2643 43.8285L46.8679 44.0253ZM76.4381 42.9473L75.1631 7.97052L80.5595 7.7738L81.8345 42.7506L76.4381 42.9473ZM95.2811 42.2604L94.2027 12.68L83.4599 13.0717L83.2631 7.67524L110.095 6.69708L110.292 12.0935L99.5992 12.4833L100.677 42.0637L95.2811 42.2604ZM114.06 41.5758L112.785 6.59905L137.018 5.71561L137.215 11.112L118.378 11.7987L118.671 19.8434L134.81 19.255L135.007 24.6515L118.868 25.2398L119.259 35.9827L138.097 35.296L138.294 40.6924L114.06 41.5758Z" fill="white"/>
<path d="M6.56267 45.4946L1.56599 45.6767L1.74814 50.6734L6.74482 50.4913L6.56267 45.4946ZM5.2876 10.5178L5.10545 5.52113L0.108771 5.70328L0.290923 10.7L5.2876 10.5178ZM10.684 10.3211L15.6807 10.1389L15.4985 5.14225L10.5019 5.3244L10.684 10.3211ZM11.9591 45.2979L12.1412 50.2945L17.1379 50.1124L16.9558 45.1157L11.9591 45.2979ZM6.56267 45.4946L11.5593 45.3124L10.2843 10.3357L5.2876 10.5178L0.290923 10.7L1.56599 45.6767L6.56267 45.4946ZM5.2876 10.5178L5.46976 15.5145L10.8662 15.3178L10.684 10.3211L10.5019 5.3244L5.10545 5.52113L5.2876 10.5178ZM10.684 10.3211L5.68734 10.5032L6.9624 45.48L11.9591 45.2979L16.9558 45.1157L15.6807 10.1389L10.684 10.3211ZM11.9591 45.2979L11.7769 40.3012L6.38052 40.4979L6.56267 45.4946L6.74482 50.4913L12.1412 50.2945L11.9591 45.2979ZM18.8825 12.724L19.0646 17.7207L24.0613 17.5385L23.8791 12.5419L18.8825 12.724ZM18.7841 10.0258L18.602 5.02912L13.6053 5.21127L13.7874 10.208L18.7841 10.0258ZM37.5716 9.34091L42.5683 9.15875L42.3862 4.16207L37.3895 4.34423L37.5716 9.34091ZM37.67 12.0391L32.6733 12.2213L32.8555 17.2179L37.8521 17.0358L37.67 12.0391ZM40.3182 11.9426L45.3149 11.7604L45.1328 6.76374L40.1361 6.94589L40.3182 11.9426ZM40.4166 14.6408L35.4199 14.8229L35.6021 19.8196L40.5987 19.6375L40.4166 14.6408ZM43.1148 14.5424L48.1115 14.3603L47.9293 9.36359L42.9326 9.54574L43.1148 14.5424ZM43.4081 22.5871L43.5902 27.5838L48.5869 27.4016L48.4047 22.4049L43.4081 22.5871ZM38.0616 22.782L33.0649 22.9641L33.2471 27.9608L38.2438 27.7787L38.0616 22.782ZM37.8667 17.4355L42.8634 17.2534L42.6812 12.2567L37.6846 12.4388L37.8667 17.4355ZM35.2185 17.5321L30.2218 17.7142L30.4039 22.7109L35.4006 22.5288L35.2185 17.5321ZM35.1201 14.8339L40.1168 14.6517L39.9346 9.65503L34.938 9.83718L35.1201 14.8339ZM21.679 15.3239L21.4969 10.3272L16.5002 10.5093L16.6824 15.506L21.679 15.3239ZM21.7774 18.0221L21.9596 23.0187L26.9562 22.8366L26.7741 17.8399L21.7774 18.0221ZM19.0792 18.1204L18.897 13.1237L13.9004 13.3059L14.0825 18.3026L19.0792 18.1204ZM19.7641 36.9079L14.7674 37.0901L14.9496 42.0868L19.9462 41.9046L19.7641 36.9079ZM22.4623 36.8096L27.459 36.6274L27.2768 31.6307L22.2801 31.8129L22.4623 36.8096ZM22.5607 39.5078L17.564 39.6899L17.7461 44.6866L22.7428 44.5045L22.5607 39.5078ZM30.6053 39.2145L30.7875 44.2112L35.7841 44.0291L35.602 39.0324L30.6053 39.2145ZM30.507 36.5163L30.3248 31.5196L25.3281 31.7018L25.5103 36.6985L30.507 36.5163ZM33.2052 36.418L33.3873 41.4146L38.384 41.2325L38.2018 36.2358L33.2052 36.418ZM33.1086 33.7697L32.9265 28.773L27.9298 28.9552L28.1119 33.9519L33.1086 33.7697ZM35.7569 33.6732L35.939 38.6699L40.9357 38.4877L40.7535 33.491L35.7569 33.6732ZM35.6585 30.975L40.6552 30.7928L40.473 25.7961L35.4763 25.9783L35.6585 30.975ZM30.2621 31.1717L25.2654 31.3538L25.4476 36.3505L30.4442 36.1684L30.2621 31.1717ZM30.0654 25.7753L29.8832 20.7786L24.8865 20.9607L25.0687 25.9574L30.0654 25.7753ZM43.5064 25.2853L48.5031 25.1031L48.321 20.1065L43.3243 20.2886L43.5064 25.2853ZM44.1931 44.1228L44.3753 49.1195L49.372 48.9373L49.1898 43.9406L44.1931 44.1228ZM38.8467 44.3177L33.85 44.4998L34.0322 49.4965L39.0288 49.3144L38.8467 44.3177ZM38.6518 38.9712L43.6485 38.7891L43.4663 33.7924L38.4696 33.9745L38.6518 38.9712ZM36.0035 39.0678L35.8214 34.0711L30.8247 34.2532L31.0069 39.2499L36.0035 39.0678ZM36.1019 41.766L36.2841 46.7627L41.2807 46.5805L41.0986 41.5838L36.1019 41.766ZM33.4037 41.8643L33.2216 36.8677L28.2249 37.0498L28.407 42.0465L33.4037 41.8643ZM33.5002 44.5126L33.6824 49.5093L38.6791 49.3271L38.4969 44.3304L33.5002 44.5126ZM20.0592 45.0026L15.0625 45.1847L15.2446 50.1814L20.2413 49.9992L20.0592 45.0026ZM19.9608 42.3044L24.9575 42.1222L24.7753 37.1255L19.7787 37.3077L19.9608 42.3044ZM17.2626 42.4027L12.2659 42.5849L12.4481 47.5816L17.4448 47.3994L17.2626 42.4027ZM17.1661 39.7545L22.1627 39.5723L21.9806 34.5756L16.9839 34.7578L17.1661 39.7545ZM14.4679 39.8528L9.47117 40.035L9.65333 45.0317L14.65 44.8495L14.4679 39.8528ZM13.5844 15.6189L13.4023 10.6223L8.40558 10.8044L8.58774 15.8011L13.5844 15.6189ZM16.2826 15.5206L16.4648 20.5173L21.4615 20.3351L21.2793 15.3384L16.2826 15.5206ZM16.1843 12.8224L16.0021 7.82569L11.0054 8.00784L11.1876 13.0045L16.1843 12.8224ZM18.8825 12.724L23.8791 12.5419L23.7808 9.84365L18.7841 10.0258L13.7874 10.208L13.8858 12.9062L18.8825 12.724ZM18.7841 10.0258L18.9663 15.0225L37.7538 14.3376L37.5716 9.34091L37.3895 4.34423L18.602 5.02912L18.7841 10.0258ZM37.5716 9.34091L32.5749 9.52306L32.6733 12.2213L37.67 12.0391L42.6667 11.857L42.5683 9.15875L37.5716 9.34091ZM37.67 12.0391L37.8521 17.0358L40.5004 16.9393L40.3182 11.9426L40.1361 6.94589L37.4878 7.04243L37.67 12.0391ZM40.3182 11.9426L35.3215 12.1247L35.4199 14.8229L40.4166 14.6408L45.4133 14.4586L45.3149 11.7604L40.3182 11.9426ZM40.4166 14.6408L40.5987 19.6375L43.297 19.5391L43.1148 14.5424L42.9326 9.54574L40.2344 9.6441L40.4166 14.6408ZM43.1148 14.5424L38.1181 14.7246L38.4114 22.7692L43.4081 22.5871L48.4047 22.4049L48.1115 14.3603L43.1148 14.5424ZM43.4081 22.5871L43.2259 17.5904L37.8795 17.7853L38.0616 22.782L38.2438 27.7787L43.5902 27.5838L43.4081 22.5871ZM38.0616 22.782L43.0583 22.5998L42.8634 17.2534L37.8667 17.4355L32.87 17.6177L33.0649 22.9641L38.0616 22.782ZM37.8667 17.4355L37.6846 12.4388L35.0363 12.5354L35.2185 17.5321L35.4006 22.5288L38.0489 22.4322L37.8667 17.4355ZM35.2185 17.5321L40.2152 17.3499L40.1168 14.6517L35.1201 14.8339L30.1234 15.016L30.2218 17.7142L35.2185 17.5321ZM35.1201 14.8339L34.938 9.83718L21.4969 10.3272L21.679 15.3239L21.8612 20.3205L35.3023 19.8305L35.1201 14.8339ZM21.679 15.3239L16.6824 15.506L16.7807 18.2042L21.7774 18.0221L26.7741 17.8399L26.6757 15.1417L21.679 15.3239ZM21.7774 18.0221L21.5952 13.0254L18.897 13.1237L19.0792 18.1204L19.2613 23.1171L21.9596 23.0187L21.7774 18.0221ZM19.0792 18.1204L14.0825 18.3026L14.7674 37.0901L19.7641 36.9079L24.7608 36.7258L24.0759 17.9383L19.0792 18.1204ZM19.7641 36.9079L19.9462 41.9046L22.6444 41.8063L22.4623 36.8096L22.2801 31.8129L19.5819 31.9113L19.7641 36.9079ZM22.4623 36.8096L17.4656 36.9917L17.564 39.6899L22.5607 39.5078L27.5573 39.3256L27.459 36.6274L22.4623 36.8096ZM22.5607 39.5078L22.7428 44.5045L30.7875 44.2112L30.6053 39.2145L30.4232 34.2178L22.3785 34.5111L22.5607 39.5078ZM30.6053 39.2145L35.602 39.0324L35.5036 36.3342L30.507 36.5163L25.5103 36.6985L25.6086 39.3967L30.6053 39.2145ZM30.507 36.5163L30.6891 41.513L33.3873 41.4146L33.2052 36.418L33.023 31.4213L30.3248 31.5196L30.507 36.5163ZM33.2052 36.418L38.2018 36.2358L38.1053 33.5876L33.1086 33.7697L28.1119 33.9519L28.2085 36.6001L33.2052 36.418ZM33.1086 33.7697L33.2908 38.7664L35.939 38.6699L35.7569 33.6732L35.5747 28.6765L32.9265 28.773L33.1086 33.7697ZM35.7569 33.6732L40.7535 33.491L40.6552 30.7928L35.6585 30.975L30.6618 31.1571L30.7602 33.8553L35.7569 33.6732ZM35.6585 30.975L35.4763 25.9783L30.0799 26.175L30.2621 31.1717L30.4442 36.1684L35.8406 35.9716L35.6585 30.975ZM30.2621 31.1717L35.2588 30.9895L35.062 25.5931L30.0654 25.7753L25.0687 25.9574L25.2654 31.3538L30.2621 31.1717ZM30.0654 25.7753L30.2475 30.772L43.6886 30.282L43.5064 25.2853L43.3243 20.2886L29.8832 20.7786L30.0654 25.7753ZM43.5064 25.2853L38.5097 25.4674L39.1965 44.3049L44.1931 44.1228L49.1898 43.9406L48.5031 25.1031L43.5064 25.2853ZM44.1931 44.1228L44.011 39.1261L38.6645 39.321L38.8467 44.3177L39.0288 49.3144L44.3753 49.1195L44.1931 44.1228ZM38.8467 44.3177L43.8434 44.1355L43.6485 38.7891L38.6518 38.9712L33.6551 39.1534L33.85 44.4998L38.8467 44.3177ZM38.6518 38.9712L38.4696 33.9745L35.8214 34.0711L36.0035 39.0678L36.1857 44.0644L38.8339 43.9679L38.6518 38.9712ZM36.0035 39.0678L31.0069 39.2499L31.1052 41.9481L36.1019 41.766L41.0986 41.5838L41.0002 38.8856L36.0035 39.0678ZM36.1019 41.766L35.9198 36.7693L33.2216 36.8677L33.4037 41.8643L33.5859 46.861L36.2841 46.7627L36.1019 41.766ZM33.4037 41.8643L28.407 42.0465L28.5036 44.6947L33.5002 44.5126L38.4969 44.3304L38.4004 41.6822L33.4037 41.8643ZM33.5002 44.5126L33.3181 39.5159L19.877 40.0059L20.0592 45.0026L20.2413 49.9992L33.6824 49.5093L33.5002 44.5126ZM20.0592 45.0026L25.0559 44.8204L24.9575 42.1222L19.9608 42.3044L14.9641 42.4865L15.0625 45.1847L20.0592 45.0026ZM19.9608 42.3044L19.7787 37.3077L17.0805 37.406L17.2626 42.4027L17.4448 47.3994L20.143 47.301L19.9608 42.3044ZM17.2626 42.4027L22.2593 42.2206L22.1627 39.5723L17.1661 39.7545L12.1694 39.9366L12.2659 42.5849L17.2626 42.4027ZM17.1661 39.7545L16.9839 34.7578L14.2857 34.8562L14.4679 39.8528L14.65 44.8495L17.3482 44.7512L17.1661 39.7545ZM14.4679 39.8528L19.4645 39.6707L18.5811 15.4368L13.5844 15.6189L8.58774 15.8011L9.47117 40.035L14.4679 39.8528ZM13.5844 15.6189L13.7666 20.6156L16.4648 20.5173L16.2826 15.5206L16.1005 10.5239L13.4023 10.6223L13.5844 15.6189ZM16.2826 15.5206L21.2793 15.3384L21.1809 12.6402L16.1843 12.8224L11.1876 13.0045L11.2859 15.7027L16.2826 15.5206ZM16.1843 12.8224L16.3664 17.8191L19.0646 17.7207L18.8825 12.724L18.7003 7.72733L16.0021 7.82569L16.1843 12.8224ZM46.8679 44.0253L41.8712 44.2074L42.0534 49.2041L47.0501 49.0219L46.8679 44.0253ZM45.5929 9.0485L45.4107 4.05182L40.414 4.23397L40.5962 9.23065L45.5929 9.0485ZM50.9893 8.85177L55.986 8.66962L55.8038 3.67294L50.8071 3.85509L50.9893 8.85177ZM51.0876 11.55L46.091 11.7321L46.2731 16.7288L51.2698 16.5467L51.0876 11.55ZM53.7359 11.4534L58.7326 11.2713L58.5504 6.27461L53.5537 6.45676L53.7359 11.4534ZM53.9326 16.8499L48.9359 17.032L49.1181 22.0287L54.1148 21.8465L53.9326 16.8499ZM56.6308 16.7515L61.6275 16.5693L61.4453 11.5727L56.4487 11.7548L56.6308 16.7515ZM56.7274 19.3997L51.7307 19.5819L51.9128 24.5786L56.9095 24.3964L56.7274 19.3997ZM59.4256 19.3014L64.4222 19.1192L64.2401 14.1225L59.2434 14.3047L59.4256 19.3014ZM59.6223 24.6978L54.6256 24.8799L54.8078 29.8766L59.8044 29.6945L59.6223 24.6978ZM62.3205 24.5994L67.3172 24.4173L67.135 19.4206L62.1383 19.6027L62.3205 24.5994ZM62.4189 27.2976L57.4222 27.4798L57.6043 32.4765L62.601 32.2943L62.4189 27.2976ZM65.1171 27.1993L70.1137 27.0171L69.9316 22.0204L64.9349 22.2026L65.1171 27.1993ZM65.3138 32.5957L60.3171 32.7778L60.4993 37.7745L65.4959 37.5924L65.3138 32.5957ZM68.012 32.4973L68.1941 37.494L73.1908 37.3119L73.0087 32.3152L68.012 32.4973ZM67.9136 29.7991L72.9103 29.617L72.7282 24.6203L67.7315 24.8024L67.9136 29.7991ZM67.8637 29.8009L62.867 29.9831L63.0491 34.9798L68.0458 34.7976L67.8637 29.8009ZM67.0786 8.26524L66.8964 3.26856L61.8998 3.45071L62.0819 8.44739L67.0786 8.26524ZM72.475 8.06852L77.4717 7.88636L77.2895 2.88968L72.2928 3.07184L72.475 8.06852ZM73.7501 43.0453L73.9322 48.042L78.9289 47.8598L78.7467 42.8631L73.7501 43.0453ZM68.3537 43.242L63.357 43.4242L63.5391 48.4208L68.5358 48.2387L68.3537 43.242ZM68.2553 40.5438L73.252 40.3616L73.0698 35.365L68.0731 35.5471L68.2553 40.5438ZM65.607 40.6403L60.6104 40.8225L60.7925 45.8192L65.7892 45.637L65.607 40.6403ZM65.5087 37.9421L70.5054 37.76L70.3232 32.7633L65.3265 32.9455L65.5087 37.9421ZM62.8105 38.0405L57.8138 38.2226L57.996 43.2193L62.9926 43.0372L62.8105 38.0405ZM62.7139 35.3923L67.7106 35.2101L67.5285 30.2134L62.5318 30.3956L62.7139 35.3923ZM60.0157 35.4906L55.019 35.6728L55.2012 40.6695L60.1979 40.4873L60.0157 35.4906ZM59.819 30.0942L64.8157 29.912L64.6335 24.9154L59.6369 25.0975L59.819 30.0942ZM57.1208 30.1926L52.1241 30.3747L52.3063 35.3714L57.303 35.1892L57.1208 30.1926ZM57.0224 27.4944L62.0191 27.3122L61.837 22.3155L56.8403 22.4977L57.0224 27.4944ZM54.3242 27.5927L49.3275 27.7749L49.5097 32.7716L54.5064 32.5894L54.3242 27.5927ZM54.1275 22.1963L59.1242 22.0142L58.942 17.0175L53.9454 17.1996L54.1275 22.1963ZM51.4793 22.2928L51.2971 17.2962L46.3004 17.4783L46.4826 22.475L51.4793 22.2928ZM52.2643 43.8285L52.4465 48.8252L57.4432 48.6431L57.261 43.6464L52.2643 43.8285ZM46.8679 44.0253L51.8646 43.8431L50.5895 8.86634L45.5929 9.0485L40.5962 9.23065L41.8712 44.2074L46.8679 44.0253ZM45.5929 9.0485L45.775 14.0452L51.1714 13.8485L50.9893 8.85177L50.8071 3.85509L45.4107 4.05182L45.5929 9.0485ZM50.9893 8.85177L45.9926 9.03392L46.091 11.7321L51.0876 11.55L56.0843 11.3678L55.986 8.66962L50.9893 8.85177ZM51.0876 11.55L51.2698 16.5467L53.918 16.4501L53.7359 11.4534L53.5537 6.45676L50.9055 6.5533L51.0876 11.55ZM53.7359 11.4534L48.7392 11.6356L48.9359 17.032L53.9326 16.8499L58.9293 16.6677L58.7326 11.2713L53.7359 11.4534ZM53.9326 16.8499L54.1148 21.8465L56.813 21.7482L56.6308 16.7515L56.4487 11.7548L53.7505 11.8532L53.9326 16.8499ZM56.6308 16.7515L51.6341 16.9336L51.7307 19.5819L56.7274 19.3997L61.724 19.2176L61.6275 16.5693L56.6308 16.7515ZM56.7274 19.3997L56.9095 24.3964L59.6077 24.2981L59.4256 19.3014L59.2434 14.3047L56.5452 14.4031L56.7274 19.3997ZM59.4256 19.3014L54.4289 19.4835L54.6256 24.8799L59.6223 24.6978L64.619 24.5156L64.4222 19.1192L59.4256 19.3014ZM59.6223 24.6978L59.8044 29.6945L62.5026 29.5961L62.3205 24.5994L62.1383 19.6027L59.4401 19.7011L59.6223 24.6978ZM62.3205 24.5994L57.3238 24.7816L57.4222 27.4798L62.4189 27.2976L67.4155 27.1155L67.3172 24.4173L62.3205 24.5994ZM62.4189 27.2976L62.601 32.2943L65.2992 32.1959L65.1171 27.1993L64.9349 22.2026L62.2367 22.301L62.4189 27.2976ZM65.1171 27.1993L60.1204 27.3814L60.3171 32.7778L65.3138 32.5957L70.3105 32.4135L70.1137 27.0171L65.1171 27.1993ZM65.3138 32.5957L65.4959 37.5924L68.1941 37.494L68.012 32.4973L67.8298 27.5006L65.1316 27.599L65.3138 32.5957ZM68.012 32.4973L73.0087 32.3152L72.9103 29.617L67.9136 29.7991L62.9169 29.9813L63.0153 32.6795L68.012 32.4973ZM67.9136 29.7991L67.7315 24.8024L67.6815 24.8043L67.8637 29.8009L68.0458 34.7976L68.0958 34.7958L67.9136 29.7991ZM67.8637 29.8009L72.8603 29.6188L72.0753 8.08309L67.0786 8.26524L62.0819 8.44739L62.867 29.9831L67.8637 29.8009ZM67.0786 8.26524L67.2607 13.2619L72.6572 13.0652L72.475 8.06852L72.2928 3.07184L66.8964 3.26856L67.0786 8.26524ZM72.475 8.06852L67.4783 8.25067L68.7534 43.2274L73.7501 43.0453L78.7467 42.8631L77.4717 7.88636L72.475 8.06852ZM73.7501 43.0453L73.5679 38.0486L68.1715 38.2453L68.3537 43.242L68.5358 48.2387L73.9322 48.042L73.7501 43.0453ZM68.3537 43.242L73.3503 43.0599L73.252 40.3616L68.2553 40.5438L63.2586 40.726L63.357 43.4242L68.3537 43.242ZM68.2553 40.5438L68.0731 35.5471L65.4249 35.6437L65.607 40.6403L65.7892 45.637L68.4374 45.5405L68.2553 40.5438ZM65.607 40.6403L70.6037 40.4582L70.5054 37.76L65.5087 37.9421L60.512 38.1243L60.6104 40.8225L65.607 40.6403ZM65.5087 37.9421L65.3265 32.9455L62.6283 33.0438L62.8105 38.0405L62.9926 43.0372L65.6908 42.9388L65.5087 37.9421ZM62.8105 38.0405L67.8072 37.8583L67.7106 35.2101L62.7139 35.3923L57.7173 35.5744L57.8138 38.2226L62.8105 38.0405ZM62.7139 35.3923L62.5318 30.3956L59.8336 30.4939L60.0157 35.4906L60.1979 40.4873L62.8961 40.3889L62.7139 35.3923ZM60.0157 35.4906L65.0124 35.3085L64.8157 29.912L59.819 30.0942L54.8223 30.2764L55.019 35.6728L60.0157 35.4906ZM59.819 30.0942L59.6369 25.0975L56.9386 25.1959L57.1208 30.1926L57.303 35.1892L60.0012 35.0909L59.819 30.0942ZM57.1208 30.1926L62.1175 30.0104L62.0191 27.3122L57.0224 27.4944L52.0258 27.6765L52.1241 30.3747L57.1208 30.1926ZM57.0224 27.4944L56.8403 22.4977L54.1421 22.596L54.3242 27.5927L54.5064 32.5894L57.2046 32.491L57.0224 27.4944ZM54.3242 27.5927L59.3209 27.4106L59.1242 22.0142L54.1275 22.1963L49.1308 22.3785L49.3275 27.7749L54.3242 27.5927ZM54.1275 22.1963L53.9454 17.1996L51.2971 17.2962L51.4793 22.2928L51.6614 27.2895L54.3097 27.193L54.1275 22.1963ZM51.4793 22.2928L46.4826 22.475L47.2677 44.0107L52.2643 43.8285L57.261 43.6464L56.4759 22.1107L51.4793 22.2928ZM52.2643 43.8285L52.0822 38.8319L46.6858 39.0286L46.8679 44.0253L47.0501 49.0219L52.4465 48.8252L52.2643 43.8285ZM76.4381 42.9473L71.4414 43.1294L71.6236 48.1261L76.6203 47.944L76.4381 42.9473ZM75.1631 7.97052L74.9809 2.97384L69.9842 3.156L70.1664 8.15268L75.1631 7.97052ZM80.5595 7.7738L85.5562 7.59165L85.374 2.59497L80.3773 2.77712L80.5595 7.7738ZM81.8345 42.7506L82.0167 47.7472L87.0134 47.5651L86.8312 42.5684L81.8345 42.7506ZM76.4381 42.9473L81.4348 42.7651L80.1597 7.78837L75.1631 7.97052L70.1664 8.15268L71.4414 43.1294L76.4381 42.9473ZM75.1631 7.97052L75.3452 12.9672L80.7416 12.7705L80.5595 7.7738L80.3773 2.77712L74.9809 2.97384L75.1631 7.97052ZM80.5595 7.7738L75.5628 7.95595L76.8379 42.9327L81.8345 42.7506L86.8312 42.5684L85.5562 7.59165L80.5595 7.7738ZM81.8345 42.7506L81.6524 37.7539L76.256 37.9506L76.4381 42.9473L76.6203 47.944L82.0167 47.7472L81.8345 42.7506ZM95.2811 42.2604L90.2844 42.4425L90.4665 47.4392L95.4632 47.2571L95.2811 42.2604ZM94.2027 12.68L99.1994 12.4979L99.0173 7.5012L94.0206 7.68335L94.2027 12.68ZM83.4599 13.0717L78.4632 13.2538L78.6453 18.2505L83.642 18.0683L83.4599 13.0717ZM83.2631 7.67524L83.081 2.67856L78.0843 2.86071L78.2665 7.85739L83.2631 7.67524ZM110.095 6.69708L115.092 6.51493L114.91 1.51825L109.913 1.7004L110.095 6.69708ZM110.292 12.0935L110.474 17.0902L115.471 16.908L115.289 11.9113L110.292 12.0935ZM99.5991 12.4833L99.417 7.48662L94.4203 7.66878L94.6025 12.6655L99.5991 12.4833ZM100.677 42.0637L100.86 47.0603L105.856 46.8782L105.674 41.8815L100.677 42.0637ZM95.2811 42.2604L100.278 42.0782L99.1994 12.4979L94.2027 12.68L89.2061 12.8622L90.2844 42.4425L95.2811 42.2604ZM94.2027 12.68L94.0206 7.68335L83.2777 8.07498L83.4599 13.0717L83.642 18.0683L94.3849 17.6767L94.2027 12.68ZM83.4599 13.0717L88.4566 12.8895L88.2598 7.49309L83.2631 7.67524L78.2665 7.85739L78.4632 13.2538L83.4599 13.0717ZM83.2631 7.67524L83.4453 12.6719L110.277 11.6938L110.095 6.69708L109.913 1.7004L83.081 2.67856L83.2631 7.67524ZM110.095 6.69708L105.099 6.87923L105.295 12.2757L110.292 12.0935L115.289 11.9113L115.092 6.51493L110.095 6.69708ZM110.292 12.0935L110.11 7.09682L99.417 7.48662L99.5991 12.4833L99.7813 17.48L110.474 17.0902L110.292 12.0935ZM99.5991 12.4833L94.6025 12.6655L95.6808 42.2458L100.677 42.0637L105.674 41.8815L104.596 12.3012L99.5991 12.4833ZM100.677 42.0637L100.495 37.067L95.0989 37.2637L95.2811 42.2604L95.4632 47.2571L100.86 47.0603L100.677 42.0637ZM114.06 41.5758L109.063 41.758L109.245 46.7546L114.242 46.5725L114.06 41.5758ZM112.785 6.59905L112.602 1.60237L107.606 1.78452L107.788 6.7812L112.785 6.59905ZM137.018 5.71561L142.015 5.53346L141.833 0.536776L136.836 0.718928L137.018 5.71561ZM137.215 11.112L137.397 16.1087L142.394 15.9266L142.212 10.9299L137.215 11.112ZM118.378 11.7987L118.196 6.80206L113.199 6.98421L113.381 11.9809L118.378 11.7987ZM118.671 19.8434L113.674 20.0255L113.856 25.0222L118.853 24.8401L118.671 19.8434ZM134.81 19.255L139.807 19.0729L139.625 14.0762L134.628 14.2584L134.81 19.255ZM135.007 24.6515L135.189 29.6481L140.186 29.466L140.004 24.4693L135.007 24.6515ZM118.868 25.2398L118.686 20.2431L113.689 20.4253L113.871 25.422L118.868 25.2398ZM119.259 35.9827L114.263 36.1648L114.445 41.1615L119.441 40.9794L119.259 35.9827ZM138.097 35.296L143.093 35.1138L142.911 30.1171L137.915 30.2993L138.097 35.296ZM138.294 40.6924L138.476 45.6891L143.472 45.5069L143.29 40.5102L138.294 40.6924ZM114.06 41.5758L119.056 41.3937L117.781 6.41689L112.785 6.59905L107.788 6.7812L109.063 41.758L114.06 41.5758ZM112.785 6.59905L112.967 11.5957L137.201 10.7123L137.018 5.71561L136.836 0.718928L112.602 1.60237L112.785 6.59905ZM137.018 5.71561L132.022 5.89776L132.219 11.2942L137.215 11.112L142.212 10.9299L142.015 5.53346L137.018 5.71561ZM137.215 11.112L137.033 6.11534L118.196 6.80206L118.378 11.7987L118.56 16.7954L137.397 16.1087L137.215 11.112ZM118.378 11.7987L113.381 11.9809L113.674 20.0255L118.671 19.8434L123.668 19.6612L123.374 11.6166L118.378 11.7987ZM118.671 19.8434L118.853 24.8401L134.992 24.2517L134.81 19.255L134.628 14.2584L118.489 14.8467L118.671 19.8434ZM134.81 19.255L129.814 19.4372L130.01 24.8336L135.007 24.6515L140.004 24.4693L139.807 19.0729L134.81 19.255ZM135.007 24.6515L134.825 19.6548L118.686 20.2431L118.868 25.2398L119.05 30.2365L135.189 29.6481L135.007 24.6515ZM118.868 25.2398L113.871 25.422L114.263 36.1648L119.259 35.9827L124.256 35.8005L123.864 25.0577L118.868 25.2398ZM119.259 35.9827L119.441 40.9794L138.279 40.2926L138.097 35.296L137.915 30.2993L119.077 30.986L119.259 35.9827ZM138.097 35.296L133.1 35.4781L133.297 40.8745L138.294 40.6924L143.29 40.5102L143.093 35.1138L138.097 35.296ZM138.294 40.6924L138.111 35.6957L113.877 36.5791L114.06 41.5758L114.242 46.5725L138.476 45.6891L138.294 40.6924Z" fill="black" mask="url(#path-1-outside-1_264_589)"/>
<mask id="path-3-outside-2_264_589" maskUnits="userSpaceOnUse" x="0.867402" y="3.46791" width="144.544" height="50.1797" fill="black">
<rect fill="white" x="0.867402" y="3.46791" width="144.544" height="50.1797"/>
<path d="M7.67107 48.456L6.396 13.4792L11.7924 13.2825L13.0675 48.2593L7.67107 48.456ZM19.9909 15.6854L19.8925 12.9872L38.68 12.3023L38.7784 15.0005L41.4266 14.904L41.525 17.6022L44.2232 17.5038L44.5165 25.5485L39.17 25.7434L38.9751 20.397L36.3269 20.4935L36.2285 17.7953L22.7874 18.2853L22.8858 20.9835L20.1876 21.0818L20.8725 39.8694L23.5707 39.771L23.6691 42.4692L31.7137 42.1759L31.6153 39.4777L34.3136 39.3794L34.217 36.7311L36.8653 36.6346L36.7669 33.9364L31.3705 34.1331L31.1738 28.7367L44.6148 28.2467L45.3015 47.0842L39.9551 47.2791L39.7602 41.9327L37.1119 42.0292L37.2103 44.7274L34.5121 44.8258L34.6086 47.474L21.1676 47.964L21.0692 45.2658L18.371 45.3641L18.2745 42.7159L15.5763 42.8143L14.6928 18.5804L17.391 18.482L17.2927 15.7838L19.9909 15.6854ZM47.9763 46.9867L46.7013 12.0099L52.0977 11.8132L52.196 14.5114L54.8443 14.4149L55.041 19.8113L57.7392 19.7129L57.8357 22.3612L60.534 22.2628L60.7307 27.6592L63.4289 27.5609L63.5273 30.2591L66.2255 30.1607L66.4222 35.5571L69.1204 35.4587L69.022 32.7605L68.9721 32.7624L68.187 11.2267L73.5834 11.0299L74.8585 46.0067L69.4621 46.2034L69.3637 43.5052L66.7154 43.6018L66.6171 40.9036L63.9189 41.0019L63.8223 38.3537L61.1241 38.452L60.9274 33.0556L58.2292 33.154L58.1308 30.4558L55.4326 30.5541L55.2359 25.1577L52.5877 25.2543L53.3727 46.79L47.9763 46.9867ZM77.5465 45.9087L76.2715 10.932L81.6679 10.7352L82.9429 45.712L77.5465 45.9087ZM96.3895 45.2218L95.3111 15.6415L84.5683 16.0331L84.3715 10.6367L111.204 9.65851L111.4 15.0549L100.708 15.4447L101.786 45.0251L96.3895 45.2218ZM115.168 44.5372L113.893 9.56047L138.127 8.67703L138.324 14.0735L119.486 14.7602L119.779 22.8048L135.919 22.2165L136.115 27.6129L119.976 28.2012L120.368 38.9441L139.205 38.2574L139.402 43.6538L115.168 44.5372Z"/>
</mask>
<path d="M7.67107 48.456L6.396 13.4792L11.7924 13.2825L13.0675 48.2593L7.67107 48.456ZM19.9909 15.6854L19.8925 12.9872L38.68 12.3023L38.7784 15.0005L41.4266 14.904L41.525 17.6022L44.2232 17.5038L44.5165 25.5485L39.17 25.7434L38.9751 20.397L36.3269 20.4935L36.2285 17.7953L22.7874 18.2853L22.8858 20.9835L20.1876 21.0818L20.8725 39.8694L23.5707 39.771L23.6691 42.4692L31.7137 42.1759L31.6153 39.4777L34.3136 39.3794L34.217 36.7311L36.8653 36.6346L36.7669 33.9364L31.3705 34.1331L31.1738 28.7367L44.6148 28.2467L45.3015 47.0842L39.9551 47.2791L39.7602 41.9327L37.1119 42.0292L37.2103 44.7274L34.5121 44.8258L34.6086 47.474L21.1676 47.964L21.0692 45.2658L18.371 45.3641L18.2745 42.7159L15.5763 42.8143L14.6928 18.5804L17.391 18.482L17.2927 15.7838L19.9909 15.6854ZM47.9763 46.9867L46.7013 12.0099L52.0977 11.8132L52.196 14.5114L54.8443 14.4149L55.041 19.8113L57.7392 19.7129L57.8357 22.3612L60.534 22.2628L60.7307 27.6592L63.4289 27.5609L63.5273 30.2591L66.2255 30.1607L66.4222 35.5571L69.1204 35.4587L69.022 32.7605L68.9721 32.7624L68.187 11.2267L73.5834 11.0299L74.8585 46.0067L69.4621 46.2034L69.3637 43.5052L66.7154 43.6018L66.6171 40.9036L63.9189 41.0019L63.8223 38.3537L61.1241 38.452L60.9274 33.0556L58.2292 33.154L58.1308 30.4558L55.4326 30.5541L55.2359 25.1577L52.5877 25.2543L53.3727 46.79L47.9763 46.9867ZM77.5465 45.9087L76.2715 10.932L81.6679 10.7352L82.9429 45.712L77.5465 45.9087ZM96.3895 45.2218L95.3111 15.6415L84.5683 16.0331L84.3715 10.6367L111.204 9.65851L111.4 15.0549L100.708 15.4447L101.786 45.0251L96.3895 45.2218ZM115.168 44.5372L113.893 9.56047L138.127 8.67703L138.324 14.0735L119.486 14.7602L119.779 22.8048L135.919 22.2165L136.115 27.6129L119.976 28.2012L120.368 38.9441L139.205 38.2574L139.402 43.6538L115.168 44.5372Z" fill="white"/>
<path d="M7.67107 48.456L2.67439 48.6382L2.85654 53.6348L7.85322 53.4527L7.67107 48.456ZM6.396 13.4792L6.21385 8.48255L1.21717 8.66471L1.39932 13.6614L6.396 13.4792ZM11.7924 13.2825L16.7891 13.1004L16.6069 8.10368L11.6103 8.28583L11.7924 13.2825ZM13.0675 48.2593L13.2496 53.256L18.2463 53.0738L18.0642 48.0771L13.0675 48.2593ZM7.67107 48.456L12.6677 48.2738L11.3927 13.2971L6.396 13.4792L1.39932 13.6614L2.67439 48.6382L7.67107 48.456ZM6.396 13.4792L6.57815 18.4759L11.9746 18.2792L11.7924 13.2825L11.6103 8.28583L6.21385 8.48255L6.396 13.4792ZM11.7924 13.2825L6.79574 13.4647L8.0708 48.4414L13.0675 48.2593L18.0642 48.0771L16.7891 13.1004L11.7924 13.2825ZM13.0675 48.2593L12.8853 43.2626L7.48892 43.4593L7.67107 48.456L7.85322 53.4527L13.2496 53.256L13.0675 48.2593ZM19.9909 15.6854L20.173 20.6821L25.1697 20.5L24.9875 15.5033L19.9909 15.6854ZM19.8925 12.9872L19.7104 7.99054L14.7137 8.1727L14.8958 13.1694L19.8925 12.9872ZM38.68 12.3023L43.6767 12.1202L43.4946 7.1235L38.4979 7.30565L38.68 12.3023ZM38.7784 15.0005L33.7817 15.1827L33.9639 20.1794L38.9605 19.9972L38.7784 15.0005ZM41.4266 14.904L46.4233 14.7218L46.2412 9.72517L41.2445 9.90732L41.4266 14.904ZM41.525 17.6022L36.5283 17.7844L36.7105 22.781L41.7071 22.5989L41.525 17.6022ZM44.2232 17.5038L49.2199 17.3217L49.0377 12.325L44.041 12.5072L44.2232 17.5038ZM44.5165 25.5485L44.6986 30.5452L49.6953 30.363L49.5131 25.3663L44.5165 25.5485ZM39.17 25.7434L34.1733 25.9256L34.3555 30.9222L39.3522 30.7401L39.17 25.7434ZM38.9751 20.397L43.9718 20.2148L43.7896 15.2181L38.793 15.4003L38.9751 20.397ZM36.3269 20.4935L31.3302 20.6756L31.5123 25.6723L36.509 25.4902L36.3269 20.4935ZM36.2285 17.7953L41.2252 17.6131L41.043 12.6165L36.0464 12.7986L36.2285 17.7953ZM22.7874 18.2853L22.6053 13.2886L17.6086 13.4708L17.7908 18.4674L22.7874 18.2853ZM22.8858 20.9835L23.068 25.9802L28.0646 25.798L27.8825 20.8013L22.8858 20.9835ZM20.1876 21.0818L20.0054 16.0852L15.0088 16.2673L15.1909 21.264L20.1876 21.0818ZM20.8725 39.8694L15.8758 40.0515L16.058 45.0482L21.0546 44.8661L20.8725 39.8694ZM23.5707 39.771L28.5674 39.5889L28.3852 34.5922L23.3885 34.7743L23.5707 39.771ZM23.6691 42.4692L18.6724 42.6514L18.8545 47.648L23.8512 47.4659L23.6691 42.4692ZM31.7137 42.1759L31.8959 47.1726L36.8925 46.9905L36.7104 41.9938L31.7137 42.1759ZM31.6153 39.4777L31.4332 34.4811L26.4365 34.6632L26.6187 39.6599L31.6153 39.4777ZM34.3136 39.3794L34.4957 44.3761L39.4924 44.1939L39.3102 39.1972L34.3136 39.3794ZM34.217 36.7311L34.0349 31.7345L29.0382 31.9166L29.2203 36.9133L34.217 36.7311ZM36.8653 36.6346L37.0474 41.6313L42.0441 41.4491L41.8619 36.4524L36.8653 36.6346ZM36.7669 33.9364L41.7636 33.7542L41.5814 28.7576L36.5847 28.9397L36.7669 33.9364ZM31.3705 34.1331L26.3738 34.3153L26.5559 39.3119L31.5526 39.1298L31.3705 34.1331ZM31.1738 28.7367L30.9916 23.74L25.9949 23.9222L26.1771 28.9189L31.1738 28.7367ZM44.6148 28.2467L49.6115 28.0646L49.4294 23.0679L44.4327 23.25L44.6148 28.2467ZM45.3015 47.0842L45.4837 52.0809L50.4804 51.8987L50.2982 46.902L45.3015 47.0842ZM39.9551 47.2791L34.9584 47.4613L35.1406 52.4579L40.1372 52.2758L39.9551 47.2791ZM39.7602 41.9326L44.7569 41.7505L44.5747 36.7538L39.578 36.936L39.7602 41.9326ZM37.1119 42.0292L36.9298 37.0325L31.9331 37.2147L32.1153 42.2113L37.1119 42.0292ZM37.2103 44.7274L37.3925 49.7241L42.3891 49.5419L42.207 44.5452L37.2103 44.7274ZM34.5121 44.8258L34.3299 39.8291L29.3333 40.0112L29.5154 45.0079L34.5121 44.8258ZM34.6086 47.474L34.7908 52.4707L39.7875 52.2885L39.6053 47.2919L34.6086 47.474ZM21.1676 47.964L16.1709 48.1461L16.353 53.1428L21.3497 52.9607L21.1676 47.964ZM21.0692 45.2658L26.0659 45.0836L25.8837 40.087L20.8871 40.2691L21.0692 45.2658ZM18.371 45.3641L13.3743 45.5463L13.5565 50.543L18.5532 50.3608L18.371 45.3641ZM18.2745 42.7159L23.2711 42.5338L23.089 37.5371L18.0923 37.7192L18.2745 42.7159ZM15.5763 42.8143L10.5796 42.9964L10.7617 47.9931L15.7584 47.8109L15.5763 42.8143ZM14.6928 18.5804L14.5107 13.5837L9.51398 13.7658L9.69613 18.7625L14.6928 18.5804ZM17.391 18.482L17.5732 23.4787L22.5699 23.2965L22.3877 18.2999L17.391 18.482ZM17.2927 15.7838L17.1105 10.7871L12.1138 10.9693L12.296 15.9659L17.2927 15.7838ZM19.9909 15.6854L24.9875 15.5033L24.8892 12.8051L19.8925 12.9872L14.8958 13.1694L14.9942 15.8676L19.9909 15.6854ZM19.8925 12.9872L20.0747 17.9839L38.8622 17.299L38.68 12.3023L38.4979 7.30565L19.7104 7.99054L19.8925 12.9872ZM38.68 12.3023L33.6833 12.4845L33.7817 15.1827L38.7784 15.0005L43.7751 14.8184L43.6767 12.1202L38.68 12.3023ZM38.7784 15.0005L38.9605 19.9972L41.6088 19.9007L41.4266 14.904L41.2445 9.90732L38.5962 10.0039L38.7784 15.0005ZM41.4266 14.904L36.4299 15.0862L36.5283 17.7844L41.525 17.6022L46.5217 17.4201L46.4233 14.7218L41.4266 14.904ZM41.525 17.6022L41.7071 22.5989L44.4054 22.5005L44.2232 17.5038L44.041 12.5072L41.3428 12.6055L41.525 17.6022ZM44.2232 17.5038L39.2265 17.686L39.5198 25.7307L44.5165 25.5485L49.5131 25.3663L49.2199 17.3217L44.2232 17.5038ZM44.5165 25.5485L44.3343 20.5518L38.9879 20.7467L39.17 25.7434L39.3522 30.7401L44.6986 30.5452L44.5165 25.5485ZM39.17 25.7434L44.1667 25.5613L43.9718 20.2148L38.9751 20.397L33.9784 20.5791L34.1733 25.9256L39.17 25.7434ZM38.9751 20.397L38.793 15.4003L36.1447 15.4968L36.3269 20.4935L36.509 25.4902L39.1573 25.3936L38.9751 20.397ZM36.3269 20.4935L41.3236 20.3113L41.2252 17.6131L36.2285 17.7953L31.2318 17.9774L31.3302 20.6756L36.3269 20.4935ZM36.2285 17.7953L36.0464 12.7986L22.6053 13.2886L22.7874 18.2853L22.9696 23.282L36.4107 22.792L36.2285 17.7953ZM22.7874 18.2853L17.7908 18.4674L17.8891 21.1656L22.8858 20.9835L27.8825 20.8013L27.7841 18.1031L22.7874 18.2853ZM22.8858 20.9835L22.7036 15.9868L20.0054 16.0852L20.1876 21.0818L20.3697 26.0785L23.068 25.9802L22.8858 20.9835ZM20.1876 21.0818L15.1909 21.264L15.8758 40.0515L20.8725 39.8694L25.8692 39.6872L25.1843 20.8997L20.1876 21.0818ZM20.8725 39.8694L21.0546 44.8661L23.7528 44.7677L23.5707 39.771L23.3885 34.7743L20.6903 34.8727L20.8725 39.8694ZM23.5707 39.771L18.574 39.9532L18.6724 42.6514L23.6691 42.4692L28.6657 42.2871L28.5674 39.5889L23.5707 39.771ZM23.6691 42.4692L23.8512 47.4659L31.8959 47.1726L31.7137 42.1759L31.5316 37.1793L23.4869 37.4725L23.6691 42.4692ZM31.7137 42.1759L36.7104 41.9938L36.612 39.2956L31.6153 39.4777L26.6187 39.6599L26.717 42.3581L31.7137 42.1759ZM31.6153 39.4777L31.7975 44.4744L34.4957 44.3761L34.3136 39.3794L34.1314 34.3827L31.4332 34.4811L31.6153 39.4777ZM34.3136 39.3794L39.3102 39.1972L39.2137 36.549L34.217 36.7311L29.2203 36.9133L29.3169 39.5615L34.3136 39.3794ZM34.217 36.7311L34.3992 41.7278L37.0474 41.6313L36.8653 36.6346L36.6831 31.6379L34.0349 31.7345L34.217 36.7311ZM36.8653 36.6346L41.8619 36.4524L41.7636 33.7542L36.7669 33.9364L31.7702 34.1185L31.8686 36.8168L36.8653 36.6346ZM36.7669 33.9364L36.5847 28.9397L31.1883 29.1364L31.3705 34.1331L31.5526 39.1298L36.949 38.9331L36.7669 33.9364ZM31.3705 34.1331L36.3672 33.951L36.1704 28.5545L31.1738 28.7367L26.1771 28.9189L26.3738 34.3153L31.3705 34.1331ZM31.1738 28.7367L31.3559 33.7334L44.797 33.2434L44.6148 28.2467L44.4327 23.25L30.9916 23.74L31.1738 28.7367ZM44.6148 28.2467L39.6181 28.4289L40.3049 47.2663L45.3015 47.0842L50.2982 46.902L49.6115 28.0646L44.6148 28.2467ZM45.3015 47.0842L45.1194 42.0875L39.7729 42.2824L39.9551 47.2791L40.1372 52.2758L45.4837 52.0809L45.3015 47.0842ZM39.9551 47.2791L44.9518 47.0969L44.7569 41.7505L39.7602 41.9326L34.7635 42.1148L34.9584 47.4613L39.9551 47.2791ZM39.7602 41.9326L39.578 36.936L36.9298 37.0325L37.1119 42.0292L37.2941 47.0259L39.9423 46.9293L39.7602 41.9326ZM37.1119 42.0292L32.1153 42.2113L32.2136 44.9096L37.2103 44.7274L42.207 44.5452L42.1086 41.847L37.1119 42.0292ZM37.2103 44.7274L37.0282 39.7307L34.3299 39.8291L34.5121 44.8258L34.6943 49.8224L37.3925 49.7241L37.2103 44.7274ZM34.5121 44.8258L29.5154 45.0079L29.612 47.6562L34.6086 47.474L39.6053 47.2919L39.5088 44.6436L34.5121 44.8258ZM34.6086 47.474L34.4265 42.4773L20.9854 42.9673L21.1676 47.964L21.3497 52.9607L34.7908 52.4707L34.6086 47.474ZM21.1676 47.964L26.1643 47.7818L26.0659 45.0836L21.0692 45.2658L16.0725 45.4479L16.1709 48.1461L21.1676 47.964ZM21.0692 45.2658L20.8871 40.2691L18.1888 40.3675L18.371 45.3641L18.5532 50.3608L21.2514 50.2625L21.0692 45.2658ZM18.371 45.3641L23.3677 45.182L23.2711 42.5338L18.2745 42.7159L13.2778 42.8981L13.3743 45.5463L18.371 45.3641ZM18.2745 42.7159L18.0923 37.7192L15.3941 37.8176L15.5763 42.8143L15.7584 47.8109L18.4566 47.7126L18.2745 42.7159ZM15.5763 42.8143L20.5729 42.6321L19.6895 18.3982L14.6928 18.5804L9.69613 18.7625L10.5796 42.9964L15.5763 42.8143ZM14.6928 18.5804L14.875 23.577L17.5732 23.4787L17.391 18.482L17.2089 13.4853L14.5107 13.5837L14.6928 18.5804ZM17.391 18.482L22.3877 18.2999L22.2893 15.6016L17.2927 15.7838L12.296 15.9659L12.3943 18.6642L17.391 18.482ZM17.2927 15.7838L17.4748 20.7805L20.173 20.6821L19.9909 15.6854L19.8087 10.6888L17.1105 10.7871L17.2927 15.7838ZM47.9763 46.9867L42.9796 47.1688L43.1618 52.1655L48.1585 51.9834L47.9763 46.9867ZM46.7013 12.0099L46.5191 7.01324L41.5224 7.19539L41.7046 12.1921L46.7013 12.0099ZM52.0977 11.8132L57.0944 11.631L56.9122 6.63436L51.9155 6.81652L52.0977 11.8132ZM52.196 14.5114L47.1994 14.6936L47.3815 19.6902L52.3782 19.5081L52.196 14.5114ZM54.8443 14.4149L59.841 14.2327L59.6588 9.23603L54.6621 9.41818L54.8443 14.4149ZM55.041 19.8113L50.0443 19.9934L50.2265 24.9901L55.2232 24.808L55.041 19.8113ZM57.7392 19.7129L62.7359 19.5308L62.5537 14.5341L57.5571 14.7162L57.7392 19.7129ZM57.8358 22.3612L52.8391 22.5433L53.0212 27.54L58.0179 27.3578L57.8358 22.3612ZM60.534 22.2628L65.5306 22.0806L65.3485 17.084L60.3518 17.2661L60.534 22.2628ZM60.7307 27.6592L55.734 27.8414L55.9162 32.838L60.9128 32.6559L60.7307 27.6592ZM63.4289 27.5609L68.4256 27.3787L68.2434 22.382L63.2467 22.5642L63.4289 27.5609ZM63.5272 30.2591L58.5306 30.4412L58.7127 35.4379L63.7094 35.2557L63.5272 30.2591ZM66.2255 30.1607L71.2221 29.9785L71.04 24.9819L66.0433 25.164L66.2255 30.1607ZM66.4222 35.5571L61.4255 35.7393L61.6077 40.7359L66.6043 40.5538L66.4222 35.5571ZM69.1204 35.4587L69.3025 40.4554L74.2992 40.2733L74.1171 35.2766L69.1204 35.4587ZM69.022 32.7605L74.0187 32.5784L73.8366 27.5817L68.8399 27.7639L69.022 32.7605ZM68.9721 32.7624L63.9754 32.9445L64.1575 37.9412L69.1542 37.759L68.9721 32.7624ZM68.187 11.2267L68.0048 6.22999L63.0082 6.41214L63.1903 11.4088L68.187 11.2267ZM73.5834 11.0299L78.5801 10.8478L78.3979 5.85111L73.4012 6.03326L73.5834 11.0299ZM74.8585 46.0067L75.0406 51.0034L80.0373 50.8212L79.8551 45.8246L74.8585 46.0067ZM69.4621 46.2034L64.4654 46.3856L64.6475 51.3823L69.6442 51.2001L69.4621 46.2034ZM69.3637 43.5052L74.3604 43.3231L74.1782 38.3264L69.1815 38.5085L69.3637 43.5052ZM66.7154 43.6018L61.7188 43.7839L61.9009 48.7806L66.8976 48.5984L66.7154 43.6018ZM66.6171 40.9036L71.6138 40.7214L71.4316 35.7247L66.4349 35.9069L66.6171 40.9036ZM63.9189 41.0019L58.9222 41.1841L59.1043 46.1808L64.101 45.9986L63.9189 41.0019ZM63.8223 38.3537L68.819 38.1715L68.6369 33.1748L63.6402 33.357L63.8223 38.3537ZM61.1241 38.452L56.1274 38.6342L56.3096 43.6309L61.3063 43.4487L61.1241 38.452ZM60.9274 33.0556L65.9241 32.8735L65.7419 27.8768L60.7453 28.0589L60.9274 33.0556ZM58.2292 33.154L53.2325 33.3361L53.4147 38.3328L58.4114 38.1507L58.2292 33.154ZM58.1308 30.4558L63.1275 30.2736L62.9454 25.2769L57.9487 25.4591L58.1308 30.4558ZM55.4326 30.5541L50.4359 30.7363L50.6181 35.733L55.6148 35.5508L55.4326 30.5541ZM55.2359 25.1577L60.2326 24.9756L60.0504 19.9789L55.0538 20.161L55.2359 25.1577ZM52.5877 25.2543L52.4055 20.2576L47.4088 20.4397L47.591 25.4364L52.5877 25.2543ZM53.3727 46.79L53.5549 51.7866L58.5516 51.6045L58.3694 46.6078L53.3727 46.79ZM47.9763 46.9867L52.973 46.8045L51.6979 11.8278L46.7013 12.0099L41.7046 12.1921L42.9796 47.1688L47.9763 46.9867ZM46.7013 12.0099L46.8834 17.0066L52.2798 16.8099L52.0977 11.8132L51.9155 6.81652L46.5191 7.01324L46.7013 12.0099ZM52.0977 11.8132L47.101 11.9953L47.1994 14.6936L52.196 14.5114L57.1927 14.3293L57.0944 11.631L52.0977 11.8132ZM52.196 14.5114L52.3782 19.5081L55.0264 19.4115L54.8443 14.4149L54.6621 9.41818L52.0139 9.51473L52.196 14.5114ZM54.8443 14.4149L49.8476 14.597L50.0443 19.9934L55.041 19.8113L60.0377 19.6291L59.841 14.2327L54.8443 14.4149ZM55.041 19.8113L55.2232 24.808L57.9214 24.7096L57.7392 19.7129L57.5571 14.7162L54.8588 14.8146L55.041 19.8113ZM57.7392 19.7129L52.7425 19.8951L52.8391 22.5433L57.8358 22.3612L62.8324 22.179L62.7359 19.5308L57.7392 19.7129ZM57.8358 22.3612L58.0179 27.3578L60.7161 27.2595L60.534 22.2628L60.3518 17.2661L57.6536 17.3645L57.8358 22.3612ZM60.534 22.2628L55.5373 22.4449L55.734 27.8414L60.7307 27.6592L65.7274 27.4771L65.5306 22.0806L60.534 22.2628ZM60.7307 27.6592L60.9128 32.6559L63.611 32.5575L63.4289 27.5609L63.2467 22.5642L60.5485 22.6625L60.7307 27.6592ZM63.4289 27.5609L58.4322 27.743L58.5306 30.4412L63.5272 30.2591L68.5239 30.0769L68.4256 27.3787L63.4289 27.5609ZM63.5272 30.2591L63.7094 35.2557L66.4076 35.1574L66.2255 30.1607L66.0433 25.164L63.3451 25.2624L63.5272 30.2591ZM66.2255 30.1607L61.2288 30.3428L61.4255 35.7393L66.4222 35.5571L71.4189 35.375L71.2221 29.9785L66.2255 30.1607ZM66.4222 35.5571L66.6043 40.5538L69.3025 40.4554L69.1204 35.4587L68.9382 30.4621L66.24 30.5604L66.4222 35.5571ZM69.1204 35.4587L74.1171 35.2766L74.0187 32.5784L69.022 32.7605L64.0253 32.9427L64.1237 35.6409L69.1204 35.4587ZM69.022 32.7605L68.8399 27.7639L68.7899 27.7657L68.9721 32.7624L69.1542 37.759L69.2042 37.7572L69.022 32.7605ZM68.9721 32.7624L73.9687 32.5802L73.1837 11.0445L68.187 11.2267L63.1903 11.4088L63.9754 32.9445L68.9721 32.7624ZM68.187 11.2267L68.3691 16.2233L73.7656 16.0266L73.5834 11.0299L73.4012 6.03326L68.0048 6.22999L68.187 11.2267ZM73.5834 11.0299L68.5867 11.2121L69.8618 46.1889L74.8585 46.0067L79.8551 45.8246L78.5801 10.8478L73.5834 11.0299ZM74.8585 46.0067L74.6763 41.01L69.2799 41.2068L69.4621 46.2034L69.6442 51.2001L75.0406 51.0034L74.8585 46.0067ZM69.4621 46.2034L74.4587 46.0213L74.3604 43.3231L69.3637 43.5052L64.367 43.6874L64.4654 46.3856L69.4621 46.2034ZM69.3637 43.5052L69.1815 38.5085L66.5333 38.6051L66.7154 43.6018L66.8976 48.5984L69.5458 48.5019L69.3637 43.5052ZM66.7154 43.6018L71.7121 43.4196L71.6138 40.7214L66.6171 40.9036L61.6204 41.0857L61.7188 43.7839L66.7154 43.6018ZM66.6171 40.9036L66.4349 35.9069L63.7367 36.0052L63.9189 41.0019L64.101 45.9986L66.7992 45.9002L66.6171 40.9036ZM63.9189 41.0019L68.9156 40.8198L68.819 38.1715L63.8223 38.3537L58.8257 38.5358L58.9222 41.1841L63.9189 41.0019ZM63.8223 38.3537L63.6402 33.357L60.942 33.4554L61.1241 38.452L61.3063 43.4487L64.0045 43.3504L63.8223 38.3537ZM61.1241 38.452L66.1208 38.2699L65.9241 32.8735L60.9274 33.0556L55.9307 33.2378L56.1274 38.6342L61.1241 38.452ZM60.9274 33.0556L60.7453 28.0589L58.047 28.1573L58.2292 33.154L58.4114 38.1507L61.1096 38.0523L60.9274 33.0556ZM58.2292 33.154L63.2259 32.9718L63.1275 30.2736L58.1308 30.4558L53.1342 30.6379L53.2325 33.3361L58.2292 33.154ZM58.1308 30.4558L57.9487 25.4591L55.2505 25.5575L55.4326 30.5541L55.6148 35.5508L58.313 35.4525L58.1308 30.4558ZM55.4326 30.5541L60.4293 30.372L60.2326 24.9756L55.2359 25.1577L50.2392 25.3399L50.4359 30.7363L55.4326 30.5541ZM55.2359 25.1577L55.0538 20.161L52.4055 20.2576L52.5877 25.2543L52.7698 30.251L55.4181 30.1544L55.2359 25.1577ZM52.5877 25.2543L47.591 25.4364L48.3761 46.9721L53.3727 46.79L58.3694 46.6078L57.5843 25.0721L52.5877 25.2543ZM53.3727 46.79L53.1906 41.7933L47.7942 41.99L47.9763 46.9867L48.1585 51.9834L53.5549 51.7866L53.3727 46.79ZM77.5465 45.9087L72.5498 46.0909L72.732 51.0876L77.7287 50.9054L77.5465 45.9087ZM76.2715 10.932L76.0893 5.93527L71.0926 6.11742L71.2748 11.1141L76.2715 10.932ZM81.6679 10.7352L86.6646 10.5531L86.4824 5.55639L81.4857 5.73855L81.6679 10.7352ZM82.9429 45.712L83.1251 50.7087L88.1218 50.5265L87.9396 45.5298L82.9429 45.712ZM77.5465 45.9087L82.5432 45.7266L81.2681 10.7498L76.2715 10.932L71.2748 11.1141L72.5498 46.0909L77.5465 45.9087ZM76.2715 10.932L76.4536 15.9286L81.85 15.7319L81.6679 10.7352L81.4857 5.73855L76.0893 5.93527L76.2715 10.932ZM81.6679 10.7352L76.6712 10.9174L77.9463 45.8941L82.9429 45.712L87.9396 45.5298L86.6646 10.5531L81.6679 10.7352ZM82.9429 45.712L82.7608 40.7153L77.3644 40.912L77.5465 45.9087L77.7287 50.9054L83.1251 50.7087L82.9429 45.712ZM96.3895 45.2218L91.3928 45.404L91.5749 50.4006L96.5716 50.2185L96.3895 45.2218ZM95.3111 15.6415L100.308 15.4593L100.126 10.4626L95.129 10.6448L95.3111 15.6415ZM84.5683 16.0331L79.5716 16.2152L79.7537 21.2119L84.7504 21.0298L84.5683 16.0331ZM84.3715 10.6367L84.1894 5.63998L79.1927 5.82214L79.3749 10.8188L84.3715 10.6367ZM111.204 9.65851L116.2 9.47636L116.018 4.47967L111.022 4.66183L111.204 9.65851ZM111.4 15.0549L111.583 20.0516L116.579 19.8695L116.397 14.8728L111.4 15.0549ZM100.708 15.4447L100.525 10.448L95.5287 10.6302L95.7109 15.6269L100.708 15.4447ZM101.786 45.0251L101.968 50.0218L106.965 49.8396L106.783 44.8429L101.786 45.0251ZM96.3895 45.2218L101.386 45.0397L100.308 15.4593L95.3111 15.6415L90.3145 15.8236L91.3928 45.404L96.3895 45.2218ZM95.3111 15.6415L95.129 10.6448L84.3861 11.0364L84.5683 16.0331L84.7504 21.0298L95.4933 20.6381L95.3111 15.6415ZM84.5683 16.0331L89.5649 15.8509L89.3682 10.4545L84.3715 10.6367L79.3749 10.8188L79.5716 16.2152L84.5683 16.0331ZM84.3715 10.6367L84.5537 15.6333L111.386 14.6552L111.204 9.65851L111.022 4.66183L84.1894 5.63998L84.3715 10.6367ZM111.204 9.65851L106.207 9.84066L106.404 15.2371L111.4 15.0549L116.397 14.8728L116.2 9.47636L111.204 9.65851ZM111.4 15.0549L111.218 10.0582L100.525 10.448L100.708 15.4447L100.89 20.4414L111.583 20.0516L111.4 15.0549ZM100.708 15.4447L95.7109 15.6269L96.7892 45.2072L101.786 45.0251L106.783 44.8429L105.704 15.2626L100.708 15.4447ZM101.786 45.0251L101.604 40.0284L96.2073 40.2251L96.3895 45.2218L96.5716 50.2185L101.968 50.0218L101.786 45.0251ZM115.168 44.5372L110.171 44.7194L110.353 49.7161L115.35 49.5339L115.168 44.5372ZM113.893 9.56047L113.711 4.56379L108.714 4.74594L108.896 9.74262L113.893 9.56047ZM138.127 8.67703L143.124 8.49488L142.941 3.4982L137.945 3.68035L138.127 8.67703ZM138.324 14.0735L138.506 19.0701L143.502 18.888L143.32 13.8913L138.324 14.0735ZM119.486 14.7602L119.304 9.76348L114.307 9.94564L114.489 14.9423L119.486 14.7602ZM119.779 22.8048L114.783 22.987L114.965 27.9837L119.962 27.8015L119.779 22.8048ZM135.919 22.2165L140.915 22.0343L140.733 17.0376L135.736 17.2198L135.919 22.2165ZM136.115 27.6129L136.298 32.6096L141.294 32.4274L141.112 27.4307L136.115 27.6129ZM119.976 28.2012L119.794 23.2046L114.797 23.3867L114.979 28.3834L119.976 28.2012ZM120.368 38.9441L115.371 39.1263L115.553 44.1229L120.55 43.9408L120.368 38.9441ZM139.205 38.2574L144.202 38.0752L144.02 33.0786L139.023 33.2607L139.205 38.2574ZM139.402 43.6538L139.584 48.6505L144.581 48.4683L144.399 43.4716L139.402 43.6538ZM115.168 44.5372L120.165 44.3551L118.89 9.37832L113.893 9.56047L108.896 9.74262L110.171 44.7194L115.168 44.5372ZM113.893 9.56047L114.075 14.5572L138.309 13.6737L138.127 8.67703L137.945 3.68035L113.711 4.56379L113.893 9.56047ZM138.127 8.67703L133.13 8.85919L133.327 14.2556L138.324 14.0735L143.32 13.8913L143.124 8.49488L138.127 8.67703ZM138.324 14.0735L138.141 9.07677L119.304 9.76348L119.486 14.7602L119.668 19.7568L138.506 19.0701L138.324 14.0735ZM119.486 14.7602L114.489 14.9423L114.783 22.987L119.779 22.8048L124.776 22.6227L124.483 14.578L119.486 14.7602ZM119.779 22.8048L119.962 27.8015L136.101 27.2131L135.919 22.2165L135.736 17.2198L119.597 17.8081L119.779 22.8048ZM135.919 22.2165L130.922 22.3986L131.119 27.795L136.115 27.6129L141.112 27.4307L140.915 22.0343L135.919 22.2165ZM136.115 27.6129L135.933 22.6162L119.794 23.2046L119.976 28.2012L120.158 33.1979L136.298 32.6096L136.115 27.6129ZM119.976 28.2012L114.979 28.3834L115.371 39.1263L120.368 38.9441L125.364 38.7619L124.973 28.0191L119.976 28.2012ZM120.368 38.9441L120.55 43.9408L139.387 43.2541L139.205 38.2574L139.023 33.2607L120.186 33.9474L120.368 38.9441ZM139.205 38.2574L134.209 38.4395L134.405 43.836L139.402 43.6538L144.399 43.4716L144.202 38.0752L139.205 38.2574ZM139.402 43.6538L139.22 38.6571L114.986 39.5406L115.168 44.5372L115.35 49.5339L139.584 48.6505L139.402 43.6538Z" fill="black" mask="url(#path-3-outside-2_264_589)"/>
</svg>
