<svg width="172" height="56" viewBox="0 0 172 56" fill="none" xmlns="http://www.w3.org/2000/svg">
<mask id="path-1-outside-1_264_593" maskUnits="userSpaceOnUse" x="0.618866" y="0.945139" width="168.529" height="51.054" fill="black">
<rect fill="white" x="0.618866" y="0.945139" width="168.529" height="51.054"/>
<path d="M7.42253 46.8076L6.14747 11.8308L11.5439 11.6341L12.8189 46.6108L7.42253 46.8076ZM15.5226 46.5123L14.2476 11.5355L19.644 11.3388L19.7423 14.037L22.3906 13.9405L22.5873 19.3369L25.2855 19.2385L25.382 21.8867L28.0803 21.7884L28.277 27.1848L30.9752 27.0864L31.0735 29.7846L33.7718 29.6863L33.9685 35.0827L36.6667 34.9843L36.5683 32.2861L36.5184 32.288L35.7333 10.7523L41.1297 10.5555L42.4048 45.5323L37.0083 45.729L36.91 43.0308L34.2617 43.1274L34.1634 40.4291L31.4652 40.5275L31.3686 37.8793L28.6704 37.9776L28.4737 32.5812L25.7755 32.6796L25.6771 29.9814L22.9789 30.0797L22.7822 24.6833L20.134 24.7799L20.919 46.3156L15.5226 46.5123ZM46.7127 15.7556L46.6143 13.0574L49.2626 12.9608L49.1642 10.2626L65.3534 9.67247L65.4518 12.3707L68.1001 12.2741L68.1984 14.9723L70.8966 14.874L71.0933 20.2704L65.6969 20.4671L65.5986 17.7689L62.9503 17.8654L62.852 15.1672L52.0591 15.5607L52.1575 18.2589L49.4593 18.3573L49.5558 21.0055L52.254 20.9071L52.3524 23.6053L65.8434 23.1135L65.9418 25.8117L68.59 25.7152L68.6884 28.4134L71.3866 28.315L71.7782 39.0579L69.08 39.1563L69.1784 41.8545L66.5302 41.951L66.6285 44.6492L50.4393 45.2394L50.3409 42.5412L47.6927 42.6377L47.5943 39.9395L44.8961 40.0379L44.7012 34.6914L50.0476 34.4965L50.1442 37.1448L52.8424 37.0464L52.9408 39.7446L63.7336 39.3512L63.6352 36.653L66.3334 36.5546L66.1385 31.2082L63.4903 31.3047L63.3919 28.6065L49.8509 29.1001L49.7526 26.4019L47.1043 26.4985L47.006 23.8003L44.3077 23.8986L44.0145 15.854L46.7127 15.7556ZM78.9811 14.5793L79.3727 25.3221L90.1156 24.9305L90.0172 22.2323L92.7154 22.1339L92.5205 16.7875L89.8223 16.8858L89.724 14.1876L78.9811 14.5793ZM74.663 44.3563L73.388 9.37957L92.2254 8.69286L92.3238 11.3911L95.022 11.2927L95.1204 13.9909L97.8186 13.8925L98.2102 24.6354L95.512 24.7338L95.6104 27.432L92.9122 27.5303L93.0105 30.2286L79.5694 30.7185L80.0594 44.1596L74.663 44.3563ZM101.598 43.3744L100.323 8.39766L105.72 8.20093L106.995 43.1777L101.598 43.3744ZM114.016 13.3021L114.408 24.0449L127.799 23.5568L127.701 20.8585L130.399 20.7602L130.204 15.4137L127.506 15.5121L127.408 12.8139L114.016 13.3021ZM109.698 43.0791L108.423 8.10237L129.909 7.31912L130.007 10.0173L132.706 9.91896L132.804 12.6172L135.502 12.5188L135.894 23.2617L133.196 23.36L133.294 26.0582L130.596 26.1566L130.694 28.8548L133.392 28.7564L133.491 31.4547L136.189 31.3563L136.58 42.0992L131.184 42.2959L130.889 34.2013L128.191 34.2996L128.094 31.6514L125.396 31.7497L125.298 29.0515L114.605 29.4413L115.095 42.8824L109.698 43.0791ZM139.269 42.0012L137.993 7.0244L162.227 6.14096L162.424 11.5374L143.587 12.2241L143.88 20.2687L160.019 19.6804L160.216 25.0768L144.077 25.6652L144.468 36.408L163.306 35.7213L163.502 41.1177L139.269 42.0012Z"/>
</mask>
<path d="M7.42253 46.8076L6.14747 11.8308L11.5439 11.6341L12.8189 46.6108L7.42253 46.8076ZM15.5226 46.5123L14.2476 11.5355L19.644 11.3388L19.7423 14.037L22.3906 13.9405L22.5873 19.3369L25.2855 19.2385L25.382 21.8867L28.0803 21.7884L28.277 27.1848L30.9752 27.0864L31.0735 29.7846L33.7718 29.6863L33.9685 35.0827L36.6667 34.9843L36.5683 32.2861L36.5184 32.288L35.7333 10.7523L41.1297 10.5555L42.4048 45.5323L37.0083 45.729L36.91 43.0308L34.2617 43.1274L34.1634 40.4291L31.4652 40.5275L31.3686 37.8793L28.6704 37.9776L28.4737 32.5812L25.7755 32.6796L25.6771 29.9814L22.9789 30.0797L22.7822 24.6833L20.134 24.7799L20.919 46.3156L15.5226 46.5123ZM46.7127 15.7556L46.6143 13.0574L49.2626 12.9608L49.1642 10.2626L65.3534 9.67247L65.4518 12.3707L68.1001 12.2741L68.1984 14.9723L70.8966 14.874L71.0933 20.2704L65.6969 20.4671L65.5986 17.7689L62.9503 17.8654L62.852 15.1672L52.0591 15.5607L52.1575 18.2589L49.4593 18.3573L49.5558 21.0055L52.254 20.9071L52.3524 23.6053L65.8434 23.1135L65.9418 25.8117L68.59 25.7152L68.6884 28.4134L71.3866 28.315L71.7782 39.0579L69.08 39.1563L69.1784 41.8545L66.5302 41.951L66.6285 44.6492L50.4393 45.2394L50.3409 42.5412L47.6927 42.6377L47.5943 39.9395L44.8961 40.0379L44.7012 34.6914L50.0476 34.4965L50.1442 37.1448L52.8424 37.0464L52.9408 39.7446L63.7336 39.3512L63.6352 36.653L66.3334 36.5546L66.1385 31.2082L63.4903 31.3047L63.3919 28.6065L49.8509 29.1001L49.7526 26.4019L47.1043 26.4985L47.006 23.8003L44.3077 23.8986L44.0145 15.854L46.7127 15.7556ZM78.9811 14.5793L79.3727 25.3221L90.1156 24.9305L90.0172 22.2323L92.7154 22.1339L92.5205 16.7875L89.8223 16.8858L89.724 14.1876L78.9811 14.5793ZM74.663 44.3563L73.388 9.37957L92.2254 8.69286L92.3238 11.3911L95.022 11.2927L95.1204 13.9909L97.8186 13.8925L98.2102 24.6354L95.512 24.7338L95.6104 27.432L92.9122 27.5303L93.0105 30.2286L79.5694 30.7185L80.0594 44.1596L74.663 44.3563ZM101.598 43.3744L100.323 8.39766L105.72 8.20093L106.995 43.1777L101.598 43.3744ZM114.016 13.3021L114.408 24.0449L127.799 23.5568L127.701 20.8585L130.399 20.7602L130.204 15.4137L127.506 15.5121L127.408 12.8139L114.016 13.3021ZM109.698 43.0791L108.423 8.10237L129.909 7.31912L130.007 10.0173L132.706 9.91896L132.804 12.6172L135.502 12.5188L135.894 23.2617L133.196 23.36L133.294 26.0582L130.596 26.1566L130.694 28.8548L133.392 28.7564L133.491 31.4547L136.189 31.3563L136.58 42.0992L131.184 42.2959L130.889 34.2013L128.191 34.2996L128.094 31.6514L125.396 31.7497L125.298 29.0515L114.605 29.4413L115.095 42.8824L109.698 43.0791ZM139.269 42.0012L137.993 7.0244L162.227 6.14096L162.424 11.5374L143.587 12.2241L143.88 20.2687L160.019 19.6804L160.216 25.0768L144.077 25.6652L144.468 36.408L163.306 35.7213L163.502 41.1177L139.269 42.0012Z" fill="white"/>
<path d="M7.42253 46.8076L2.42585 46.9897L2.608 51.9864L7.60468 51.8042L7.42253 46.8076ZM6.14747 11.8308L5.96531 6.83412L0.968634 7.01627L1.15079 12.013L6.14747 11.8308ZM11.5439 11.6341L16.5406 11.4519L16.3584 6.45524L11.3617 6.63739L11.5439 11.6341ZM12.8189 46.6108L13.0011 51.6075L17.9978 51.4254L17.8156 46.4287L12.8189 46.6108ZM7.42253 46.8076L12.4192 46.6254L11.1441 11.6486L6.14747 11.8308L1.15079 12.013L2.42585 46.9897L7.42253 46.8076ZM6.14747 11.8308L6.32962 16.8275L11.726 16.6308L11.5439 11.6341L11.3617 6.63739L5.96531 6.83412L6.14747 11.8308ZM11.5439 11.6341L6.5472 11.8162L7.82227 46.793L12.8189 46.6108L17.8156 46.4287L16.5406 11.4519L11.5439 11.6341ZM12.8189 46.6108L12.6368 41.6142L7.24038 41.8109L7.42253 46.8076L7.60468 51.8042L13.0011 51.6075L12.8189 46.6108ZM15.5226 46.5123L10.5259 46.6944L10.7081 51.6911L15.7048 51.509L15.5226 46.5123ZM14.2476 11.5355L14.0654 6.53883L9.06872 6.72098L9.25087 11.7177L14.2476 11.5355ZM19.644 11.3388L24.6407 11.1566L24.4585 6.15995L19.4618 6.34211L19.644 11.3388ZM19.7423 14.037L14.7457 14.2191L14.9278 19.2158L19.9245 19.0337L19.7423 14.037ZM22.3906 13.9405L27.3873 13.7583L27.2051 8.76162L22.2084 8.94378L22.3906 13.9405ZM22.5873 19.3369L17.5906 19.519L17.7728 24.5157L22.7694 24.3336L22.5873 19.3369ZM25.2855 19.2385L30.2822 19.0564L30.1 14.0597L25.1034 14.2418L25.2855 19.2385ZM25.382 21.8867L20.3854 22.0689L20.5675 27.0656L25.5642 26.8834L25.382 21.8867ZM28.0803 21.7884L33.0769 21.6062L32.8948 16.6096L27.8981 16.7917L28.0803 21.7884ZM28.277 27.1848L23.2803 27.367L23.4624 32.3636L28.4591 32.1815L28.277 27.1848ZM30.9752 27.0864L35.9719 26.9043L35.7897 21.9076L30.793 22.0898L30.9752 27.0864ZM31.0735 29.7846L26.0769 29.9668L26.259 34.9635L31.2557 34.7813L31.0735 29.7846ZM33.7718 29.6863L38.7684 29.5041L38.5863 24.5075L33.5896 24.6896L33.7718 29.6863ZM33.9685 35.0827L28.9718 35.2649L29.154 40.2615L34.1506 40.0794L33.9685 35.0827ZM36.6667 34.9843L36.8488 39.981L41.8455 39.7989L41.6634 34.8022L36.6667 34.9843ZM36.5683 32.2861L41.565 32.104L41.3829 27.1073L36.3862 27.2895L36.5683 32.2861ZM36.5184 32.288L31.5217 32.4701L31.7038 37.4668L36.7005 37.2846L36.5184 32.288ZM35.7333 10.7523L35.5511 5.75558L30.5544 5.93773L30.7366 10.9344L35.7333 10.7523ZM41.1297 10.5555L46.1264 10.3734L45.9442 5.3767L40.9475 5.55885L41.1297 10.5555ZM42.4048 45.5323L42.5869 50.529L47.5836 50.3468L47.4014 45.3501L42.4048 45.5323ZM37.0083 45.729L32.0117 45.9112L32.1938 50.9079L37.1905 50.7257L37.0083 45.729ZM36.91 43.0308L41.9067 42.8487L41.7245 37.852L36.7278 38.0341L36.91 43.0308ZM34.2617 43.1274L29.2651 43.3095L29.4472 48.3062L34.4439 48.124L34.2617 43.1274ZM34.1634 40.4291L39.1601 40.247L38.9779 35.2503L33.9812 35.4325L34.1634 40.4291ZM31.4652 40.5275L26.4685 40.7097L26.6506 45.7063L31.6473 45.5242L31.4652 40.5275ZM31.3686 37.8793L36.3653 37.6971L36.1832 32.7004L31.1865 32.8826L31.3686 37.8793ZM28.6704 37.9776L23.6737 38.1598L23.8559 43.1565L28.8526 42.9743L28.6704 37.9776ZM28.4737 32.5812L33.4704 32.3991L33.2882 27.4024L28.2915 27.5845L28.4737 32.5812ZM25.7755 32.6796L20.7788 32.8617L20.961 37.8584L25.9576 37.6763L25.7755 32.6796ZM25.6771 29.9814L30.6738 29.7992L30.4917 24.8025L25.495 24.9847L25.6771 29.9814ZM22.9789 30.0797L17.9822 30.2619L18.1644 35.2586L23.1611 35.0764L22.9789 30.0797ZM22.7822 24.6833L27.7789 24.5012L27.5967 19.5045L22.6 19.6866L22.7822 24.6833ZM20.134 24.7799L19.9518 19.7832L14.9551 19.9653L15.1373 24.962L20.134 24.7799ZM20.919 46.3156L21.1012 51.3122L26.0979 51.1301L25.9157 46.1334L20.919 46.3156ZM15.5226 46.5123L20.5193 46.3301L19.2442 11.3534L14.2476 11.5355L9.25087 11.7177L10.5259 46.6944L15.5226 46.5123ZM14.2476 11.5355L14.4297 16.5322L19.8261 16.3355L19.644 11.3388L19.4618 6.34211L14.0654 6.53883L14.2476 11.5355ZM19.644 11.3388L14.6473 11.5209L14.7457 14.2191L19.7423 14.037L24.739 13.8548L24.6407 11.1566L19.644 11.3388ZM19.7423 14.037L19.9245 19.0337L22.5727 18.9371L22.3906 13.9405L22.2084 8.94378L19.5602 9.04032L19.7423 14.037ZM22.3906 13.9405L17.3939 14.1226L17.5906 19.519L22.5873 19.3369L27.584 19.1547L27.3873 13.7583L22.3906 13.9405ZM22.5873 19.3369L22.7694 24.3336L25.4677 24.2352L25.2855 19.2385L25.1034 14.2418L22.4051 14.3402L22.5873 19.3369ZM25.2855 19.2385L20.2888 19.4207L20.3854 22.0689L25.382 21.8867L30.3787 21.7046L30.2822 19.0564L25.2855 19.2385ZM25.382 21.8867L25.5642 26.8834L28.2624 26.7851L28.0803 21.7884L27.8981 16.7917L25.1999 16.8901L25.382 21.8867ZM28.0803 21.7884L23.0836 21.9705L23.2803 27.367L28.277 27.1848L33.2737 27.0027L33.0769 21.6062L28.0803 21.7884ZM28.277 27.1848L28.4591 32.1815L31.1573 32.0831L30.9752 27.0864L30.793 22.0898L28.0948 22.1881L28.277 27.1848ZM30.9752 27.0864L25.9785 27.2686L26.0769 29.9668L31.0735 29.7846L36.0702 29.6025L35.9719 26.9043L30.9752 27.0864ZM31.0735 29.7846L31.2557 34.7813L33.9539 34.683L33.7718 29.6863L33.5896 24.6896L30.8914 24.788L31.0735 29.7846ZM33.7718 29.6863L28.7751 29.8684L28.9718 35.2649L33.9685 35.0827L38.9652 34.9005L38.7684 29.5041L33.7718 29.6863ZM33.9685 35.0827L34.1506 40.0794L36.8488 39.981L36.6667 34.9843L36.4845 29.9877L33.7863 30.086L33.9685 35.0827ZM36.6667 34.9843L41.6634 34.8022L41.565 32.104L36.5683 32.2861L31.5716 32.4683L31.67 35.1665L36.6667 34.9843ZM36.5683 32.2861L36.3862 27.2895L36.3362 27.2913L36.5184 32.288L36.7005 37.2846L36.7505 37.2828L36.5683 32.2861ZM36.5184 32.288L41.515 32.1058L40.73 10.5701L35.7333 10.7523L30.7366 10.9344L31.5217 32.4701L36.5184 32.288ZM35.7333 10.7523L35.9154 15.7489L41.3118 15.5522L41.1297 10.5555L40.9475 5.55885L35.5511 5.75558L35.7333 10.7523ZM41.1297 10.5555L36.133 10.7377L37.4081 45.7145L42.4048 45.5323L47.4014 45.3501L46.1264 10.3734L41.1297 10.5555ZM42.4048 45.5323L42.2226 40.5356L36.8262 40.7323L37.0083 45.729L37.1905 50.7257L42.5869 50.529L42.4048 45.5323ZM37.0083 45.729L42.005 45.5469L41.9067 42.8487L36.91 43.0308L31.9133 43.213L32.0117 45.9112L37.0083 45.729ZM36.91 43.0308L36.7278 38.0341L34.0796 38.1307L34.2617 43.1274L34.4439 48.124L37.0921 48.0275L36.91 43.0308ZM34.2617 43.1274L39.2584 42.9452L39.1601 40.247L34.1634 40.4291L29.1667 40.6113L29.2651 43.3095L34.2617 43.1274ZM34.1634 40.4291L33.9812 35.4325L31.283 35.5308L31.4652 40.5275L31.6473 45.5242L34.3455 45.4258L34.1634 40.4291ZM31.4652 40.5275L36.4619 40.3454L36.3653 37.6971L31.3686 37.8793L26.372 38.0614L26.4685 40.7097L31.4652 40.5275ZM31.3686 37.8793L31.1865 32.8826L28.4883 32.981L28.6704 37.9776L28.8526 42.9743L31.5508 42.876L31.3686 37.8793ZM28.6704 37.9776L33.6671 37.7955L33.4704 32.3991L28.4737 32.5812L23.477 32.7634L23.6737 38.1598L28.6704 37.9776ZM28.4737 32.5812L28.2915 27.5845L25.5933 27.6829L25.7755 32.6796L25.9576 37.6763L28.6559 37.5779L28.4737 32.5812ZM25.7755 32.6796L30.7722 32.4974L30.6738 29.7992L25.6771 29.9814L20.6805 30.1635L20.7788 32.8617L25.7755 32.6796ZM25.6771 29.9814L25.495 24.9847L22.7968 25.0831L22.9789 30.0797L23.1611 35.0764L25.8593 34.9781L25.6771 29.9814ZM22.9789 30.0797L27.9756 29.8976L27.7789 24.5012L22.7822 24.6833L17.7855 24.8655L17.9822 30.2619L22.9789 30.0797ZM22.7822 24.6833L22.6 19.6866L19.9518 19.7832L20.134 24.7799L20.3161 29.7765L22.9644 29.68L22.7822 24.6833ZM20.134 24.7799L15.1373 24.962L15.9224 46.4977L20.919 46.3156L25.9157 46.1334L25.1306 24.5977L20.134 24.7799ZM20.919 46.3156L20.7369 41.3189L15.3405 41.5156L15.5226 46.5123L15.7048 51.509L21.1012 51.3122L20.919 46.3156ZM46.7127 15.7556L46.8948 20.7523L51.8915 20.5701L51.7094 15.5734L46.7127 15.7556ZM46.6143 13.0574L46.4322 8.06071L41.4355 8.24286L41.6176 13.2395L46.6143 13.0574ZM49.2626 12.9608L49.4447 17.9575L54.4414 17.7754L54.2592 12.7787L49.2626 12.9608ZM49.1642 10.2626L48.9821 5.26596L43.9854 5.44811L44.1675 10.4448L49.1642 10.2626ZM65.3534 9.67247L70.3501 9.49031L70.168 4.49363L65.1713 4.67578L65.3534 9.67247ZM65.4518 12.3707L60.4551 12.5528L60.6373 17.5495L65.634 17.3674L65.4518 12.3707ZM68.1001 12.2741L73.0967 12.092L72.9146 7.0953L67.9179 7.27745L68.1001 12.2741ZM68.1984 14.9723L63.2017 15.1545L63.3839 20.1512L68.3806 19.969L68.1984 14.9723ZM70.8966 14.874L75.8933 14.6918L75.7111 9.69515L70.7145 9.8773L70.8966 14.874ZM71.0933 20.2704L71.2755 25.2671L76.2722 25.0849L76.09 20.0882L71.0933 20.2704ZM65.6969 20.4671L60.7003 20.6493L60.8824 25.646L65.8791 25.4638L65.6969 20.4671ZM65.5986 17.7689L70.5952 17.5868L70.4131 12.5901L65.4164 12.7722L65.5986 17.7689ZM62.9503 17.8654L57.9536 18.0476L58.1358 23.0443L63.1325 22.8621L62.9503 17.8654ZM62.852 15.1672L67.8486 14.9851L67.6665 9.98841L62.6698 10.1706L62.852 15.1672ZM52.0591 15.5607L51.877 10.564L46.8803 10.7462L47.0625 15.7428L52.0591 15.5607ZM52.1575 18.2589L52.3397 23.2556L57.3363 23.0734L57.1542 18.0767L52.1575 18.2589ZM49.4593 18.3573L49.2771 13.3606L44.2805 13.5427L44.4626 18.5394L49.4593 18.3573ZM49.5558 21.0055L44.5591 21.1877L44.7413 26.1843L49.738 26.0022L49.5558 21.0055ZM52.254 20.9071L57.2507 20.725L57.0686 15.7283L52.0719 15.9105L52.254 20.9071ZM52.3524 23.6053L47.3557 23.7875L47.5379 28.7842L52.5346 28.602L52.3524 23.6053ZM65.8434 23.1135L70.8401 22.9314L70.658 17.9347L65.6613 18.1169L65.8434 23.1135ZM65.9418 25.8117L60.9451 25.9939L61.1273 30.9906L66.124 30.8084L65.9418 25.8117ZM68.59 25.7152L73.5867 25.5331L73.4046 20.5364L68.4079 20.7185L68.59 25.7152ZM68.6884 28.4134L63.6917 28.5956L63.8739 33.5922L68.8706 33.4101L68.6884 28.4134ZM71.3866 28.315L76.3833 28.1329L76.2011 23.1362L71.2045 23.3184L71.3866 28.315ZM71.7782 39.0579L71.9604 44.0546L76.9571 43.8724L76.7749 38.8758L71.7782 39.0579ZM69.08 39.1563L68.8979 34.1596L63.9012 34.3417L64.0834 39.3384L69.08 39.1563ZM69.1784 41.8545L69.3605 46.8512L74.3572 46.669L74.1751 41.6723L69.1784 41.8545ZM66.5302 41.951L66.348 36.9543L61.3513 37.1365L61.5335 42.1332L66.5302 41.951ZM66.6285 44.6492L66.8107 49.6459L71.8073 49.4638L71.6252 44.4671L66.6285 44.6492ZM50.4393 45.2394L45.4426 45.4216L45.6247 50.4182L50.6214 50.2361L50.4393 45.2394ZM50.3409 42.5412L55.3376 42.359L55.1554 37.3624L50.1588 37.5445L50.3409 42.5412ZM47.6927 42.6377L42.696 42.8199L42.8781 47.8166L47.8748 47.6344L47.6927 42.6377ZM47.5943 39.9395L52.591 39.7574L52.4088 34.7607L47.4122 34.9429L47.5943 39.9395ZM44.8961 40.0379L39.8994 40.22L40.0816 45.2167L45.0782 45.0346L44.8961 40.0379ZM44.7012 34.6914L44.519 29.6948L39.5224 29.8769L39.7045 34.8736L44.7012 34.6914ZM50.0476 34.4965L55.0443 34.3144L54.8622 29.3177L49.8655 29.4999L50.0476 34.4965ZM50.1442 37.1448L45.1475 37.3269L45.3297 42.3236L50.3263 42.1415L50.1442 37.1448ZM52.8424 37.0464L57.8391 36.8643L57.6569 31.8676L52.6602 32.0497L52.8424 37.0464ZM52.9408 39.7446L47.9441 39.9268L48.1262 44.9235L53.1229 44.7413L52.9408 39.7446ZM63.7336 39.3512L63.9157 44.3479L68.9124 44.1657L68.7303 39.169L63.7336 39.3512ZM63.6352 36.653L63.4531 31.6563L58.4564 31.8384L58.6385 36.8351L63.6352 36.653ZM66.3334 36.5546L66.5156 41.5513L71.5123 41.3691L71.3301 36.3725L66.3334 36.5546ZM66.1385 31.2082L71.1352 31.026L70.9531 26.0293L65.9564 26.2115L66.1385 31.2082ZM63.4903 31.3047L58.4936 31.4869L58.6758 36.4835L63.6724 36.3014L63.4903 31.3047ZM63.3919 28.6065L68.3886 28.4243L68.2064 23.4277L63.2098 23.6098L63.3919 28.6065ZM49.8509 29.1001L44.8542 29.2823L45.0364 34.279L50.0331 34.0968L49.8509 29.1001ZM49.7526 26.4019L54.7492 26.2198L54.5671 21.2231L49.5704 21.4052L49.7526 26.4019ZM47.1043 26.4985L42.1076 26.6806L42.2898 31.6773L47.2865 31.4951L47.1043 26.4985ZM47.006 23.8003L52.0026 23.6181L51.8205 18.6214L46.8238 18.8036L47.006 23.8003ZM44.3077 23.8986L39.3111 24.0808L39.4932 29.0774L44.4899 28.8953L44.3077 23.8986ZM44.0145 15.854L43.8323 10.8573L38.8356 11.0394L39.0178 16.0361L44.0145 15.854ZM46.7127 15.7556L51.7094 15.5734L51.611 12.8752L46.6143 13.0574L41.6176 13.2395L41.716 15.9377L46.7127 15.7556ZM46.6143 13.0574L46.7965 18.0541L49.4447 17.9575L49.2626 12.9608L49.0804 7.96417L46.4322 8.06071L46.6143 13.0574ZM49.2626 12.9608L54.2592 12.7787L54.1609 10.0805L49.1642 10.2626L44.1675 10.4448L44.2659 13.143L49.2626 12.9608ZM49.1642 10.2626L49.3464 15.2593L65.5356 14.6691L65.3534 9.67247L65.1713 4.67578L48.9821 5.26596L49.1642 10.2626ZM65.3534 9.67247L60.3568 9.85462L60.4551 12.5528L65.4518 12.3707L70.4485 12.1885L70.3501 9.49031L65.3534 9.67247ZM65.4518 12.3707L65.634 17.3674L68.2822 17.2708L68.1001 12.2741L67.9179 7.27745L65.2697 7.37399L65.4518 12.3707ZM68.1001 12.2741L63.1034 12.4563L63.2017 15.1545L68.1984 14.9723L73.1951 14.7902L73.0967 12.092L68.1001 12.2741ZM68.1984 14.9723L68.3806 19.969L71.0788 19.8707L70.8966 14.874L70.7145 9.8773L68.0163 9.97566L68.1984 14.9723ZM70.8966 14.874L65.8999 15.0561L66.0967 20.4525L71.0933 20.2704L76.09 20.0882L75.8933 14.6918L70.8966 14.874ZM71.0933 20.2704L70.9112 15.2737L65.5148 15.4704L65.6969 20.4671L65.8791 25.4638L71.2755 25.2671L71.0933 20.2704ZM65.6969 20.4671L70.6936 20.285L70.5952 17.5868L65.5986 17.7689L60.6019 17.9511L60.7003 20.6493L65.6969 20.4671ZM65.5986 17.7689L65.4164 12.7722L62.7682 12.8688L62.9503 17.8654L63.1325 22.8621L65.7807 22.7656L65.5986 17.7689ZM62.9503 17.8654L67.947 17.6833L67.8486 14.9851L62.852 15.1672L57.8553 15.3494L57.9536 18.0476L62.9503 17.8654ZM62.852 15.1672L62.6698 10.1706L51.877 10.564L52.0591 15.5607L52.2413 20.5574L63.0341 20.1639L62.852 15.1672ZM52.0591 15.5607L47.0625 15.7428L47.1608 18.4411L52.1575 18.2589L57.1542 18.0767L57.0558 15.3785L52.0591 15.5607ZM52.1575 18.2589L51.9753 13.2622L49.2771 13.3606L49.4593 18.3573L49.6414 23.3539L52.3397 23.2556L52.1575 18.2589ZM49.4593 18.3573L44.4626 18.5394L44.5591 21.1877L49.5558 21.0055L54.5525 20.8234L54.456 18.1751L49.4593 18.3573ZM49.5558 21.0055L49.738 26.0022L52.4362 25.9038L52.254 20.9071L52.0719 15.9105L49.3737 16.0088L49.5558 21.0055ZM52.254 20.9071L47.2574 21.0893L47.3557 23.7875L52.3524 23.6053L57.3491 23.4232L57.2507 20.725L52.254 20.9071ZM52.3524 23.6053L52.5346 28.602L66.0256 28.1102L65.8434 23.1135L65.6613 18.1169L52.1702 18.6087L52.3524 23.6053ZM65.8434 23.1135L60.8468 23.2957L60.9451 25.9939L65.9418 25.8117L70.9385 25.6296L70.8401 22.9314L65.8434 23.1135ZM65.9418 25.8117L66.124 30.8084L68.7722 30.7119L68.59 25.7152L68.4079 20.7185L65.7596 20.8151L65.9418 25.8117ZM68.59 25.7152L63.5934 25.8974L63.6917 28.5956L68.6884 28.4134L73.6851 28.2313L73.5867 25.5331L68.59 25.7152ZM68.6884 28.4134L68.8706 33.4101L71.5688 33.3117L71.3866 28.315L71.2045 23.3184L68.5063 23.4167L68.6884 28.4134ZM71.3866 28.315L66.3899 28.4972L66.7816 39.2401L71.7782 39.0579L76.7749 38.8758L76.3833 28.1329L71.3866 28.315ZM71.7782 39.0579L71.5961 34.0612L68.8979 34.1596L69.08 39.1563L69.2622 44.153L71.9604 44.0546L71.7782 39.0579ZM69.08 39.1563L64.0834 39.3384L64.1817 42.0366L69.1784 41.8545L74.1751 41.6723L74.0767 38.9741L69.08 39.1563ZM69.1784 41.8545L68.9962 36.8578L66.348 36.9543L66.5302 41.951L66.7123 46.9477L69.3605 46.8512L69.1784 41.8545ZM66.5302 41.951L61.5335 42.1332L61.6318 44.8314L66.6285 44.6492L71.6252 44.4671L71.5268 41.7689L66.5302 41.951ZM66.6285 44.6492L66.4464 39.6526L50.2571 40.2427L50.4393 45.2394L50.6214 50.2361L66.8107 49.6459L66.6285 44.6492ZM50.4393 45.2394L55.4359 45.0573L55.3376 42.359L50.3409 42.5412L45.3442 42.7233L45.4426 45.4216L50.4393 45.2394ZM50.3409 42.5412L50.1588 37.5445L47.5105 37.6411L47.6927 42.6377L47.8748 47.6344L50.5231 47.5379L50.3409 42.5412ZM47.6927 42.6377L52.6893 42.4556L52.591 39.7574L47.5943 39.9395L42.5976 40.1217L42.696 42.8199L47.6927 42.6377ZM47.5943 39.9395L47.4122 34.9429L44.7139 35.0412L44.8961 40.0379L45.0782 45.0346L47.7765 44.9362L47.5943 39.9395ZM44.8961 40.0379L49.8928 39.8557L49.6979 34.5093L44.7012 34.6914L39.7045 34.8736L39.8994 40.22L44.8961 40.0379ZM44.7012 34.6914L44.8833 39.6881L50.2298 39.4932L50.0476 34.4965L49.8655 29.4999L44.519 29.6948L44.7012 34.6914ZM50.0476 34.4965L45.051 34.6787L45.1475 37.3269L50.1442 37.1448L55.1409 36.9626L55.0443 34.3144L50.0476 34.4965ZM50.1442 37.1448L50.3263 42.1415L53.0245 42.0431L52.8424 37.0464L52.6602 32.0497L49.962 32.1481L50.1442 37.1448ZM52.8424 37.0464L47.8457 37.2286L47.9441 39.9268L52.9408 39.7446L57.9374 39.5625L57.8391 36.8643L52.8424 37.0464ZM52.9408 39.7446L53.1229 44.7413L63.9157 44.3479L63.7336 39.3512L63.5514 34.3545L52.7586 34.7479L52.9408 39.7446ZM63.7336 39.3512L68.7303 39.169L68.6319 36.4708L63.6352 36.653L58.6385 36.8351L58.7369 39.5333L63.7336 39.3512ZM63.6352 36.653L63.8174 41.6497L66.5156 41.5513L66.3334 36.5546L66.1513 31.5579L63.4531 31.6563L63.6352 36.653ZM66.3334 36.5546L71.3301 36.3725L71.1352 31.026L66.1385 31.2082L61.1418 31.3903L61.3367 36.7368L66.3334 36.5546ZM66.1385 31.2082L65.9564 26.2115L63.3081 26.308L63.4903 31.3047L63.6724 36.3014L66.3207 36.2048L66.1385 31.2082ZM63.4903 31.3047L68.487 31.1225L68.3886 28.4243L63.3919 28.6065L58.3952 28.7886L58.4936 31.4869L63.4903 31.3047ZM63.3919 28.6065L63.2098 23.6098L49.6688 24.1034L49.8509 29.1001L50.0331 34.0968L63.5741 33.6032L63.3919 28.6065ZM49.8509 29.1001L54.8476 28.918L54.7492 26.2198L49.7526 26.4019L44.7559 26.5841L44.8542 29.2823L49.8509 29.1001ZM49.7526 26.4019L49.5704 21.4052L46.9222 21.5018L47.1043 26.4985L47.2865 31.4951L49.9347 31.3986L49.7526 26.4019ZM47.1043 26.4985L52.101 26.3163L52.0026 23.6181L47.006 23.8003L42.0093 23.9824L42.1076 26.6806L47.1043 26.4985ZM47.006 23.8003L46.8238 18.8036L44.1256 18.9019L44.3077 23.8986L44.4899 28.8953L47.1881 28.7969L47.006 23.8003ZM44.3077 23.8986L49.3044 23.7165L49.0112 15.6718L44.0145 15.854L39.0178 16.0361L39.3111 24.0808L44.3077 23.8986ZM44.0145 15.854L44.1966 20.8506L46.8948 20.7523L46.7127 15.7556L46.5305 10.7589L43.8323 10.8573L44.0145 15.854ZM78.9811 14.5793L78.7989 9.58258L73.8023 9.76473L73.9844 14.7614L78.9811 14.5793ZM79.3727 25.3221L74.376 25.5043L74.5582 30.501L79.5549 30.3188L79.3727 25.3221ZM90.1156 24.9305L90.2977 29.9272L95.2944 29.745L95.1123 24.7483L90.1156 24.9305ZM90.0172 22.2323L89.8351 17.2356L84.8384 17.4178L85.0205 22.4144L90.0172 22.2323ZM92.7154 22.1339L92.8976 27.1306L97.8943 26.9485L97.7121 21.9518L92.7154 22.1339ZM92.5205 16.7875L97.5172 16.6053L97.3351 11.6086L92.3384 11.7908L92.5205 16.7875ZM89.8223 16.8858L84.8256 17.068L85.0078 22.0647L90.0045 21.8825L89.8223 16.8858ZM89.724 14.1876L94.7206 14.0055L94.5385 9.0088L89.5418 9.19095L89.724 14.1876ZM74.663 44.3563L69.6663 44.5385L69.8485 49.5352L74.8452 49.353L74.663 44.3563ZM73.388 9.37957L73.2058 4.38289L68.2091 4.56504L68.3913 9.56172L73.388 9.37957ZM92.2254 8.69286L97.2221 8.5107L97.04 3.51402L92.0433 3.69618L92.2254 8.69286ZM92.3238 11.3911L87.3271 11.5732L87.5093 16.5699L92.506 16.3877L92.3238 11.3911ZM95.022 11.2927L100.019 11.1106L99.8365 6.11387L94.8399 6.29602L95.022 11.2927ZM95.1204 13.9909L90.1237 14.1731L90.3058 19.1697L95.3025 18.9876L95.1204 13.9909ZM97.8186 13.8925L102.815 13.7104L102.633 8.71372L97.6364 8.89587L97.8186 13.8925ZM98.2102 24.6354L98.3924 29.6321L103.389 29.4499L103.207 24.4533L98.2102 24.6354ZM95.512 24.7338L95.3298 19.7371L90.3332 19.9192L90.5153 24.9159L95.512 24.7338ZM95.6104 27.432L95.7925 32.4287L100.789 32.2465L100.607 27.2498L95.6104 27.432ZM92.9122 27.5303L92.73 22.5337L87.7333 22.7158L87.9155 27.7125L92.9122 27.5303ZM93.0105 30.2286L93.1927 35.2252L98.1893 35.0431L98.0072 30.0464L93.0105 30.2286ZM79.5694 30.7185L79.3873 25.7219L74.3906 25.904L74.5728 30.9007L79.5694 30.7185ZM80.0594 44.1596L80.2416 49.1563L85.2383 48.9741L85.0561 43.9775L80.0594 44.1596ZM78.9811 14.5793L73.9844 14.7614L74.376 25.5043L79.3727 25.3221L84.3694 25.14L83.9778 14.3971L78.9811 14.5793ZM79.3727 25.3221L79.5549 30.3188L90.2977 29.9272L90.1156 24.9305L89.9334 19.9338L79.1906 20.3254L79.3727 25.3221ZM90.1156 24.9305L95.1123 24.7483L95.0139 22.0501L90.0172 22.2323L85.0205 22.4144L85.1189 25.1127L90.1156 24.9305ZM90.0172 22.2323L90.1994 27.229L92.8976 27.1306L92.7154 22.1339L92.5333 17.1372L89.8351 17.2356L90.0172 22.2323ZM92.7154 22.1339L97.7121 21.9518L97.5172 16.6053L92.5205 16.7875L87.5238 16.9696L87.7187 22.3161L92.7154 22.1339ZM92.5205 16.7875L92.3384 11.7908L89.6402 11.8892L89.8223 16.8858L90.0045 21.8825L92.7027 21.7842L92.5205 16.7875ZM89.8223 16.8858L94.819 16.7037L94.7206 14.0055L89.724 14.1876L84.7273 14.3698L84.8256 17.068L89.8223 16.8858ZM89.724 14.1876L89.5418 9.19095L78.7989 9.58258L78.9811 14.5793L79.1632 19.5759L89.9061 19.1843L89.724 14.1876ZM74.663 44.3563L79.6597 44.1742L78.3846 9.19742L73.388 9.37957L68.3913 9.56172L69.6663 44.5385L74.663 44.3563ZM73.388 9.37957L73.5701 14.3763L92.4076 13.6895L92.2254 8.69286L92.0433 3.69618L73.2058 4.38289L73.388 9.37957ZM92.2254 8.69286L87.2288 8.87501L87.3271 11.5732L92.3238 11.3911L97.3205 11.2089L97.2221 8.5107L92.2254 8.69286ZM92.3238 11.3911L92.506 16.3877L95.2042 16.2894L95.022 11.2927L94.8399 6.29602L92.1416 6.39438L92.3238 11.3911ZM95.022 11.2927L90.0253 11.4749L90.1237 14.1731L95.1204 13.9909L100.117 13.8088L100.019 11.1106L95.022 11.2927ZM95.1204 13.9909L95.3025 18.9876L98.0007 18.8892L97.8186 13.8925L97.6364 8.89587L94.9382 8.99423L95.1204 13.9909ZM97.8186 13.8925L92.8219 14.0747L93.2135 24.8176L98.2102 24.6354L103.207 24.4533L102.815 13.7104L97.8186 13.8925ZM98.2102 24.6354L98.0281 19.6387L95.3298 19.7371L95.512 24.7338L95.6942 29.7305L98.3924 29.6321L98.2102 24.6354ZM95.512 24.7338L90.5153 24.9159L90.6137 27.6141L95.6104 27.432L100.607 27.2498L100.509 24.5516L95.512 24.7338ZM95.6104 27.432L95.4282 22.4353L92.73 22.5337L92.9122 27.5303L93.0943 32.527L95.7925 32.4287L95.6104 27.432ZM92.9122 27.5303L87.9155 27.7125L88.0138 30.4107L93.0105 30.2286L98.0072 30.0464L97.9088 27.3482L92.9122 27.5303ZM93.0105 30.2286L92.8284 25.2319L79.3873 25.7219L79.5694 30.7185L79.7516 35.7152L93.1927 35.2252L93.0105 30.2286ZM79.5694 30.7185L74.5728 30.9007L75.0628 44.3418L80.0594 44.1596L85.0561 43.9775L84.5661 30.5364L79.5694 30.7185ZM80.0594 44.1596L79.8773 39.1629L74.4809 39.3597L74.663 44.3563L74.8452 49.353L80.2416 49.1563L80.0594 44.1596ZM101.598 43.3744L96.6016 43.5566L96.7837 48.5533L101.78 48.3711L101.598 43.3744ZM100.323 8.39766L100.141 3.40098L95.1444 3.58313L95.3265 8.57981L100.323 8.39766ZM105.72 8.20093L110.716 8.01878L110.534 3.0221L105.537 3.20425L105.72 8.20093ZM106.995 43.1777L107.177 48.1744L112.173 47.9922L111.991 42.9955L106.995 43.1777ZM101.598 43.3744L106.595 43.1923L105.32 8.2155L100.323 8.39766L95.3265 8.57981L96.6016 43.5566L101.598 43.3744ZM100.323 8.39766L100.505 13.3943L105.902 13.1976L105.72 8.20093L105.537 3.20425L100.141 3.40098L100.323 8.39766ZM105.72 8.20093L100.723 8.38308L101.998 43.3599L106.995 43.1777L111.991 42.9955L110.716 8.01878L105.72 8.20093ZM106.995 43.1777L106.813 38.181L101.416 38.3777L101.598 43.3744L101.78 48.3711L107.177 48.1744L106.995 43.1777ZM114.016 13.3021L113.834 8.30538L108.838 8.48753L109.02 13.4842L114.016 13.3021ZM114.408 24.0449L109.411 24.2271L109.594 29.2238L114.59 29.0416L114.408 24.0449ZM127.799 23.5568L127.981 28.5534L132.978 28.3713L132.796 23.3746L127.799 23.5568ZM127.701 20.8585L127.519 15.8619L122.522 16.044L122.704 21.0407L127.701 20.8585ZM130.399 20.7602L130.581 25.7569L135.578 25.5747L135.396 20.578L130.399 20.7602ZM130.204 15.4137L135.201 15.2316L135.019 10.2349L130.022 10.4171L130.204 15.4137ZM127.506 15.5121L122.509 15.6943L122.691 20.6909L127.688 20.5088L127.506 15.5121ZM127.408 12.8139L132.404 12.6317L132.222 7.63506L127.225 7.81721L127.408 12.8139ZM109.698 43.0791L104.702 43.2613L104.884 48.258L109.88 48.0758L109.698 43.0791ZM108.423 8.10237L108.241 3.10569L103.244 3.28784L103.427 8.28452L108.423 8.10237ZM129.909 7.31912L134.906 7.13696L134.724 2.14028L129.727 2.32243L129.909 7.31912ZM130.007 10.0173L125.011 10.1995L125.193 15.1962L130.19 15.014L130.007 10.0173ZM132.706 9.91896L137.702 9.73681L137.52 4.74013L132.523 4.92228L132.706 9.91896ZM132.804 12.6172L127.807 12.7993L127.989 17.796L132.986 17.6139L132.804 12.6172ZM135.502 12.5188L140.499 12.3367L140.317 7.33998L135.32 7.52213L135.502 12.5188ZM135.894 23.2617L136.076 28.2584L141.073 28.0762L140.89 23.0795L135.894 23.2617ZM133.196 23.36L133.013 18.3634L128.017 18.5455L128.199 23.5422L133.196 23.36ZM133.294 26.0582L133.476 31.0549L138.473 30.8728L138.291 25.8761L133.294 26.0582ZM130.596 26.1566L130.414 21.1599L125.417 21.3421L125.599 26.3388L130.596 26.1566ZM130.694 28.8548L125.697 29.037L125.88 34.0336L130.876 33.8515L130.694 28.8548ZM133.392 28.7564L138.389 28.5743L138.207 23.5776L133.21 23.7598L133.392 28.7564ZM133.491 31.4547L128.494 31.6368L128.676 36.6335L133.673 36.4513L133.491 31.4547ZM136.189 31.3563L141.186 31.1741L141.003 26.1775L136.007 26.3596L136.189 31.3563ZM136.58 42.0992L136.763 47.0958L141.759 46.9137L141.577 41.917L136.58 42.0992ZM131.184 42.2959L126.187 42.478L126.37 47.4747L131.366 47.2926L131.184 42.2959ZM130.889 34.2013L135.886 34.0191L135.704 29.0224L130.707 29.2046L130.889 34.2013ZM128.191 34.2996L123.194 34.4818L123.376 39.4785L128.373 39.2963L128.191 34.2996ZM128.094 31.6514L133.091 31.4692L132.909 26.4725L127.912 26.6547L128.094 31.6514ZM125.396 31.7497L120.399 31.9319L120.581 36.9286L125.578 36.7464L125.396 31.7497ZM125.298 29.0515L130.294 28.8694L130.112 23.8727L125.116 24.0549L125.298 29.0515ZM114.605 29.4413L114.423 24.4447L109.426 24.6268L109.608 29.6235L114.605 29.4413ZM115.095 42.8824L115.277 47.8791L120.274 47.6969L120.091 42.7003L115.095 42.8824ZM114.016 13.3021L109.02 13.4842L109.411 24.2271L114.408 24.0449L119.405 23.8628L119.013 13.1199L114.016 13.3021ZM114.408 24.0449L114.59 29.0416L127.981 28.5534L127.799 23.5568L127.617 18.5601L114.226 19.0482L114.408 24.0449ZM127.799 23.5568L132.796 23.3746L132.697 20.6764L127.701 20.8585L122.704 21.0407L122.802 23.7389L127.799 23.5568ZM127.701 20.8585L127.883 25.8552L130.581 25.7569L130.399 20.7602L130.217 15.7635L127.519 15.8619L127.701 20.8585ZM130.399 20.7602L135.396 20.578L135.201 15.2316L130.204 15.4137L125.207 15.5959L125.402 20.9423L130.399 20.7602ZM130.204 15.4137L130.022 10.4171L127.324 10.5154L127.506 15.5121L127.688 20.5088L130.386 20.4104L130.204 15.4137ZM127.506 15.5121L132.503 15.3299L132.404 12.6317L127.408 12.8139L122.411 12.996L122.509 15.6943L127.506 15.5121ZM127.408 12.8139L127.225 7.81721L113.834 8.30538L114.016 13.3021L114.199 18.2987L127.59 17.8106L127.408 12.8139ZM109.698 43.0791L114.695 42.897L113.42 7.92022L108.423 8.10237L103.427 8.28452L104.702 43.2613L109.698 43.0791ZM108.423 8.10237L108.605 13.0991L130.091 12.3158L129.909 7.31912L129.727 2.32243L108.241 3.10569L108.423 8.10237ZM129.909 7.31912L124.912 7.50127L125.011 10.1995L130.007 10.0173L135.004 9.83517L134.906 7.13696L129.909 7.31912ZM130.007 10.0173L130.19 15.014L132.888 14.9156L132.706 9.91896L132.523 4.92228L129.825 5.02064L130.007 10.0173ZM132.706 9.91896L127.709 10.1011L127.807 12.7993L132.804 12.6172L137.801 12.435L137.702 9.73681L132.706 9.91896ZM132.804 12.6172L132.986 17.6139L135.684 17.5155L135.502 12.5188L135.32 7.52213L132.622 7.62049L132.804 12.6172ZM135.502 12.5188L130.505 12.701L130.897 23.4438L135.894 23.2617L140.89 23.0795L140.499 12.3367L135.502 12.5188ZM135.894 23.2617L135.712 18.265L133.013 18.3634L133.196 23.36L133.378 28.3567L136.076 28.2584L135.894 23.2617ZM133.196 23.36L128.199 23.5422L128.297 26.2404L133.294 26.0582L138.291 25.8761L138.192 23.1779L133.196 23.36ZM133.294 26.0582L133.112 21.0616L130.414 21.1599L130.596 26.1566L130.778 31.1533L133.476 31.0549L133.294 26.0582ZM130.596 26.1566L125.599 26.3388L125.697 29.037L130.694 28.8548L135.691 28.6727L135.592 25.9744L130.596 26.1566ZM130.694 28.8548L130.876 33.8515L133.574 33.7531L133.392 28.7564L133.21 23.7598L130.512 23.8581L130.694 28.8548ZM133.392 28.7564L128.396 28.9386L128.494 31.6368L133.491 31.4547L138.487 31.2725L138.389 28.5743L133.392 28.7564ZM133.491 31.4547L133.673 36.4513L136.371 36.353L136.189 31.3563L136.007 26.3596L133.308 26.458L133.491 31.4547ZM136.189 31.3563L131.192 31.5384L131.584 42.2813L136.58 42.0992L141.577 41.917L141.186 31.1741L136.189 31.3563ZM136.58 42.0992L136.398 37.1025L131.002 37.2992L131.184 42.2959L131.366 47.2926L136.763 47.0958L136.58 42.0992ZM131.184 42.2959L136.181 42.1137L135.886 34.0191L130.889 34.2013L125.892 34.3834L126.187 42.478L131.184 42.2959ZM130.889 34.2013L130.707 29.2046L128.009 29.3029L128.191 34.2996L128.373 39.2963L131.071 39.1979L130.889 34.2013ZM128.191 34.2996L133.187 34.1175L133.091 31.4692L128.094 31.6514L123.098 31.8335L123.194 34.4818L128.191 34.2996ZM128.094 31.6514L127.912 26.6547L125.214 26.7531L125.396 31.7497L125.578 36.7464L128.276 36.6481L128.094 31.6514ZM125.396 31.7497L130.393 31.5676L130.294 28.8694L125.298 29.0515L120.301 29.2337L120.399 31.9319L125.396 31.7497ZM125.298 29.0515L125.116 24.0549L114.423 24.4447L114.605 29.4413L114.787 34.438L125.48 34.0482L125.298 29.0515ZM114.605 29.4413L109.608 29.6235L110.098 43.0646L115.095 42.8824L120.091 42.7003L119.601 29.2592L114.605 29.4413ZM115.095 42.8824L114.913 37.8857L109.516 38.0825L109.698 43.0791L109.88 48.0758L115.277 47.8791L115.095 42.8824ZM139.269 42.0012L134.272 42.1833L134.454 47.18L139.451 46.9978L139.269 42.0012ZM137.993 7.0244L137.811 2.02772L132.815 2.20987L132.997 7.20655L137.993 7.0244ZM162.227 6.14096L167.224 5.95881L167.042 0.962128L162.045 1.14428L162.227 6.14096ZM162.424 11.5374L162.606 16.5341L167.603 16.3519L167.421 11.3552L162.424 11.5374ZM143.587 12.2241L143.404 7.22741L138.408 7.40956L138.59 12.4062L143.587 12.2241ZM143.88 20.2687L138.883 20.4509L139.065 25.4476L144.062 25.2654L143.88 20.2687ZM160.019 19.6804L165.016 19.4982L164.834 14.5016L159.837 14.6837L160.019 19.6804ZM160.216 25.0768L160.398 30.0735L165.395 29.8913L165.213 24.8947L160.216 25.0768ZM144.077 25.6652L143.894 20.6685L138.898 20.8506L139.08 25.8473L144.077 25.6652ZM144.468 36.408L139.472 36.5902L139.654 41.5869L144.65 41.4047L144.468 36.408ZM163.306 35.7213L168.302 35.5392L168.12 30.5425L163.124 30.7246L163.306 35.7213ZM163.502 41.1177L163.685 46.1144L168.681 45.9323L168.499 40.9356L163.502 41.1177ZM139.269 42.0012L144.265 41.819L142.99 6.84225L137.993 7.0244L132.997 7.20655L134.272 42.1833L139.269 42.0012ZM137.993 7.0244L138.176 12.0211L162.41 11.1376L162.227 6.14096L162.045 1.14428L137.811 2.02772L137.993 7.0244ZM162.227 6.14096L157.231 6.32311L157.427 11.7195L162.424 11.5374L167.421 11.3552L167.224 5.95881L162.227 6.14096ZM162.424 11.5374L162.242 6.5407L143.404 7.22741L143.587 12.2241L143.769 17.2208L162.606 16.5341L162.424 11.5374ZM143.587 12.2241L138.59 12.4062L138.883 20.4509L143.88 20.2687L148.877 20.0866L148.583 12.0419L143.587 12.2241ZM143.88 20.2687L144.062 25.2654L160.201 24.6771L160.019 19.6804L159.837 14.6837L143.698 15.2721L143.88 20.2687ZM160.019 19.6804L155.022 19.8625L155.219 25.259L160.216 25.0768L165.213 24.8947L165.016 19.4982L160.019 19.6804ZM160.216 25.0768L160.034 20.0801L143.894 20.6685L144.077 25.6652L144.259 30.6618L160.398 30.0735L160.216 25.0768ZM144.077 25.6652L139.08 25.8473L139.472 36.5902L144.468 36.408L149.465 36.2259L149.073 25.483L144.077 25.6652ZM144.468 36.408L144.65 41.4047L163.488 40.718L163.306 35.7213L163.124 30.7246L144.286 31.4113L144.468 36.408ZM163.306 35.7213L158.309 35.9035L158.506 41.2999L163.502 41.1177L168.499 40.9356L168.302 35.5392L163.306 35.7213ZM163.502 41.1177L163.32 36.121L139.086 37.0045L139.269 42.0012L139.451 46.9978L163.685 46.1144L163.502 41.1177Z" fill="black" mask="url(#path-1-outside-1_264_593)"/>
<mask id="path-3-outside-2_264_593" maskUnits="userSpaceOnUse" x="1.72726" y="3.90656" width="168.529" height="51.054" fill="black">
<rect fill="white" x="1.72726" y="3.90656" width="168.529" height="51.054"/>
<path d="M8.53093 49.769L7.25587 14.7922L12.6523 14.5955L13.9273 49.5723L8.53093 49.769ZM16.631 49.4737L15.356 14.4969L20.7524 14.3002L20.8507 16.9984L23.499 16.9019L23.6957 22.2983L26.3939 22.1999L26.4904 24.8482L29.1887 24.7498L29.3854 30.1462L32.0836 30.0479L32.1819 32.7461L34.8802 32.6477L35.0769 38.0441L37.7751 37.9458L37.6767 35.2476L37.6268 35.2494L36.8417 13.7137L42.2381 13.517L43.5132 48.4937L38.1167 48.6905L38.0184 45.9922L35.3701 46.0888L35.2718 43.3906L32.5736 43.4889L32.477 40.8407L29.7788 40.9391L29.5821 35.5426L26.8839 35.641L26.7855 32.9428L24.0873 33.0412L23.8906 27.6447L21.2424 27.7413L22.0274 49.277L16.631 49.4737ZM47.8211 18.717L47.7227 16.0188L50.371 15.9223L50.2726 13.2241L66.4618 12.6339L66.5602 15.3321L69.2085 15.2356L69.3068 17.9338L72.005 17.8354L72.2017 23.2318L66.8053 23.4285L66.707 20.7303L64.0587 20.8269L63.9604 18.1287L53.1675 18.5221L53.2659 21.2203L50.5677 21.3187L50.6642 23.9669L53.3624 23.8686L53.4608 26.5668L66.9518 26.075L67.0502 28.7732L69.6984 28.6766L69.7968 31.3748L72.495 31.2765L72.8866 42.0193L70.1884 42.1177L70.2868 44.8159L67.6386 44.9124L67.7369 47.6107L51.5477 48.2008L51.4493 45.5026L48.8011 45.5992L48.7027 42.901L46.0045 42.9993L45.8096 37.6529L51.156 37.458L51.2526 40.1062L53.9508 40.0078L54.0492 42.7061L64.842 42.3126L64.7436 39.6144L67.4418 39.516L67.2469 34.1696L64.5987 34.2661L64.5003 31.5679L50.9593 32.0616L50.861 29.3633L48.2127 29.4599L48.1143 26.7617L45.4161 26.86L45.1229 18.8154L47.8211 18.717ZM80.0895 17.5407L80.4811 28.2836L91.224 27.8919L91.1256 25.1937L93.8238 25.0954L93.6289 19.7489L90.9307 19.8473L90.8324 17.1491L80.0895 17.5407ZM75.7714 47.3178L74.4964 12.341L93.3338 11.6543L93.4322 14.3525L96.1304 14.2541L96.2288 16.9523L98.927 16.854L99.3186 27.5968L96.6204 27.6952L96.7188 30.3934L94.0206 30.4918L94.1189 33.19L80.6778 33.68L81.1678 47.121L75.7714 47.3178ZM102.707 46.3358L101.432 11.3591L106.828 11.1624L108.103 46.1391L102.707 46.3358ZM115.125 16.2635L115.516 27.0064L128.908 26.5182L128.809 23.82L131.507 23.7216L131.312 18.3752L128.614 18.4735L128.516 15.7753L115.125 16.2635ZM110.807 46.0406L109.532 11.0638L131.017 10.2805L131.116 12.9787L133.814 12.8804L133.912 15.5786L136.611 15.4802L137.002 26.2231L134.304 26.3215L134.402 29.0197L131.704 29.118L131.802 31.8162L134.501 31.7179L134.599 34.4161L137.297 34.3177L137.689 45.0606L132.292 45.2573L131.997 37.1627L129.299 37.261L129.203 34.6128L126.504 34.7112L126.406 32.013L115.713 32.4028L116.203 45.8438L110.807 46.0406ZM140.377 44.9626L139.102 9.98582L163.336 9.10239L163.532 14.4988L144.695 15.1855L144.988 23.2302L161.128 22.6418L161.324 28.0382L145.185 28.6266L145.577 39.3695L164.414 38.6827L164.611 44.0792L140.377 44.9626Z"/>
</mask>
<path d="M8.53093 49.769L7.25587 14.7922L12.6523 14.5955L13.9273 49.5723L8.53093 49.769ZM16.631 49.4737L15.356 14.4969L20.7524 14.3002L20.8507 16.9984L23.499 16.9019L23.6957 22.2983L26.3939 22.1999L26.4904 24.8482L29.1887 24.7498L29.3854 30.1462L32.0836 30.0479L32.1819 32.7461L34.8802 32.6477L35.0769 38.0441L37.7751 37.9458L37.6767 35.2476L37.6268 35.2494L36.8417 13.7137L42.2381 13.517L43.5132 48.4937L38.1167 48.6905L38.0184 45.9922L35.3701 46.0888L35.2718 43.3906L32.5736 43.4889L32.477 40.8407L29.7788 40.9391L29.5821 35.5426L26.8839 35.641L26.7855 32.9428L24.0873 33.0412L23.8906 27.6447L21.2424 27.7413L22.0274 49.277L16.631 49.4737ZM47.8211 18.717L47.7227 16.0188L50.371 15.9223L50.2726 13.2241L66.4618 12.6339L66.5602 15.3321L69.2085 15.2356L69.3068 17.9338L72.005 17.8354L72.2017 23.2318L66.8053 23.4285L66.707 20.7303L64.0587 20.8269L63.9604 18.1287L53.1675 18.5221L53.2659 21.2203L50.5677 21.3187L50.6642 23.9669L53.3624 23.8686L53.4608 26.5668L66.9518 26.075L67.0502 28.7732L69.6984 28.6766L69.7968 31.3748L72.495 31.2765L72.8866 42.0193L70.1884 42.1177L70.2868 44.8159L67.6386 44.9124L67.7369 47.6107L51.5477 48.2008L51.4493 45.5026L48.8011 45.5992L48.7027 42.901L46.0045 42.9993L45.8096 37.6529L51.156 37.458L51.2526 40.1062L53.9508 40.0078L54.0492 42.7061L64.842 42.3126L64.7436 39.6144L67.4418 39.516L67.2469 34.1696L64.5987 34.2661L64.5003 31.5679L50.9593 32.0616L50.861 29.3633L48.2127 29.4599L48.1143 26.7617L45.4161 26.86L45.1229 18.8154L47.8211 18.717ZM80.0895 17.5407L80.4811 28.2836L91.224 27.8919L91.1256 25.1937L93.8238 25.0954L93.6289 19.7489L90.9307 19.8473L90.8324 17.1491L80.0895 17.5407ZM75.7714 47.3178L74.4964 12.341L93.3338 11.6543L93.4322 14.3525L96.1304 14.2541L96.2288 16.9523L98.927 16.854L99.3186 27.5968L96.6204 27.6952L96.7188 30.3934L94.0206 30.4918L94.1189 33.19L80.6778 33.68L81.1678 47.121L75.7714 47.3178ZM102.707 46.3358L101.432 11.3591L106.828 11.1624L108.103 46.1391L102.707 46.3358ZM115.125 16.2635L115.516 27.0064L128.908 26.5182L128.809 23.82L131.507 23.7216L131.312 18.3752L128.614 18.4735L128.516 15.7753L115.125 16.2635ZM110.807 46.0406L109.532 11.0638L131.017 10.2805L131.116 12.9787L133.814 12.8804L133.912 15.5786L136.611 15.4802L137.002 26.2231L134.304 26.3215L134.402 29.0197L131.704 29.118L131.802 31.8162L134.501 31.7179L134.599 34.4161L137.297 34.3177L137.689 45.0606L132.292 45.2573L131.997 37.1627L129.299 37.261L129.203 34.6128L126.504 34.7112L126.406 32.013L115.713 32.4028L116.203 45.8438L110.807 46.0406ZM140.377 44.9626L139.102 9.98582L163.336 9.10239L163.532 14.4988L144.695 15.1855L144.988 23.2302L161.128 22.6418L161.324 28.0382L145.185 28.6266L145.577 39.3695L164.414 38.6827L164.611 44.0792L140.377 44.9626Z" fill="white"/>
<path d="M8.53093 49.769L3.53425 49.9511L3.7164 54.9478L8.71308 54.7657L8.53093 49.769ZM7.25587 14.7922L7.07371 9.79554L2.07703 9.9777L2.25918 14.9744L7.25587 14.7922ZM12.6523 14.5955L17.649 14.4133L17.4668 9.41667L12.4701 9.59882L12.6523 14.5955ZM13.9273 49.5723L14.1095 54.5689L19.1062 54.3868L18.924 49.3901L13.9273 49.5723ZM8.53093 49.769L13.5276 49.5868L12.2525 14.6101L7.25587 14.7922L2.25918 14.9744L3.53425 49.9511L8.53093 49.769ZM7.25587 14.7922L7.43802 19.7889L12.8344 19.5922L12.6523 14.5955L12.4701 9.59882L7.07371 9.79554L7.25587 14.7922ZM12.6523 14.5955L7.6556 14.7777L8.93067 49.7544L13.9273 49.5723L18.924 49.3901L17.649 14.4133L12.6523 14.5955ZM13.9273 49.5723L13.7452 44.5756L8.34878 44.7723L8.53093 49.769L8.71308 54.7657L14.1095 54.5689L13.9273 49.5723ZM16.631 49.4737L11.6343 49.6559L11.8165 54.6525L16.8132 54.4704L16.631 49.4737ZM15.356 14.4969L15.1738 9.50026L10.1771 9.68241L10.3593 14.6791L15.356 14.4969ZM20.7524 14.3002L25.749 14.1181L25.5669 9.12138L20.5702 9.30353L20.7524 14.3002ZM20.8507 16.9984L15.854 17.1806L16.0362 22.1773L21.0329 21.9951L20.8507 16.9984ZM23.499 16.9019L28.4957 16.7197L28.3135 11.723L23.3168 11.9052L23.499 16.9019ZM23.6957 22.2983L18.699 22.4804L18.8812 27.4771L23.8778 27.295L23.6957 22.2983ZM26.3939 22.1999L31.3906 22.0178L31.2084 17.0211L26.2118 17.2033L26.3939 22.1999ZM26.4904 24.8482L21.4938 25.0303L21.6759 30.027L26.6726 29.8449L26.4904 24.8482ZM29.1887 24.7498L34.1853 24.5677L34.0032 19.571L29.0065 19.7531L29.1887 24.7498ZM29.3854 30.1462L24.3887 30.3284L24.5708 35.3251L29.5675 35.1429L29.3854 30.1462ZM32.0836 30.0479L37.0803 29.8657L36.8981 24.869L31.9014 25.0512L32.0836 30.0479ZM32.1819 32.7461L27.1853 32.9282L27.3674 37.9249L32.3641 37.7428L32.1819 32.7461ZM34.8802 32.6477L39.8768 32.4656L39.6947 27.4689L34.698 27.651L34.8802 32.6477ZM35.0769 38.0441L30.0802 38.2263L30.2623 43.223L35.259 43.0408L35.0769 38.0441ZM37.7751 37.9458L37.9572 42.9424L42.9539 42.7603L42.7718 37.7636L37.7751 37.9458ZM37.6767 35.2476L42.6734 35.0654L42.4913 30.0687L37.4946 30.2509L37.6767 35.2476ZM37.6268 35.2494L32.6301 35.4315L32.8122 40.4282L37.8089 40.2461L37.6268 35.2494ZM36.8417 13.7137L36.6595 8.717L31.6628 8.89915L31.845 13.8958L36.8417 13.7137ZM42.2381 13.517L47.2348 13.3348L47.0526 8.33813L42.0559 8.52028L42.2381 13.517ZM43.5132 48.4937L43.6953 53.4904L48.692 53.3083L48.5098 48.3116L43.5132 48.4937ZM38.1167 48.6905L33.1201 48.8726L33.3022 53.8693L38.2989 53.6871L38.1167 48.6905ZM38.0184 45.9922L43.0151 45.8101L42.8329 40.8134L37.8362 40.9956L38.0184 45.9922ZM35.3701 46.0888L30.3735 46.2709L30.5556 51.2676L35.5523 51.0855L35.3701 46.0888ZM35.2718 43.3906L40.2685 43.2084L40.0863 38.2117L35.0896 38.3939L35.2718 43.3906ZM32.5736 43.4889L27.5769 43.6711L27.759 48.6678L32.7557 48.4856L32.5736 43.4889ZM32.477 40.8407L37.4737 40.6585L37.2916 35.6619L32.2949 35.844L32.477 40.8407ZM29.7788 40.9391L24.7821 41.1212L24.9643 46.1179L29.961 45.9357L29.7788 40.9391ZM29.5821 35.5426L34.5788 35.3605L34.3966 30.3638L29.3999 30.546L29.5821 35.5426ZM26.8839 35.641L21.8872 35.8232L22.0694 40.8198L27.066 40.6377L26.8839 35.641ZM26.7855 32.9428L31.7822 32.7606L31.6001 27.764L26.6034 27.9461L26.7855 32.9428ZM24.0873 33.0412L19.0906 33.2233L19.2728 38.22L24.2695 38.0378L24.0873 33.0412ZM23.8906 27.6447L28.8873 27.4626L28.7051 22.4659L23.7084 22.6481L23.8906 27.6447ZM21.2424 27.7413L21.0602 22.7446L16.0635 22.9268L16.2457 27.9234L21.2424 27.7413ZM22.0274 49.277L22.2096 54.2737L27.2063 54.0915L27.0241 49.0948L22.0274 49.277ZM16.631 49.4737L21.6277 49.2916L20.3526 14.3148L15.356 14.4969L10.3593 14.6791L11.6343 49.6559L16.631 49.4737ZM15.356 14.4969L15.5381 19.4936L20.9345 19.2969L20.7524 14.3002L20.5702 9.30353L15.1738 9.50026L15.356 14.4969ZM20.7524 14.3002L15.7557 14.4824L15.854 17.1806L20.8507 16.9984L25.8474 16.8163L25.749 14.1181L20.7524 14.3002ZM20.8507 16.9984L21.0329 21.9951L23.6811 21.8986L23.499 16.9019L23.3168 11.9052L20.6686 12.0017L20.8507 16.9984ZM23.499 16.9019L18.5023 17.084L18.699 22.4804L23.6957 22.2983L28.6924 22.1161L28.4957 16.7197L23.499 16.9019ZM23.6957 22.2983L23.8778 27.295L26.5761 27.1966L26.3939 22.1999L26.2118 17.2033L23.5135 17.3016L23.6957 22.2983ZM26.3939 22.1999L21.3972 22.3821L21.4938 25.0303L26.4904 24.8482L31.4871 24.666L31.3906 22.0178L26.3939 22.1999ZM26.4904 24.8482L26.6726 29.8449L29.3708 29.7465L29.1887 24.7498L29.0065 19.7531L26.3083 19.8515L26.4904 24.8482ZM29.1887 24.7498L24.192 24.932L24.3887 30.3284L29.3854 30.1462L34.3821 29.9641L34.1853 24.5677L29.1887 24.7498ZM29.3854 30.1462L29.5675 35.1429L32.2657 35.0445L32.0836 30.0479L31.9014 25.0512L29.2032 25.1495L29.3854 30.1462ZM32.0836 30.0479L27.0869 30.23L27.1853 32.9282L32.1819 32.7461L37.1786 32.5639L37.0803 29.8657L32.0836 30.0479ZM32.1819 32.7461L32.3641 37.7428L35.0623 37.6444L34.8802 32.6477L34.698 27.651L31.9998 27.7494L32.1819 32.7461ZM34.8802 32.6477L29.8835 32.8299L30.0802 38.2263L35.0769 38.0441L40.0736 37.862L39.8768 32.4656L34.8802 32.6477ZM35.0769 38.0441L35.259 43.0408L37.9572 42.9424L37.7751 37.9458L37.5929 32.9491L34.8947 33.0474L35.0769 38.0441ZM37.7751 37.9458L42.7718 37.7636L42.6734 35.0654L37.6767 35.2476L32.68 35.4297L32.7784 38.1279L37.7751 37.9458ZM37.6767 35.2476L37.4946 30.2509L37.4446 30.2527L37.6268 35.2494L37.8089 40.2461L37.8589 40.2442L37.6767 35.2476ZM37.6268 35.2494L42.6234 35.0672L41.8384 13.5315L36.8417 13.7137L31.845 13.8958L32.6301 35.4315L37.6268 35.2494ZM36.8417 13.7137L37.0238 18.7104L42.4202 18.5136L42.2381 13.517L42.0559 8.52028L36.6595 8.717L36.8417 13.7137ZM42.2381 13.517L37.2414 13.6991L38.5165 48.6759L43.5132 48.4937L48.5098 48.3116L47.2348 13.3348L42.2381 13.517ZM43.5132 48.4937L43.331 43.497L37.9346 43.6938L38.1167 48.6905L38.2989 53.6871L43.6953 53.4904L43.5132 48.4937ZM38.1167 48.6905L43.1134 48.5083L43.0151 45.8101L38.0184 45.9922L33.0217 46.1744L33.1201 48.8726L38.1167 48.6905ZM38.0184 45.9922L37.8362 40.9956L35.188 41.0921L35.3701 46.0888L35.5523 51.0855L38.2005 50.9889L38.0184 45.9922ZM35.3701 46.0888L40.3668 45.9066L40.2685 43.2084L35.2718 43.3906L30.2751 43.5727L30.3735 46.2709L35.3701 46.0888ZM35.2718 43.3906L35.0896 38.3939L32.3914 38.4923L32.5736 43.4889L32.7557 48.4856L35.4539 48.3873L35.2718 43.3906ZM32.5736 43.4889L37.5703 43.3068L37.4737 40.6585L32.477 40.8407L27.4804 41.0228L27.5769 43.6711L32.5736 43.4889ZM32.477 40.8407L32.2949 35.844L29.5967 35.9424L29.7788 40.9391L29.961 45.9357L32.6592 45.8374L32.477 40.8407ZM29.7788 40.9391L34.7755 40.7569L34.5788 35.3605L29.5821 35.5426L24.5854 35.7248L24.7821 41.1212L29.7788 40.9391ZM29.5821 35.5426L29.3999 30.546L26.7017 30.6443L26.8839 35.641L27.066 40.6377L29.7643 40.5393L29.5821 35.5426ZM26.8839 35.641L31.8806 35.4589L31.7822 32.7606L26.7855 32.9428L21.7888 33.1249L21.8872 35.8232L26.8839 35.641ZM26.7855 32.9428L26.6034 27.9461L23.9052 28.0445L24.0873 33.0412L24.2695 38.0378L26.9677 37.9395L26.7855 32.9428ZM24.0873 33.0412L29.084 32.859L28.8873 27.4626L23.8906 27.6447L18.8939 27.8269L19.0906 33.2233L24.0873 33.0412ZM23.8906 27.6447L23.7084 22.6481L21.0602 22.7446L21.2424 27.7413L21.4245 32.738L24.0728 32.6414L23.8906 27.6447ZM21.2424 27.7413L16.2457 27.9234L17.0308 49.4591L22.0274 49.277L27.0241 49.0948L26.239 27.5591L21.2424 27.7413ZM22.0274 49.277L21.8453 44.2803L16.4489 44.477L16.631 49.4737L16.8132 54.4704L22.2096 54.2737L22.0274 49.277ZM47.8211 18.717L48.0032 23.7137L52.9999 23.5316L52.8178 18.5349L47.8211 18.717ZM47.7227 16.0188L47.5406 11.0221L42.5439 11.2043L42.726 16.201L47.7227 16.0188ZM50.371 15.9223L50.5531 20.919L55.5498 20.7368L55.3676 15.7401L50.371 15.9223ZM50.2726 13.2241L50.0904 8.22738L45.0938 8.40954L45.2759 13.4062L50.2726 13.2241ZM66.4618 12.6339L71.4585 12.4517L71.2764 7.45506L66.2797 7.63721L66.4618 12.6339ZM66.5602 15.3321L61.5635 15.5143L61.7457 20.5109L66.7424 20.3288L66.5602 15.3321ZM69.2085 15.2356L74.2051 15.0534L74.023 10.0567L69.0263 10.2389L69.2085 15.2356ZM69.3068 17.9338L64.3101 18.1159L64.4923 23.1126L69.489 22.9304L69.3068 17.9338ZM72.005 17.8354L77.0017 17.6533L76.8195 12.6566L71.8229 12.8387L72.005 17.8354ZM72.2017 23.2318L72.3839 28.2285L77.3806 28.0463L77.1984 23.0497L72.2017 23.2318ZM66.8053 23.4285L61.8086 23.6107L61.9908 28.6074L66.9875 28.4252L66.8053 23.4285ZM66.707 20.7303L71.7036 20.5482L71.5215 15.5515L66.5248 15.7337L66.707 20.7303ZM64.0587 20.8269L59.062 21.009L59.2442 26.0057L64.2409 25.8236L64.0587 20.8269ZM63.9604 18.1287L68.957 17.9465L68.7749 12.9498L63.7782 13.132L63.9604 18.1287ZM53.1675 18.5221L52.9854 13.5254L47.9887 13.7076L48.1709 18.7043L53.1675 18.5221ZM53.2659 21.2203L53.448 26.217L58.4447 26.0349L58.2626 21.0382L53.2659 21.2203ZM50.5677 21.3187L50.3855 16.322L45.3889 16.5042L45.571 21.5008L50.5677 21.3187ZM50.6642 23.9669L45.6675 24.1491L45.8497 29.1458L50.8464 28.9636L50.6642 23.9669ZM53.3624 23.8686L58.3591 23.6864L58.177 18.6897L53.1803 18.8719L53.3624 23.8686ZM53.4608 26.5668L48.4641 26.7489L48.6463 31.7456L53.643 31.5635L53.4608 26.5668ZM66.9518 26.075L71.9485 25.8928L71.7664 20.8961L66.7697 21.0783L66.9518 26.075ZM67.0502 28.7732L62.0535 28.9553L62.2357 33.952L67.2324 33.7699L67.0502 28.7732ZM69.6984 28.6766L74.6951 28.4945L74.513 23.4978L69.5163 23.6799L69.6984 28.6766ZM69.7968 31.3748L64.8001 31.557L64.9823 36.5537L69.979 36.3715L69.7968 31.3748ZM72.495 31.2765L77.4917 31.0943L77.3095 26.0976L72.3129 26.2798L72.495 31.2765ZM72.8866 42.0193L73.0688 47.016L78.0655 46.8339L77.8833 41.8372L72.8866 42.0193ZM70.1884 42.1177L70.0063 37.121L65.0096 37.3032L65.1918 42.2999L70.1884 42.1177ZM70.2868 44.8159L70.4689 49.8126L75.4656 49.6304L75.2835 44.6338L70.2868 44.8159ZM67.6386 44.9124L67.4564 39.9158L62.4597 40.0979L62.6419 45.0946L67.6386 44.9124ZM67.7369 47.6107L67.9191 52.6073L72.9157 52.4252L72.7336 47.4285L67.7369 47.6107ZM51.5477 48.2008L46.551 48.383L46.7331 53.3797L51.7298 53.1975L51.5477 48.2008ZM51.4493 45.5026L56.446 45.3205L56.2638 40.3238L51.2672 40.5059L51.4493 45.5026ZM48.8011 45.5992L43.8044 45.7813L43.9865 50.778L48.9832 50.5958L48.8011 45.5992ZM48.7027 42.901L53.6994 42.7188L53.5172 37.7221L48.5205 37.9043L48.7027 42.901ZM46.0045 42.9993L41.0078 43.1815L41.19 48.1781L46.1866 47.996L46.0045 42.9993ZM45.8096 37.6529L45.6274 32.6562L40.6308 32.8383L40.8129 37.835L45.8096 37.6529ZM51.156 37.458L56.1527 37.2758L55.9706 32.2791L50.9739 32.4613L51.156 37.458ZM51.2526 40.1062L46.2559 40.2884L46.4381 45.285L51.4347 45.1029L51.2526 40.1062ZM53.9508 40.0078L58.9475 39.8257L58.7653 34.829L53.7686 35.0112L53.9508 40.0078ZM54.0492 42.7061L49.0525 42.8882L49.2346 47.8849L54.2313 47.7027L54.0492 42.7061ZM64.842 42.3126L65.0241 47.3093L70.0208 47.1271L69.8387 42.1305L64.842 42.3126ZM64.7436 39.6144L64.5615 34.6177L59.5648 34.7999L59.7469 39.7965L64.7436 39.6144ZM67.4418 39.516L67.624 44.5127L72.6207 44.3306L72.4385 39.3339L67.4418 39.516ZM67.2469 34.1696L72.2436 33.9874L72.0615 28.9908L67.0648 29.1729L67.2469 34.1696ZM64.5987 34.2661L59.602 34.4483L59.7842 39.445L64.7808 39.2628L64.5987 34.2661ZM64.5003 31.5679L69.497 31.3858L69.3148 26.3891L64.3182 26.5712L64.5003 31.5679ZM50.9593 32.0616L45.9626 32.2437L46.1448 37.2404L51.1415 37.0582L50.9593 32.0616ZM50.861 29.3633L55.8576 29.1812L55.6755 24.1845L50.6788 24.3667L50.861 29.3633ZM48.2127 29.4599L43.216 29.642L43.3982 34.6387L48.3949 34.4566L48.2127 29.4599ZM48.1143 26.7617L53.111 26.5795L52.9289 21.5828L47.9322 21.765L48.1143 26.7617ZM45.4161 26.86L40.4195 27.0422L40.6016 32.0389L45.5983 31.8567L45.4161 26.86ZM45.1229 18.8154L44.9407 13.8187L39.944 14.0009L40.1262 18.9975L45.1229 18.8154ZM47.8211 18.717L52.8178 18.5349L52.7194 15.8367L47.7227 16.0188L42.726 16.201L42.8244 18.8992L47.8211 18.717ZM47.7227 16.0188L47.9049 21.0155L50.5531 20.919L50.371 15.9223L50.1888 10.9256L47.5406 11.0221L47.7227 16.0188ZM50.371 15.9223L55.3676 15.7401L55.2693 13.0419L50.2726 13.2241L45.2759 13.4062L45.3743 16.1044L50.371 15.9223ZM50.2726 13.2241L50.4548 18.2207L66.644 17.6306L66.4618 12.6339L66.2797 7.63721L50.0904 8.22738L50.2726 13.2241ZM66.4618 12.6339L61.4652 12.816L61.5635 15.5143L66.5602 15.3321L71.5569 15.1499L71.4585 12.4517L66.4618 12.6339ZM66.5602 15.3321L66.7424 20.3288L69.3906 20.2322L69.2085 15.2356L69.0263 10.2389L66.3781 10.3354L66.5602 15.3321ZM69.2085 15.2356L64.2118 15.4177L64.3101 18.1159L69.3068 17.9338L74.3035 17.7516L74.2051 15.0534L69.2085 15.2356ZM69.3068 17.9338L69.489 22.9304L72.1872 22.8321L72.005 17.8354L71.8229 12.8387L69.1247 12.9371L69.3068 17.9338ZM72.005 17.8354L67.0083 18.0176L67.2051 23.414L72.2017 23.2318L77.1984 23.0497L77.0017 17.6533L72.005 17.8354ZM72.2017 23.2318L72.0196 18.2351L66.6232 18.4319L66.8053 23.4285L66.9875 28.4252L72.3839 28.2285L72.2017 23.2318ZM66.8053 23.4285L71.802 23.2464L71.7036 20.5482L66.707 20.7303L61.7103 20.9125L61.8086 23.6107L66.8053 23.4285ZM66.707 20.7303L66.5248 15.7337L63.8766 15.8302L64.0587 20.8269L64.2409 25.8236L66.8891 25.727L66.707 20.7303ZM64.0587 20.8269L69.0554 20.6447L68.957 17.9465L63.9604 18.1287L58.9637 18.3108L59.062 21.009L64.0587 20.8269ZM63.9604 18.1287L63.7782 13.132L52.9854 13.5254L53.1675 18.5221L53.3497 23.5188L64.1425 23.1254L63.9604 18.1287ZM53.1675 18.5221L48.1709 18.7043L48.2692 21.4025L53.2659 21.2203L58.2626 21.0382L58.1642 18.34L53.1675 18.5221ZM53.2659 21.2203L53.0837 16.2236L50.3855 16.322L50.5677 21.3187L50.7498 26.3154L53.448 26.217L53.2659 21.2203ZM50.5677 21.3187L45.571 21.5008L45.6675 24.1491L50.6642 23.9669L55.6609 23.7848L55.5644 21.1365L50.5677 21.3187ZM50.6642 23.9669L50.8464 28.9636L53.5446 28.8652L53.3624 23.8686L53.1803 18.8719L50.4821 18.9702L50.6642 23.9669ZM53.3624 23.8686L48.3658 24.0507L48.4641 26.7489L53.4608 26.5668L58.4575 26.3846L58.3591 23.6864L53.3624 23.8686ZM53.4608 26.5668L53.643 31.5635L67.134 31.0716L66.9518 26.075L66.7697 21.0783L53.2786 21.5701L53.4608 26.5668ZM66.9518 26.075L61.9552 26.2571L62.0535 28.9553L67.0502 28.7732L72.0469 28.591L71.9485 25.8928L66.9518 26.075ZM67.0502 28.7732L67.2324 33.7699L69.8806 33.6733L69.6984 28.6766L69.5163 23.6799L66.868 23.7765L67.0502 28.7732ZM69.6984 28.6766L64.7018 28.8588L64.8001 31.557L69.7968 31.3748L74.7935 31.1927L74.6951 28.4945L69.6984 28.6766ZM69.7968 31.3748L69.979 36.3715L72.6772 36.2732L72.495 31.2765L72.3129 26.2798L69.6147 26.3782L69.7968 31.3748ZM72.495 31.2765L67.4983 31.4586L67.89 42.2015L72.8866 42.0193L77.8833 41.8372L77.4917 31.0943L72.495 31.2765ZM72.8866 42.0193L72.7045 37.0227L70.0063 37.121L70.1884 42.1177L70.3706 47.1144L73.0688 47.016L72.8866 42.0193ZM70.1884 42.1177L65.1918 42.2999L65.2901 44.9981L70.2868 44.8159L75.2835 44.6338L75.1851 41.9355L70.1884 42.1177ZM70.2868 44.8159L70.1046 39.8192L67.4564 39.9158L67.6386 44.9124L67.8207 49.9091L70.4689 49.8126L70.2868 44.8159ZM67.6386 44.9124L62.6419 45.0946L62.7402 47.7928L67.7369 47.6107L72.7336 47.4285L72.6352 44.7303L67.6386 44.9124ZM67.7369 47.6107L67.5548 42.614L51.3655 43.2042L51.5477 48.2008L51.7298 53.1975L67.9191 52.6073L67.7369 47.6107ZM51.5477 48.2008L56.5443 48.0187L56.446 45.3205L51.4493 45.5026L46.4526 45.6848L46.551 48.383L51.5477 48.2008ZM51.4493 45.5026L51.2672 40.5059L48.6189 40.6025L48.8011 45.5992L48.9832 50.5958L51.6315 50.4993L51.4493 45.5026ZM48.8011 45.5992L53.7977 45.417L53.6994 42.7188L48.7027 42.901L43.706 43.0831L43.8044 45.7813L48.8011 45.5992ZM48.7027 42.901L48.5205 37.9043L45.8223 38.0026L46.0045 42.9993L46.1866 47.996L48.8849 47.8976L48.7027 42.901ZM46.0045 42.9993L51.0012 42.8172L50.8063 37.4707L45.8096 37.6529L40.8129 37.835L41.0078 43.1815L46.0045 42.9993ZM45.8096 37.6529L45.9917 42.6496L51.3382 42.4546L51.156 37.458L50.9739 32.4613L45.6274 32.6562L45.8096 37.6529ZM51.156 37.458L46.1594 37.6401L46.2559 40.2884L51.2526 40.1062L56.2493 39.9241L56.1527 37.2758L51.156 37.458ZM51.2526 40.1062L51.4347 45.1029L54.1329 45.0045L53.9508 40.0078L53.7686 35.0112L51.0704 35.1095L51.2526 40.1062ZM53.9508 40.0078L48.9541 40.19L49.0525 42.8882L54.0492 42.7061L59.0458 42.5239L58.9475 39.8257L53.9508 40.0078ZM54.0492 42.7061L54.2313 47.7027L65.0241 47.3093L64.842 42.3126L64.6598 37.3159L53.867 37.7094L54.0492 42.7061ZM64.842 42.3126L69.8387 42.1305L69.7403 39.4322L64.7436 39.6144L59.7469 39.7965L59.8453 42.4948L64.842 42.3126ZM64.7436 39.6144L64.9258 44.6111L67.624 44.5127L67.4418 39.516L67.2597 34.5194L64.5615 34.6177L64.7436 39.6144ZM67.4418 39.516L72.4385 39.3339L72.2436 33.9874L67.2469 34.1696L62.2502 34.3517L62.4451 39.6982L67.4418 39.516ZM67.2469 34.1696L67.0648 29.1729L64.4165 29.2694L64.5987 34.2661L64.7808 39.2628L67.4291 39.1663L67.2469 34.1696ZM64.5987 34.2661L69.5954 34.084L69.497 31.3858L64.5003 31.5679L59.5036 31.7501L59.602 34.4483L64.5987 34.2661ZM64.5003 31.5679L64.3182 26.5712L50.7772 27.0649L50.9593 32.0616L51.1415 37.0582L64.6825 36.5646L64.5003 31.5679ZM50.9593 32.0616L55.956 31.8794L55.8576 29.1812L50.861 29.3633L45.8643 29.5455L45.9626 32.2437L50.9593 32.0616ZM50.861 29.3633L50.6788 24.3667L48.0306 24.4632L48.2127 29.4599L48.3949 34.4566L51.0431 34.36L50.861 29.3633ZM48.2127 29.4599L53.2094 29.2777L53.111 26.5795L48.1143 26.7617L43.1177 26.9438L43.216 29.642L48.2127 29.4599ZM48.1143 26.7617L47.9322 21.765L45.234 21.8634L45.4161 26.86L45.5983 31.8567L48.2965 31.7584L48.1143 26.7617ZM45.4161 26.86L50.4128 26.6779L50.1196 18.6332L45.1229 18.8154L40.1262 18.9975L40.4195 27.0422L45.4161 26.86ZM45.1229 18.8154L45.305 23.8121L48.0032 23.7137L47.8211 18.717L47.6389 13.7203L44.9407 13.8187L45.1229 18.8154ZM80.0895 17.5407L79.9073 12.544L74.9107 12.7262L75.0928 17.7228L80.0895 17.5407ZM80.4811 28.2836L75.4844 28.4657L75.6666 33.4624L80.6633 33.2802L80.4811 28.2836ZM91.224 27.8919L91.4061 32.8886L96.4028 32.7065L96.2207 27.7098L91.224 27.8919ZM91.1256 25.1937L90.9435 20.197L85.9468 20.3792L86.1289 25.3759L91.1256 25.1937ZM93.8238 25.0954L94.006 30.092L99.0027 29.9099L98.8205 24.9132L93.8238 25.0954ZM93.6289 19.7489L98.6256 19.5668L98.4435 14.5701L93.4468 14.7522L93.6289 19.7489ZM90.9307 19.8473L85.934 20.0294L86.1162 25.0261L91.1129 24.8439L90.9307 19.8473ZM90.8324 17.1491L95.829 16.9669L95.6469 11.9702L90.6502 12.1524L90.8324 17.1491ZM75.7714 47.3178L70.7747 47.4999L70.9569 52.4966L75.9536 52.3144L75.7714 47.3178ZM74.4964 12.341L74.3142 7.34432L69.3175 7.52647L69.4997 12.5231L74.4964 12.341ZM93.3338 11.6543L98.3305 11.4721L98.1484 6.47545L93.1517 6.6576L93.3338 11.6543ZM93.4322 14.3525L88.4355 14.5346L88.6177 19.5313L93.6143 19.3492L93.4322 14.3525ZM96.1304 14.2541L101.127 14.072L100.945 9.0753L95.9483 9.25745L96.1304 14.2541ZM96.2288 16.9523L91.2321 17.1345L91.4142 22.1312L96.4109 21.949L96.2288 16.9523ZM98.927 16.854L103.924 16.6718L103.742 11.6751L98.7448 11.8573L98.927 16.854ZM99.3186 27.5968L99.5008 32.5935L104.497 32.4114L104.315 27.4147L99.3186 27.5968ZM96.6204 27.6952L96.4382 22.6985L91.4416 22.8807L91.6237 27.8774L96.6204 27.6952ZM96.7188 30.3934L96.9009 35.3901L101.898 35.2079L101.715 30.2113L96.7188 30.3934ZM94.0205 30.4918L93.8384 25.4951L88.8417 25.6772L89.0239 30.6739L94.0205 30.4918ZM94.1189 33.19L94.3011 38.1867L99.2977 38.0045L99.1156 33.0078L94.1189 33.19ZM80.6778 33.68L80.4957 28.6833L75.499 28.8654L75.6812 33.8621L80.6778 33.68ZM81.1678 47.121L81.35 52.1177L86.3467 51.9356L86.1645 46.9389L81.1678 47.121ZM80.0895 17.5407L75.0928 17.7228L75.4844 28.4657L80.4811 28.2836L85.4778 28.1014L85.0862 17.3585L80.0895 17.5407ZM80.4811 28.2836L80.6633 33.2802L91.4061 32.8886L91.224 27.8919L91.0418 22.8952L80.299 23.2869L80.4811 28.2836ZM91.224 27.8919L96.2207 27.7098L96.1223 25.0116L91.1256 25.1937L86.1289 25.3759L86.2273 28.0741L91.224 27.8919ZM91.1256 25.1937L91.3078 30.1904L94.006 30.092L93.8238 25.0954L93.6417 20.0987L90.9435 20.197L91.1256 25.1937ZM93.8238 25.0954L98.8205 24.9132L98.6256 19.5668L93.6289 19.7489L88.6322 19.9311L88.8271 25.2775L93.8238 25.0954ZM93.6289 19.7489L93.4468 14.7522L90.7486 14.8506L90.9307 19.8473L91.1129 24.8439L93.8111 24.7456L93.6289 19.7489ZM90.9307 19.8473L95.9274 19.6651L95.829 16.9669L90.8324 17.1491L85.8357 17.3312L85.934 20.0294L90.9307 19.8473ZM90.8324 17.1491L90.6502 12.1524L79.9073 12.544L80.0895 17.5407L80.2716 22.5374L91.0145 22.1457L90.8324 17.1491ZM75.7714 47.3178L80.7681 47.1356L79.493 12.1588L74.4964 12.341L69.4997 12.5231L70.7747 47.4999L75.7714 47.3178ZM74.4964 12.341L74.6785 17.3377L93.516 16.651L93.3338 11.6543L93.1517 6.6576L74.3142 7.34432L74.4964 12.341ZM93.3338 11.6543L88.3372 11.8364L88.4355 14.5346L93.4322 14.3525L98.4289 14.1703L98.3305 11.4721L93.3338 11.6543ZM93.4322 14.3525L93.6143 19.3492L96.3126 19.2508L96.1304 14.2541L95.9483 9.25745L93.25 9.35581L93.4322 14.3525ZM96.1304 14.2541L91.1337 14.4363L91.2321 17.1345L96.2288 16.9523L101.225 16.7702L101.127 14.072L96.1304 14.2541ZM96.2288 16.9523L96.4109 21.949L99.1091 21.8507L98.927 16.854L98.7448 11.8573L96.0466 11.9557L96.2288 16.9523ZM98.927 16.854L93.9303 17.0361L94.3219 27.779L99.3186 27.5968L104.315 27.4147L103.924 16.6718L98.927 16.854ZM99.3186 27.5968L99.1365 22.6002L96.4382 22.6985L96.6204 27.6952L96.8026 32.6919L99.5008 32.5935L99.3186 27.5968ZM96.6204 27.6952L91.6237 27.8774L91.7221 30.5756L96.7188 30.3934L101.715 30.2113L101.617 27.513L96.6204 27.6952ZM96.7188 30.3934L96.5366 25.3967L93.8384 25.4951L94.0205 30.4918L94.2027 35.4884L96.9009 35.3901L96.7188 30.3934ZM94.0205 30.4918L89.0239 30.6739L89.1222 33.3721L94.1189 33.19L99.1156 33.0078L99.0172 30.3096L94.0205 30.4918ZM94.1189 33.19L93.9368 28.1933L80.4957 28.6833L80.6778 33.68L80.86 38.6766L94.3011 38.1867L94.1189 33.19ZM80.6778 33.68L75.6812 33.8621L76.1712 47.3032L81.1678 47.121L86.1645 46.9389L85.6745 33.4978L80.6778 33.68ZM81.1678 47.121L80.9857 42.1244L75.5893 42.3211L75.7714 47.3178L75.9536 52.3144L81.35 52.1177L81.1678 47.121ZM102.707 46.3358L97.71 46.518L97.8921 51.5147L102.889 51.3325L102.707 46.3358ZM101.432 11.3591L101.249 6.3624L96.2527 6.54455L96.4349 11.5412L101.432 11.3591ZM106.828 11.1624L111.825 10.9802L111.643 5.98352L106.646 6.16568L106.828 11.1624ZM108.103 46.1391L108.285 51.1358L113.282 50.9537L113.1 45.957L108.103 46.1391ZM102.707 46.3358L107.703 46.1537L106.428 11.1769L101.432 11.3591L96.4349 11.5412L97.71 46.518L102.707 46.3358ZM101.432 11.3591L101.614 16.3558L107.01 16.159L106.828 11.1624L106.646 6.16568L101.249 6.3624L101.432 11.3591ZM106.828 11.1624L101.831 11.3445L103.106 46.3213L108.103 46.1391L113.1 45.957L111.825 10.9802L106.828 11.1624ZM108.103 46.1391L107.921 41.1424L102.524 41.3392L102.707 46.3358L102.889 51.3325L108.285 51.1358L108.103 46.1391ZM115.125 16.2635L114.943 11.2668L109.946 11.449L110.128 16.4456L115.125 16.2635ZM115.516 27.0064L110.52 27.1885L110.702 32.1852L115.699 32.003L115.516 27.0064ZM128.908 26.5182L129.09 31.5149L134.086 31.3327L133.904 26.336L128.908 26.5182ZM128.809 23.82L128.627 18.8233L123.63 19.0054L123.813 24.0021L128.809 23.82ZM131.507 23.7216L131.69 28.7183L136.686 28.5361L136.504 23.5395L131.507 23.7216ZM131.312 18.3752L136.309 18.193L136.127 13.1963L131.13 13.3785L131.312 18.3752ZM128.614 18.4735L123.618 18.6557L123.8 23.6524L128.796 23.4702L128.614 18.4735ZM128.516 15.7753L133.513 15.5932L133.33 10.5965L128.334 10.7786L128.516 15.7753ZM110.807 46.0406L105.81 46.2227L105.992 51.2194L110.989 51.0372L110.807 46.0406ZM109.532 11.0638L109.35 6.06712L104.353 6.24927L104.535 11.2459L109.532 11.0638ZM131.017 10.2805L136.014 10.0984L135.832 5.10171L130.835 5.28386L131.017 10.2805ZM131.116 12.9788L126.119 13.1609L126.301 18.1576L131.298 17.9754L131.116 12.9788ZM133.814 12.8804L138.811 12.6982L138.628 7.70155L133.632 7.88371L133.814 12.8804ZM133.912 15.5786L128.916 15.7607L129.098 20.7574L134.094 20.5753L133.912 15.5786ZM136.611 15.4802L141.607 15.2981L141.425 10.3014L136.428 10.4836L136.611 15.4802ZM137.002 26.2231L137.184 31.2198L142.181 31.0376L141.999 26.0409L137.002 26.2231ZM134.304 26.3215L134.122 21.3248L129.125 21.5069L129.307 26.5036L134.304 26.3215ZM134.402 29.0197L134.584 34.0163L139.581 33.8342L139.399 28.8375L134.402 29.0197ZM131.704 29.118L131.522 24.1213L126.525 24.3035L126.707 29.3002L131.704 29.118ZM131.802 31.8162L126.806 31.9984L126.988 36.9951L131.985 36.8129L131.802 31.8162ZM134.501 31.7179L139.497 31.5357L139.315 26.539L134.319 26.7212L134.501 31.7179ZM134.599 34.4161L129.602 34.5982L129.785 39.5949L134.781 39.4128L134.599 34.4161ZM137.297 34.3177L142.294 34.1356L142.112 29.1389L137.115 29.321L137.297 34.3177ZM137.689 45.0606L137.871 50.0573L142.868 49.8751L142.686 44.8784L137.689 45.0606ZM132.292 45.2573L127.296 45.4395L127.478 50.4361L132.475 50.254L132.292 45.2573ZM131.997 37.1627L136.994 36.9805L136.812 31.9839L131.815 32.166L131.997 37.1627ZM129.299 37.261L124.302 37.4432L124.485 42.4399L129.481 42.2577L129.299 37.261ZM129.203 34.6128L134.199 34.4307L134.017 29.434L129.02 29.6161L129.203 34.6128ZM126.504 34.7112L121.508 34.8933L121.69 39.89L126.687 39.7078L126.504 34.7112ZM126.406 32.013L131.403 31.8308L131.221 26.8341L126.224 27.0163L126.406 32.013ZM115.713 32.4028L115.531 27.4061L110.534 27.5882L110.716 32.5849L115.713 32.4028ZM116.203 45.8438L116.385 50.8405L121.382 50.6584L121.2 45.6617L116.203 45.8438ZM115.125 16.2635L110.128 16.4456L110.52 27.1885L115.516 27.0064L120.513 26.8242L120.121 16.0813L115.125 16.2635ZM115.516 27.0064L115.699 32.003L129.09 31.5149L128.908 26.5182L128.725 21.5215L115.334 22.0097L115.516 27.0064ZM128.908 26.5182L133.904 26.336L133.806 23.6378L128.809 23.82L123.813 24.0021L123.911 26.7003L128.908 26.5182ZM128.809 23.82L128.991 28.8167L131.69 28.7183L131.507 23.7216L131.325 18.7249L128.627 18.8233L128.809 23.82ZM131.507 23.7216L136.504 23.5395L136.309 18.193L131.312 18.3752L126.316 18.5573L126.511 23.9038L131.507 23.7216ZM131.312 18.3752L131.13 13.3785L128.432 13.4768L128.614 18.4735L128.796 23.4702L131.495 23.3718L131.312 18.3752ZM128.614 18.4735L133.611 18.2914L133.513 15.5932L128.516 15.7753L123.519 15.9575L123.618 18.6557L128.614 18.4735ZM128.516 15.7753L128.334 10.7786L114.943 11.2668L115.125 16.2635L115.307 21.2602L128.698 20.772L128.516 15.7753ZM110.807 46.0406L115.803 45.8584L114.528 10.8816L109.532 11.0638L104.535 11.2459L105.81 46.2227L110.807 46.0406ZM109.532 11.0638L109.714 16.0605L131.2 15.2772L131.017 10.2805L130.835 5.28386L109.35 6.06712L109.532 11.0638ZM131.017 10.2805L126.021 10.4627L126.119 13.1609L131.116 12.9788L136.112 12.7966L136.014 10.0984L131.017 10.2805ZM131.116 12.9788L131.298 17.9754L133.996 17.8771L133.814 12.8804L133.632 7.88371L130.934 7.98207L131.116 12.9788ZM133.814 12.8804L128.817 13.0625L128.916 15.7607L133.912 15.5786L138.909 15.3964L138.811 12.6982L133.814 12.8804ZM133.912 15.5786L134.094 20.5753L136.793 20.4769L136.611 15.4802L136.428 10.4836L133.73 10.5819L133.912 15.5786ZM136.611 15.4802L131.614 15.6624L132.005 26.4052L137.002 26.2231L141.999 26.0409L141.607 15.2981L136.611 15.4802ZM137.002 26.2231L136.82 21.2264L134.122 21.3248L134.304 26.3215L134.486 31.3181L137.184 31.2198L137.002 26.2231ZM134.304 26.3215L129.307 26.5036L129.406 29.2018L134.402 29.0197L139.399 28.8375L139.301 26.1393L134.304 26.3215ZM134.402 29.0197L134.22 24.023L131.522 24.1213L131.704 29.118L131.886 34.1147L134.584 34.0163L134.402 29.0197ZM131.704 29.118L126.707 29.3002L126.806 31.9984L131.802 31.8162L136.799 31.6341L136.701 28.9359L131.704 29.118ZM131.802 31.8162L131.985 36.8129L134.683 36.7146L134.501 31.7179L134.319 26.7212L131.62 26.8196L131.802 31.8162ZM134.501 31.7179L129.504 31.9L129.602 34.5982L134.599 34.4161L139.596 34.2339L139.497 31.5357L134.501 31.7179ZM134.599 34.4161L134.781 39.4128L137.479 39.3144L137.297 34.3177L137.115 29.321L134.417 29.4194L134.599 34.4161ZM137.297 34.3177L132.301 34.4999L132.692 45.2427L137.689 45.0606L142.686 44.8784L142.294 34.1356L137.297 34.3177ZM137.689 45.0606L137.507 40.0639L132.11 40.2606L132.292 45.2573L132.475 50.254L137.871 50.0573L137.689 45.0606ZM132.292 45.2573L137.289 45.0752L136.994 36.9805L131.997 37.1627L127.001 37.3448L127.296 45.4395L132.292 45.2573ZM131.997 37.1627L131.815 32.166L129.117 32.2644L129.299 37.261L129.481 42.2577L132.18 42.1594L131.997 37.1627ZM129.299 37.261L134.296 37.0789L134.199 34.4307L129.203 34.6128L124.206 34.795L124.302 37.4432L129.299 37.261ZM129.203 34.6128L129.02 29.6161L126.322 29.7145L126.504 34.7112L126.687 39.7078L129.385 39.6095L129.203 34.6128ZM126.504 34.7112L131.501 34.529L131.403 31.8308L126.406 32.013L121.409 32.1951L121.508 34.8933L126.504 34.7112ZM126.406 32.013L126.224 27.0163L115.531 27.4061L115.713 32.4028L115.895 37.3994L126.588 37.0096L126.406 32.013ZM115.713 32.4028L110.716 32.5849L111.206 46.026L116.203 45.8438L121.2 45.6617L120.71 32.2206L115.713 32.4028ZM116.203 45.8438L116.021 40.8472L110.625 41.0439L110.807 46.0406L110.989 51.0372L116.385 50.8405L116.203 45.8438ZM140.377 44.9626L135.38 45.1447L135.562 50.1414L140.559 49.9593L140.377 44.9626ZM139.102 9.98582L138.92 4.98914L133.923 5.1713L134.105 10.168L139.102 9.98582ZM163.336 9.10239L168.332 8.92023L168.15 3.92355L163.154 4.10571L163.336 9.10239ZM163.533 14.4988L163.715 19.4955L168.711 19.3133L168.529 14.3167L163.533 14.4988ZM144.695 15.1855L144.513 10.1888L139.516 10.371L139.698 15.3677L144.695 15.1855ZM144.988 23.2302L139.992 23.4123L140.174 28.409L145.17 28.2269L144.988 23.2302ZM161.128 22.6418L166.124 22.4597L165.942 17.463L160.945 17.6451L161.128 22.6418ZM161.324 28.0382L161.506 33.0349L166.503 32.8528L166.321 27.8561L161.324 28.0382ZM145.185 28.6266L145.003 23.6299L140.006 23.8121L140.188 28.8087L145.185 28.6266ZM145.577 39.3695L140.58 39.5516L140.762 44.5483L145.759 44.3661L145.577 39.3695ZM164.414 38.6827L169.411 38.5006L169.229 33.5039L164.232 33.6861L164.414 38.6827ZM164.611 44.0792L164.793 49.0758L169.79 48.8937L169.608 43.897L164.611 44.0792ZM140.377 44.9626L145.374 44.7804L144.099 9.80367L139.102 9.98582L134.105 10.168L135.38 45.1447L140.377 44.9626ZM139.102 9.98582L139.284 14.9825L163.518 14.0991L163.336 9.10239L163.154 4.10571L138.92 4.98914L139.102 9.98582ZM163.336 9.10239L158.339 9.28454L158.536 14.681L163.533 14.4988L168.529 14.3167L168.332 8.92023L163.336 9.10239ZM163.533 14.4988L163.35 9.50212L144.513 10.1888L144.695 15.1855L144.877 20.1822L163.715 19.4955L163.533 14.4988ZM144.695 15.1855L139.698 15.3677L139.992 23.4123L144.988 23.2302L149.985 23.048L149.692 15.0034L144.695 15.1855ZM144.988 23.2302L145.17 28.2269L161.31 27.6385L161.128 22.6418L160.945 17.6451L144.806 18.2335L144.988 23.2302ZM161.128 22.6418L156.131 22.824L156.328 28.2204L161.324 28.0382L166.321 27.8561L166.124 22.4597L161.128 22.6418ZM161.324 28.0382L161.142 23.0416L145.003 23.6299L145.185 28.6266L145.367 33.6233L161.506 33.0349L161.324 28.0382ZM145.185 28.6266L140.188 28.8087L140.58 39.5516L145.577 39.3695L150.573 39.1873L150.182 28.4444L145.185 28.6266ZM145.577 39.3695L145.759 44.3661L164.596 43.6794L164.414 38.6827L164.232 33.6861L145.394 34.3728L145.577 39.3695ZM164.414 38.6827L159.417 38.8649L159.614 44.2613L164.611 44.0792L169.608 43.897L169.411 38.5006L164.414 38.6827ZM164.611 44.0792L164.429 39.0825L140.195 39.9659L140.377 44.9626L140.559 49.9593L164.793 49.0758L164.611 44.0792Z" fill="black" mask="url(#path-3-outside-2_264_593)"/>
</svg>
