<svg width="46" height="46" viewBox="0 0 46 46" fill="none" xmlns="http://www.w3.org/2000/svg">
<path d="M45.5 3.80882V42.1912C45.5 43.0687 45.1514 43.9103 44.5309 44.5309C43.9103 45.1514 43.0687 45.5 42.1912 45.5H3.80882C2.93127 45.5 2.08966 45.1514 1.46913 44.5309C0.848607 43.9103 0.5 43.0687 0.5 42.1912L0.5 3.80882C0.5 2.93127 0.848607 2.08966 1.46913 1.46913C2.08966 0.848607 2.93127 0.5 3.80882 0.5L42.1912 0.5C43.0687 0.5 43.9103 0.848607 44.5309 1.46913C45.1514 2.08966 45.5 2.93127 45.5 3.80882ZM13.7353 17.7059H7.11765V38.8824H13.7353V17.7059ZM14.3309 10.4265C14.3344 9.9259 14.2392 9.42954 14.0509 8.96574C13.8625 8.50194 13.5847 8.07978 13.2332 7.72337C12.8817 7.36695 12.4634 7.08326 12.0023 6.88849C11.5411 6.69373 11.0462 6.5917 10.5456 6.58823H10.4265C9.40851 6.58823 8.43224 6.99262 7.71243 7.71243C6.99262 8.43224 6.58823 9.40851 6.58823 10.4265C6.58823 11.4444 6.99262 12.4207 7.71243 13.1405C8.43224 13.8603 9.40851 14.2647 10.4265 14.2647C10.9271 14.277 11.4252 14.1906 11.8924 14.0103C12.3596 13.83 12.7867 13.5595 13.1493 13.2141C13.5118 12.8687 13.8028 12.4553 14.0056 11.9974C14.2083 11.5395 14.3189 11.0462 14.3309 10.5456V10.4265ZM38.8824 26.0176C38.8824 19.6515 34.8324 17.1765 30.8088 17.1765C29.4914 17.1105 28.1798 17.3911 27.0047 17.9903C25.8296 18.5894 24.8321 19.4862 24.1118 20.5912H23.9265V17.7059H17.7059V38.8824H24.3235V27.6191C24.2279 26.4656 24.5912 25.3209 25.3347 24.4337C26.0781 23.5465 27.1416 22.9885 28.2941 22.8809H28.5456C30.65 22.8809 32.2118 24.2044 32.2118 27.5397V38.8824H38.8294L38.8824 26.0176Z" fill="#F7FA09"/>
</svg>
