<svg width="346" height="46" viewBox="0 0 346 46" fill="none" xmlns="http://www.w3.org/2000/svg">
<mask id="path-1-outside-1_111_200" maskUnits="userSpaceOnUse" x="0" y="0" width="346" height="46" fill="black">
<rect fill="white" width="346" height="46"/>
<path d="M16.1 41V11.4H5.35V6H32.2V11.4H21.5V41H16.1ZM34.891 41V6H59.141V11.4H40.291V19.45H56.441V24.85H40.291V35.6H59.141V41H34.891ZM61.8574 14.1V8.7H64.5574V6H80.7574V8.7H83.4574V14.1H86.1574V19.45H80.7574V16.75H78.0574V11.4H67.2574V16.75H64.5574V30.2H67.2574V35.6H78.0574V30.25H80.7574V27.55H86.1574V32.9H83.4574V38.3H80.7574V41H64.6074V38.3H61.8574V32.9H59.2074V14.1H61.8574ZM88.8461 41V6H94.1461V22.15H107.646V6H113.046V41H107.646V27.55H94.1461V41H88.8461ZM115.75 41V6H121.15V35.6H137.3V41H115.75ZM140.018 41V6H164.268V11.4H145.418V19.45H161.568V24.85H145.418V35.6H164.268V41H140.018ZM166.984 14.1V8.7H169.684V6H185.884V8.7H188.584V14.1H191.284V19.45H185.884V16.75H183.184V11.4H172.384V16.75H169.684V30.2H172.384V35.6H183.184V30.25H185.884V27.55H191.284V32.9H188.584V38.3H185.884V41H169.734V38.3H166.984V32.9H164.334V14.1H166.984ZM202.086 41V11.4H191.336V6H218.186V11.4H207.486V41H202.086ZM220.877 41V6H226.277V41H220.877ZM231.633 14.1V8.7H234.333V6H250.533V8.7H253.233V14.1H255.933V19.45H250.533V16.75H247.833V11.4H237.033V16.75H234.333V30.2H237.033V35.6H247.833V30.25H250.533V27.55H255.933V32.9H253.233V38.3H250.533V41H234.383V38.3H231.633V32.9H228.983V14.1H231.633ZM272.862 17C273.162 15.8 273.545 14.5333 274.012 13.2C274.478 11.8667 274.978 10.5167 275.512 9.15C276.078 7.78333 276.628 6.5 277.162 5.3H282.512C282.212 6.6 281.895 7.98333 281.562 9.45C281.262 10.9167 280.978 12.35 280.712 13.75C280.445 15.1167 280.228 16.3833 280.062 17.55H273.212L272.862 17ZM287.102 11.4V8.7H289.802V6H306.002V8.7H308.652V11.4H311.352V19.45H308.652V22.15H306.002V24.85H303.302V27.55H300.602V30.25H297.902V32.9H295.202V35.6H311.352V41H284.452V35.6H287.102V32.9H289.802V30.2H292.502V27.55H295.202V24.85H297.902V22.15H300.602V19.45H303.302V16.75H305.952V14.1H303.302V11.4H292.452V14.1H289.752V19.45H284.452V11.4H287.102ZM319.441 14.1V19.45H335.591V22.15H338.291V24.85H340.991V35.6H338.291V38.3H335.591V41H319.441V38.3H316.741V35.6H314.041V30.2H319.441V32.9H322.141V35.6H332.891V32.9H335.591V27.55H332.891V24.85H322.141V27.55H314.041V11.45H316.741V6H338.291V11.4H322.141V14.1H319.441Z"/>
</mask>
<path d="M16.1 41V11.4H5.35V6H32.2V11.4H21.5V41H16.1ZM34.891 41V6H59.141V11.4H40.291V19.45H56.441V24.85H40.291V35.6H59.141V41H34.891ZM61.8574 14.1V8.7H64.5574V6H80.7574V8.7H83.4574V14.1H86.1574V19.45H80.7574V16.75H78.0574V11.4H67.2574V16.75H64.5574V30.2H67.2574V35.6H78.0574V30.25H80.7574V27.55H86.1574V32.9H83.4574V38.3H80.7574V41H64.6074V38.3H61.8574V32.9H59.2074V14.1H61.8574ZM88.8461 41V6H94.1461V22.15H107.646V6H113.046V41H107.646V27.55H94.1461V41H88.8461ZM115.75 41V6H121.15V35.6H137.3V41H115.75ZM140.018 41V6H164.268V11.4H145.418V19.45H161.568V24.85H145.418V35.6H164.268V41H140.018ZM166.984 14.1V8.7H169.684V6H185.884V8.7H188.584V14.1H191.284V19.45H185.884V16.75H183.184V11.4H172.384V16.75H169.684V30.2H172.384V35.6H183.184V30.25H185.884V27.55H191.284V32.9H188.584V38.3H185.884V41H169.734V38.3H166.984V32.9H164.334V14.1H166.984ZM202.086 41V11.4H191.336V6H218.186V11.4H207.486V41H202.086ZM220.877 41V6H226.277V41H220.877ZM231.633 14.1V8.7H234.333V6H250.533V8.7H253.233V14.1H255.933V19.45H250.533V16.75H247.833V11.4H237.033V16.75H234.333V30.2H237.033V35.6H247.833V30.25H250.533V27.55H255.933V32.9H253.233V38.3H250.533V41H234.383V38.3H231.633V32.9H228.983V14.1H231.633ZM272.862 17C273.162 15.8 273.545 14.5333 274.012 13.2C274.478 11.8667 274.978 10.5167 275.512 9.15C276.078 7.78333 276.628 6.5 277.162 5.3H282.512C282.212 6.6 281.895 7.98333 281.562 9.45C281.262 10.9167 280.978 12.35 280.712 13.75C280.445 15.1167 280.228 16.3833 280.062 17.55H273.212L272.862 17ZM287.102 11.4V8.7H289.802V6H306.002V8.7H308.652V11.4H311.352V19.45H308.652V22.15H306.002V24.85H303.302V27.55H300.602V30.25H297.902V32.9H295.202V35.6H311.352V41H284.452V35.6H287.102V32.9H289.802V30.2H292.502V27.55H295.202V24.85H297.902V22.15H300.602V19.45H303.302V16.75H305.952V14.1H303.302V11.4H292.452V14.1H289.752V19.45H284.452V11.4H287.102ZM319.441 14.1V19.45H335.591V22.15H338.291V24.85H340.991V35.6H338.291V38.3H335.591V41H319.441V38.3H316.741V35.6H314.041V30.2H319.441V32.9H322.141V35.6H332.891V32.9H335.591V27.55H332.891V24.85H322.141V27.55H314.041V11.45H316.741V6H338.291V11.4H322.141V14.1H319.441Z" fill="white"/>
<path d="M16.1 41H11.1V46H16.1V41ZM16.1 11.4H21.1V6.4H16.1V11.4ZM5.35 11.4H0.35V16.4H5.35V11.4ZM5.35 6V0.999998H0.35V6H5.35ZM32.2 6H37.2V0.999998H32.2V6ZM32.2 11.4V16.4H37.2V11.4H32.2ZM21.5 11.4V6.4H16.5V11.4H21.5ZM21.5 41V46H26.5V41H21.5ZM16.1 41H21.1V11.4H16.1H11.1V41H16.1ZM16.1 11.4V6.4H5.35V11.4V16.4H16.1V11.4ZM5.35 11.4H10.35V6H5.35H0.35V11.4H5.35ZM5.35 6V11H32.2V6V0.999998H5.35V6ZM32.2 6H27.2V11.4H32.2H37.2V6H32.2ZM32.2 11.4V6.4H21.5V11.4V16.4H32.2V11.4ZM21.5 11.4H16.5V41H21.5H26.5V11.4H21.5ZM21.5 41V36H16.1V41V46H21.5V41ZM34.891 41H29.891V46H34.891V41ZM34.891 6V0.999998H29.891V6H34.891ZM59.141 6H64.141V0.999998H59.141V6ZM59.141 11.4V16.4H64.141V11.4H59.141ZM40.291 11.4V6.4H35.291V11.4H40.291ZM40.291 19.45H35.291V24.45H40.291V19.45ZM56.441 19.45H61.441V14.45H56.441V19.45ZM56.441 24.85V29.85H61.441V24.85H56.441ZM40.291 24.85V19.85H35.291V24.85H40.291ZM40.291 35.6H35.291V40.6H40.291V35.6ZM59.141 35.6H64.141V30.6H59.141V35.6ZM59.141 41V46H64.141V41H59.141ZM34.891 41H39.891V6H34.891H29.891V41H34.891ZM34.891 6V11H59.141V6V0.999998H34.891V6ZM59.141 6H54.141V11.4H59.141H64.141V6H59.141ZM59.141 11.4V6.4H40.291V11.4V16.4H59.141V11.4ZM40.291 11.4H35.291V19.45H40.291H45.291V11.4H40.291ZM40.291 19.45V24.45H56.441V19.45V14.45H40.291V19.45ZM56.441 19.45H51.441V24.85H56.441H61.441V19.45H56.441ZM56.441 24.85V19.85H40.291V24.85V29.85H56.441V24.85ZM40.291 24.85H35.291V35.6H40.291H45.291V24.85H40.291ZM40.291 35.6V40.6H59.141V35.6V30.6H40.291V35.6ZM59.141 35.6H54.141V41H59.141H64.141V35.6H59.141ZM59.141 41V36H34.891V41V46H59.141V41ZM61.8574 14.1V19.1H66.8574V14.1H61.8574ZM61.8574 8.7V3.7H56.8574V8.7H61.8574ZM64.5574 8.7V13.7H69.5574V8.7H64.5574ZM64.5574 6V0.999998H59.5574V6H64.5574ZM80.7574 6H85.7574V0.999998H80.7574V6ZM80.7574 8.7H75.7574V13.7H80.7574V8.7ZM83.4574 8.7H88.4574V3.7H83.4574V8.7ZM83.4574 14.1H78.4574V19.1H83.4574V14.1ZM86.1574 14.1H91.1574V9.1H86.1574V14.1ZM86.1574 19.45V24.45H91.1574V19.45H86.1574ZM80.7574 19.45H75.7574V24.45H80.7574V19.45ZM80.7574 16.75H85.7574V11.75H80.7574V16.75ZM78.0574 16.75H73.0574V21.75H78.0574V16.75ZM78.0574 11.4H83.0574V6.4H78.0574V11.4ZM67.2574 11.4V6.4H62.2574V11.4H67.2574ZM67.2574 16.75V21.75H72.2574V16.75H67.2574ZM64.5574 16.75V11.75H59.5574V16.75H64.5574ZM64.5574 30.2H59.5574V35.2H64.5574V30.2ZM67.2574 30.2H72.2574V25.2H67.2574V30.2ZM67.2574 35.6H62.2574V40.6H67.2574V35.6ZM78.0574 35.6V40.6H83.0574V35.6H78.0574ZM78.0574 30.25V25.25H73.0574V30.25H78.0574ZM80.7574 30.25V35.25H85.7574V30.25H80.7574ZM80.7574 27.55V22.55H75.7574V27.55H80.7574ZM86.1574 27.55H91.1574V22.55H86.1574V27.55ZM86.1574 32.9V37.9H91.1574V32.9H86.1574ZM83.4574 32.9V27.9H78.4574V32.9H83.4574ZM83.4574 38.3V43.3H88.4574V38.3H83.4574ZM80.7574 38.3V33.3H75.7574V38.3H80.7574ZM80.7574 41V46H85.7574V41H80.7574ZM64.6074 41H59.6074V46H64.6074V41ZM64.6074 38.3H69.6074V33.3H64.6074V38.3ZM61.8574 38.3H56.8574V43.3H61.8574V38.3ZM61.8574 32.9H66.8574V27.9H61.8574V32.9ZM59.2074 32.9H54.2074V37.9H59.2074V32.9ZM59.2074 14.1V9.1H54.2074V14.1H59.2074ZM61.8574 14.1H66.8574V8.7H61.8574H56.8574V14.1H61.8574ZM61.8574 8.7V13.7H64.5574V8.7V3.7H61.8574V8.7ZM64.5574 8.7H69.5574V6H64.5574H59.5574V8.7H64.5574ZM64.5574 6V11H80.7574V6V0.999998H64.5574V6ZM80.7574 6H75.7574V8.7H80.7574H85.7574V6H80.7574ZM80.7574 8.7V13.7H83.4574V8.7V3.7H80.7574V8.7ZM83.4574 8.7H78.4574V14.1H83.4574H88.4574V8.7H83.4574ZM83.4574 14.1V19.1H86.1574V14.1V9.1H83.4574V14.1ZM86.1574 14.1H81.1574V19.45H86.1574H91.1574V14.1H86.1574ZM86.1574 19.45V14.45H80.7574V19.45V24.45H86.1574V19.45ZM80.7574 19.45H85.7574V16.75H80.7574H75.7574V19.45H80.7574ZM80.7574 16.75V11.75H78.0574V16.75V21.75H80.7574V16.75ZM78.0574 16.75H83.0574V11.4H78.0574H73.0574V16.75H78.0574ZM78.0574 11.4V6.4H67.2574V11.4V16.4H78.0574V11.4ZM67.2574 11.4H62.2574V16.75H67.2574H72.2574V11.4H67.2574ZM67.2574 16.75V11.75H64.5574V16.75V21.75H67.2574V16.75ZM64.5574 16.75H59.5574V30.2H64.5574H69.5574V16.75H64.5574ZM64.5574 30.2V35.2H67.2574V30.2V25.2H64.5574V30.2ZM67.2574 30.2H62.2574V35.6H67.2574H72.2574V30.2H67.2574ZM67.2574 35.6V40.6H78.0574V35.6V30.6H67.2574V35.6ZM78.0574 35.6H83.0574V30.25H78.0574H73.0574V35.6H78.0574ZM78.0574 30.25V35.25H80.7574V30.25V25.25H78.0574V30.25ZM80.7574 30.25H85.7574V27.55H80.7574H75.7574V30.25H80.7574ZM80.7574 27.55V32.55H86.1574V27.55V22.55H80.7574V27.55ZM86.1574 27.55H81.1574V32.9H86.1574H91.1574V27.55H86.1574ZM86.1574 32.9V27.9H83.4574V32.9V37.9H86.1574V32.9ZM83.4574 32.9H78.4574V38.3H83.4574H88.4574V32.9H83.4574ZM83.4574 38.3V33.3H80.7574V38.3V43.3H83.4574V38.3ZM80.7574 38.3H75.7574V41H80.7574H85.7574V38.3H80.7574ZM80.7574 41V36H64.6074V41V46H80.7574V41ZM64.6074 41H69.6074V38.3H64.6074H59.6074V41H64.6074ZM64.6074 38.3V33.3H61.8574V38.3V43.3H64.6074V38.3ZM61.8574 38.3H66.8574V32.9H61.8574H56.8574V38.3H61.8574ZM61.8574 32.9V27.9H59.2074V32.9V37.9H61.8574V32.9ZM59.2074 32.9H64.2074V14.1H59.2074H54.2074V32.9H59.2074ZM59.2074 14.1V19.1H61.8574V14.1V9.1H59.2074V14.1ZM88.8461 41H83.8461V46H88.8461V41ZM88.8461 6V0.999998H83.8461V6H88.8461ZM94.1461 6H99.1461V0.999998H94.1461V6ZM94.1461 22.15H89.1461V27.15H94.1461V22.15ZM107.646 22.15V27.15H112.646V22.15H107.646ZM107.646 6V0.999998H102.646V6H107.646ZM113.046 6H118.046V0.999998H113.046V6ZM113.046 41V46H118.046V41H113.046ZM107.646 41H102.646V46H107.646V41ZM107.646 27.55H112.646V22.55H107.646V27.55ZM94.1461 27.55V22.55H89.1461V27.55H94.1461ZM94.1461 41V46H99.1461V41H94.1461ZM88.8461 41H93.8461V6H88.8461H83.8461V41H88.8461ZM88.8461 6V11H94.1461V6V0.999998H88.8461V6ZM94.1461 6H89.1461V22.15H94.1461H99.1461V6H94.1461ZM94.1461 22.15V27.15H107.646V22.15V17.15H94.1461V22.15ZM107.646 22.15H112.646V6H107.646H102.646V22.15H107.646ZM107.646 6V11H113.046V6V0.999998H107.646V6ZM113.046 6H108.046V41H113.046H118.046V6H113.046ZM113.046 41V36H107.646V41V46H113.046V41ZM107.646 41H112.646V27.55H107.646H102.646V41H107.646ZM107.646 27.55V22.55H94.1461V27.55V32.55H107.646V27.55ZM94.1461 27.55H89.1461V41H94.1461H99.1461V27.55H94.1461ZM94.1461 41V36H88.8461V41V46H94.1461V41ZM115.75 41H110.75V46H115.75V41ZM115.75 6V0.999998H110.75V6H115.75ZM121.15 6H126.15V0.999998H121.15V6ZM121.15 35.6H116.15V40.6H121.15V35.6ZM137.3 35.6H142.3V30.6H137.3V35.6ZM137.3 41V46H142.3V41H137.3ZM115.75 41H120.75V6H115.75H110.75V41H115.75ZM115.75 6V11H121.15V6V0.999998H115.75V6ZM121.15 6H116.15V35.6H121.15H126.15V6H121.15ZM121.15 35.6V40.6H137.3V35.6V30.6H121.15V35.6ZM137.3 35.6H132.3V41H137.3H142.3V35.6H137.3ZM137.3 41V36H115.75V41V46H137.3V41ZM140.018 41H135.018V46H140.018V41ZM140.018 6V0.999998H135.018V6H140.018ZM164.268 6H169.268V0.999998H164.268V6ZM164.268 11.4V16.4H169.268V11.4H164.268ZM145.418 11.4V6.4H140.418V11.4H145.418ZM145.418 19.45H140.418V24.45H145.418V19.45ZM161.568 19.45H166.568V14.45H161.568V19.45ZM161.568 24.85V29.85H166.568V24.85H161.568ZM145.418 24.85V19.85H140.418V24.85H145.418ZM145.418 35.6H140.418V40.6H145.418V35.6ZM164.268 35.6H169.268V30.6H164.268V35.6ZM164.268 41V46H169.268V41H164.268ZM140.018 41H145.018V6H140.018H135.018V41H140.018ZM140.018 6V11H164.268V6V0.999998H140.018V6ZM164.268 6H159.268V11.4H164.268H169.268V6H164.268ZM164.268 11.4V6.4H145.418V11.4V16.4H164.268V11.4ZM145.418 11.4H140.418V19.45H145.418H150.418V11.4H145.418ZM145.418 19.45V24.45H161.568V19.45V14.45H145.418V19.45ZM161.568 19.45H156.568V24.85H161.568H166.568V19.45H161.568ZM161.568 24.85V19.85H145.418V24.85V29.85H161.568V24.85ZM145.418 24.85H140.418V35.6H145.418H150.418V24.85H145.418ZM145.418 35.6V40.6H164.268V35.6V30.6H145.418V35.6ZM164.268 35.6H159.268V41H164.268H169.268V35.6H164.268ZM164.268 41V36H140.018V41V46H164.268V41ZM166.984 14.1V19.1H171.984V14.1H166.984ZM166.984 8.7V3.7H161.984V8.7H166.984ZM169.684 8.7V13.7H174.684V8.7H169.684ZM169.684 6V0.999998H164.684V6H169.684ZM185.884 6H190.884V0.999998H185.884V6ZM185.884 8.7H180.884V13.7H185.884V8.7ZM188.584 8.7H193.584V3.7H188.584V8.7ZM188.584 14.1H183.584V19.1H188.584V14.1ZM191.284 14.1H196.284V9.1H191.284V14.1ZM191.284 19.45V24.45H196.284V19.45H191.284ZM185.884 19.45H180.884V24.45H185.884V19.45ZM185.884 16.75H190.884V11.75H185.884V16.75ZM183.184 16.75H178.184V21.75H183.184V16.75ZM183.184 11.4H188.184V6.4H183.184V11.4ZM172.384 11.4V6.4H167.384V11.4H172.384ZM172.384 16.75V21.75H177.384V16.75H172.384ZM169.684 16.75V11.75H164.684V16.75H169.684ZM169.684 30.2H164.684V35.2H169.684V30.2ZM172.384 30.2H177.384V25.2H172.384V30.2ZM172.384 35.6H167.384V40.6H172.384V35.6ZM183.184 35.6V40.6H188.184V35.6H183.184ZM183.184 30.25V25.25H178.184V30.25H183.184ZM185.884 30.25V35.25H190.884V30.25H185.884ZM185.884 27.55V22.55H180.884V27.55H185.884ZM191.284 27.55H196.284V22.55H191.284V27.55ZM191.284 32.9V37.9H196.284V32.9H191.284ZM188.584 32.9V27.9H183.584V32.9H188.584ZM188.584 38.3V43.3H193.584V38.3H188.584ZM185.884 38.3V33.3H180.884V38.3H185.884ZM185.884 41V46H190.884V41H185.884ZM169.734 41H164.734V46H169.734V41ZM169.734 38.3H174.734V33.3H169.734V38.3ZM166.984 38.3H161.984V43.3H166.984V38.3ZM166.984 32.9H171.984V27.9H166.984V32.9ZM164.334 32.9H159.334V37.9H164.334V32.9ZM164.334 14.1V9.1H159.334V14.1H164.334ZM166.984 14.1H171.984V8.7H166.984H161.984V14.1H166.984ZM166.984 8.7V13.7H169.684V8.7V3.7H166.984V8.7ZM169.684 8.7H174.684V6H169.684H164.684V8.7H169.684ZM169.684 6V11H185.884V6V0.999998H169.684V6ZM185.884 6H180.884V8.7H185.884H190.884V6H185.884ZM185.884 8.7V13.7H188.584V8.7V3.7H185.884V8.7ZM188.584 8.7H183.584V14.1H188.584H193.584V8.7H188.584ZM188.584 14.1V19.1H191.284V14.1V9.1H188.584V14.1ZM191.284 14.1H186.284V19.45H191.284H196.284V14.1H191.284ZM191.284 19.45V14.45H185.884V19.45V24.45H191.284V19.45ZM185.884 19.45H190.884V16.75H185.884H180.884V19.45H185.884ZM185.884 16.75V11.75H183.184V16.75V21.75H185.884V16.75ZM183.184 16.75H188.184V11.4H183.184H178.184V16.75H183.184ZM183.184 11.4V6.4H172.384V11.4V16.4H183.184V11.4ZM172.384 11.4H167.384V16.75H172.384H177.384V11.4H172.384ZM172.384 16.75V11.75H169.684V16.75V21.75H172.384V16.75ZM169.684 16.75H164.684V30.2H169.684H174.684V16.75H169.684ZM169.684 30.2V35.2H172.384V30.2V25.2H169.684V30.2ZM172.384 30.2H167.384V35.6H172.384H177.384V30.2H172.384ZM172.384 35.6V40.6H183.184V35.6V30.6H172.384V35.6ZM183.184 35.6H188.184V30.25H183.184H178.184V35.6H183.184ZM183.184 30.25V35.25H185.884V30.25V25.25H183.184V30.25ZM185.884 30.25H190.884V27.55H185.884H180.884V30.25H185.884ZM185.884 27.55V32.55H191.284V27.55V22.55H185.884V27.55ZM191.284 27.55H186.284V32.9H191.284H196.284V27.55H191.284ZM191.284 32.9V27.9H188.584V32.9V37.9H191.284V32.9ZM188.584 32.9H183.584V38.3H188.584H193.584V32.9H188.584ZM188.584 38.3V33.3H185.884V38.3V43.3H188.584V38.3ZM185.884 38.3H180.884V41H185.884H190.884V38.3H185.884ZM185.884 41V36H169.734V41V46H185.884V41ZM169.734 41H174.734V38.3H169.734H164.734V41H169.734ZM169.734 38.3V33.3H166.984V38.3V43.3H169.734V38.3ZM166.984 38.3H171.984V32.9H166.984H161.984V38.3H166.984ZM166.984 32.9V27.9H164.334V32.9V37.9H166.984V32.9ZM164.334 32.9H169.334V14.1H164.334H159.334V32.9H164.334ZM164.334 14.1V19.1H166.984V14.1V9.1H164.334V14.1ZM202.086 41H197.086V46H202.086V41ZM202.086 11.4H207.086V6.4H202.086V11.4ZM191.336 11.4H186.336V16.4H191.336V11.4ZM191.336 6V0.999998H186.336V6H191.336ZM218.186 6H223.186V0.999998H218.186V6ZM218.186 11.4V16.4H223.186V11.4H218.186ZM207.486 11.4V6.4H202.486V11.4H207.486ZM207.486 41V46H212.486V41H207.486ZM202.086 41H207.086V11.4H202.086H197.086V41H202.086ZM202.086 11.4V6.4H191.336V11.4V16.4H202.086V11.4ZM191.336 11.4H196.336V6H191.336H186.336V11.4H191.336ZM191.336 6V11H218.186V6V0.999998H191.336V6ZM218.186 6H213.186V11.4H218.186H223.186V6H218.186ZM218.186 11.4V6.4H207.486V11.4V16.4H218.186V11.4ZM207.486 11.4H202.486V41H207.486H212.486V11.4H207.486ZM207.486 41V36H202.086V41V46H207.486V41ZM220.877 41H215.877V46H220.877V41ZM220.877 6V0.999998H215.877V6H220.877ZM226.277 6H231.277V0.999998H226.277V6ZM226.277 41V46H231.277V41H226.277ZM220.877 41H225.877V6H220.877H215.877V41H220.877ZM220.877 6V11H226.277V6V0.999998H220.877V6ZM226.277 6H221.277V41H226.277H231.277V6H226.277ZM226.277 41V36H220.877V41V46H226.277V41ZM231.633 14.1V19.1H236.633V14.1H231.633ZM231.633 8.7V3.7H226.633V8.7H231.633ZM234.333 8.7V13.7H239.333V8.7H234.333ZM234.333 6V0.999998H229.333V6H234.333ZM250.533 6H255.533V0.999998H250.533V6ZM250.533 8.7H245.533V13.7H250.533V8.7ZM253.233 8.7H258.233V3.7H253.233V8.7ZM253.233 14.1H248.233V19.1H253.233V14.1ZM255.933 14.1H260.933V9.1H255.933V14.1ZM255.933 19.45V24.45H260.933V19.45H255.933ZM250.533 19.45H245.533V24.45H250.533V19.45ZM250.533 16.75H255.533V11.75H250.533V16.75ZM247.833 16.75H242.833V21.75H247.833V16.75ZM247.833 11.4H252.833V6.4H247.833V11.4ZM237.033 11.4V6.4H232.033V11.4H237.033ZM237.033 16.75V21.75H242.033V16.75H237.033ZM234.333 16.75V11.75H229.333V16.75H234.333ZM234.333 30.2H229.333V35.2H234.333V30.2ZM237.033 30.2H242.033V25.2H237.033V30.2ZM237.033 35.6H232.033V40.6H237.033V35.6ZM247.833 35.6V40.6H252.833V35.6H247.833ZM247.833 30.25V25.25H242.833V30.25H247.833ZM250.533 30.25V35.25H255.533V30.25H250.533ZM250.533 27.55V22.55H245.533V27.55H250.533ZM255.933 27.55H260.933V22.55H255.933V27.55ZM255.933 32.9V37.9H260.933V32.9H255.933ZM253.233 32.9V27.9H248.233V32.9H253.233ZM253.233 38.3V43.3H258.233V38.3H253.233ZM250.533 38.3V33.3H245.533V38.3H250.533ZM250.533 41V46H255.533V41H250.533ZM234.383 41H229.383V46H234.383V41ZM234.383 38.3H239.383V33.3H234.383V38.3ZM231.633 38.3H226.633V43.3H231.633V38.3ZM231.633 32.9H236.633V27.9H231.633V32.9ZM228.983 32.9H223.983V37.9H228.983V32.9ZM228.983 14.1V9.1H223.983V14.1H228.983ZM231.633 14.1H236.633V8.7H231.633H226.633V14.1H231.633ZM231.633 8.7V13.7H234.333V8.7V3.7H231.633V8.7ZM234.333 8.7H239.333V6H234.333H229.333V8.7H234.333ZM234.333 6V11H250.533V6V0.999998H234.333V6ZM250.533 6H245.533V8.7H250.533H255.533V6H250.533ZM250.533 8.7V13.7H253.233V8.7V3.7H250.533V8.7ZM253.233 8.7H248.233V14.1H253.233H258.233V8.7H253.233ZM253.233 14.1V19.1H255.933V14.1V9.1H253.233V14.1ZM255.933 14.1H250.933V19.45H255.933H260.933V14.1H255.933ZM255.933 19.45V14.45H250.533V19.45V24.45H255.933V19.45ZM250.533 19.45H255.533V16.75H250.533H245.533V19.45H250.533ZM250.533 16.75V11.75H247.833V16.75V21.75H250.533V16.75ZM247.833 16.75H252.833V11.4H247.833H242.833V16.75H247.833ZM247.833 11.4V6.4H237.033V11.4V16.4H247.833V11.4ZM237.033 11.4H232.033V16.75H237.033H242.033V11.4H237.033ZM237.033 16.75V11.75H234.333V16.75V21.75H237.033V16.75ZM234.333 16.75H229.333V30.2H234.333H239.333V16.75H234.333ZM234.333 30.2V35.2H237.033V30.2V25.2H234.333V30.2ZM237.033 30.2H232.033V35.6H237.033H242.033V30.2H237.033ZM237.033 35.6V40.6H247.833V35.6V30.6H237.033V35.6ZM247.833 35.6H252.833V30.25H247.833H242.833V35.6H247.833ZM247.833 30.25V35.25H250.533V30.25V25.25H247.833V30.25ZM250.533 30.25H255.533V27.55H250.533H245.533V30.25H250.533ZM250.533 27.55V32.55H255.933V27.55V22.55H250.533V27.55ZM255.933 27.55H250.933V32.9H255.933H260.933V27.55H255.933ZM255.933 32.9V27.9H253.233V32.9V37.9H255.933V32.9ZM253.233 32.9H248.233V38.3H253.233H258.233V32.9H253.233ZM253.233 38.3V33.3H250.533V38.3V43.3H253.233V38.3ZM250.533 38.3H245.533V41H250.533H255.533V38.3H250.533ZM250.533 41V36H234.383V41V46H250.533V41ZM234.383 41H239.383V38.3H234.383H229.383V41H234.383ZM234.383 38.3V33.3H231.633V38.3V43.3H234.383V38.3ZM231.633 38.3H236.633V32.9H231.633H226.633V38.3H231.633ZM231.633 32.9V27.9H228.983V32.9V37.9H231.633V32.9ZM228.983 32.9H233.983V14.1H228.983H223.983V32.9H228.983ZM228.983 14.1V19.1H231.633V14.1V9.1H228.983V14.1ZM272.862 17L268.011 15.7873L267.49 17.8717L268.643 19.6844L272.862 17ZM274.012 13.2L269.292 11.5482V11.5482L274.012 13.2ZM275.512 9.15L270.893 7.23492L270.873 7.2834L270.854 7.33229L275.512 9.15ZM277.162 5.3V0.299998H273.912L272.593 3.26931L277.162 5.3ZM282.512 5.3L287.384 6.42429L288.797 0.299998H282.512V5.3ZM281.562 9.45L276.686 8.34189L276.674 8.39483L276.663 8.44802L281.562 9.45ZM280.712 13.75L285.619 14.7076L285.621 14.6966L285.623 14.6856L280.712 13.75ZM280.062 17.55V22.55H284.398L285.011 18.2571L280.062 17.55ZM273.212 17.55L268.993 20.2344L270.467 22.55H273.212V17.55ZM272.862 17L277.712 18.2127C277.971 17.18 278.308 16.0606 278.731 14.8517L274.012 13.2L269.292 11.5482C268.782 13.0061 268.353 14.42 268.011 15.7873L272.862 17ZM274.012 13.2L278.731 14.8518C279.177 13.5762 279.657 12.2815 280.17 10.9677L275.512 9.15L270.854 7.33229C270.3 8.75181 269.779 10.1571 269.292 11.5482L274.012 13.2ZM275.512 9.15L280.13 11.0651C280.683 9.7324 281.216 8.48793 281.731 7.33069L277.162 5.3L272.593 3.26931C272.04 4.51207 271.474 5.83426 270.893 7.23492L275.512 9.15ZM277.162 5.3V10.3H282.512V5.3V0.299998H277.162V5.3ZM282.512 5.3L277.64 4.1757C277.338 5.48172 277.02 6.87049 276.686 8.34189L281.562 9.45L286.437 10.5581C286.77 9.09617 287.085 7.71827 287.384 6.42429L282.512 5.3ZM281.562 9.45L276.663 8.44802C276.359 9.93569 276.071 11.3912 275.8 12.8144L280.712 13.75L285.623 14.6856C285.886 13.3088 286.165 11.8976 286.46 10.452L281.562 9.45ZM280.712 13.75L275.804 12.7924C275.524 14.2278 275.293 15.579 275.112 16.8429L280.062 17.55L285.011 18.2571C285.164 17.1876 285.366 16.0055 285.619 14.7076L280.712 13.75ZM280.062 17.55V12.55H273.212V17.55V22.55H280.062V17.55ZM273.212 17.55L277.43 14.8656L277.08 14.3156L272.862 17L268.643 19.6844L268.993 20.2344L273.212 17.55ZM287.102 11.4V16.4H292.102V11.4H287.102ZM287.102 8.7V3.7H282.102V8.7H287.102ZM289.802 8.7V13.7H294.802V8.7H289.802ZM289.802 6V0.999998H284.802V6H289.802ZM306.002 6H311.002V0.999998H306.002V6ZM306.002 8.7H301.002V13.7H306.002V8.7ZM308.652 8.7H313.652V3.7H308.652V8.7ZM308.652 11.4H303.652V16.4H308.652V11.4ZM311.352 11.4H316.352V6.4H311.352V11.4ZM311.352 19.45V24.45H316.352V19.45H311.352ZM308.652 19.45V14.45H303.652V19.45H308.652ZM308.652 22.15V27.15H313.652V22.15H308.652ZM306.002 22.15V17.15H301.002V22.15H306.002ZM306.002 24.85V29.85H311.002V24.85H306.002ZM303.302 24.85V19.85H298.302V24.85H303.302ZM303.302 27.55V32.55H308.302V27.55H303.302ZM300.602 27.55V22.55H295.602V27.55H300.602ZM300.602 30.25V35.25H305.602V30.25H300.602ZM297.902 30.25V25.25H292.902V30.25H297.902ZM297.902 32.9V37.9H302.902V32.9H297.902ZM295.202 32.9V27.9H290.202V32.9H295.202ZM295.202 35.6H290.202V40.6H295.202V35.6ZM311.352 35.6H316.352V30.6H311.352V35.6ZM311.352 41V46H316.352V41H311.352ZM284.452 41H279.452V46H284.452V41ZM284.452 35.6V30.6H279.452V35.6H284.452ZM287.102 35.6V40.6H292.102V35.6H287.102ZM287.102 32.9V27.9H282.102V32.9H287.102ZM289.802 32.9V37.9H294.802V32.9H289.802ZM289.802 30.2V25.2H284.802V30.2H289.802ZM292.502 30.2V35.2H297.502V30.2H292.502ZM292.502 27.55V22.55H287.502V27.55H292.502ZM295.202 27.55V32.55H300.202V27.55H295.202ZM295.202 24.85V19.85H290.202V24.85H295.202ZM297.902 24.85V29.85H302.902V24.85H297.902ZM297.902 22.15V17.15H292.902V22.15H297.902ZM300.602 22.15V27.15H305.602V22.15H300.602ZM300.602 19.45V14.45H295.602V19.45H300.602ZM303.302 19.45V24.45H308.302V19.45H303.302ZM303.302 16.75V11.75H298.302V16.75H303.302ZM305.952 16.75V21.75H310.952V16.75H305.952ZM305.952 14.1H310.952V9.1H305.952V14.1ZM303.302 14.1H298.302V19.1H303.302V14.1ZM303.302 11.4H308.302V6.4H303.302V11.4ZM292.452 11.4V6.4H287.452V11.4H292.452ZM292.452 14.1V19.1H297.452V14.1H292.452ZM289.752 14.1V9.1H284.752V14.1H289.752ZM289.752 19.45V24.45H294.752V19.45H289.752ZM284.452 19.45H279.452V24.45H284.452V19.45ZM284.452 11.4V6.4H279.452V11.4H284.452ZM287.102 11.4H292.102V8.7H287.102H282.102V11.4H287.102ZM287.102 8.7V13.7H289.802V8.7V3.7H287.102V8.7ZM289.802 8.7H294.802V6H289.802H284.802V8.7H289.802ZM289.802 6V11H306.002V6V0.999998H289.802V6ZM306.002 6H301.002V8.7H306.002H311.002V6H306.002ZM306.002 8.7V13.7H308.652V8.7V3.7H306.002V8.7ZM308.652 8.7H303.652V11.4H308.652H313.652V8.7H308.652ZM308.652 11.4V16.4H311.352V11.4V6.4H308.652V11.4ZM311.352 11.4H306.352V19.45H311.352H316.352V11.4H311.352ZM311.352 19.45V14.45H308.652V19.45V24.45H311.352V19.45ZM308.652 19.45H303.652V22.15H308.652H313.652V19.45H308.652ZM308.652 22.15V17.15H306.002V22.15V27.15H308.652V22.15ZM306.002 22.15H301.002V24.85H306.002H311.002V22.15H306.002ZM306.002 24.85V19.85H303.302V24.85V29.85H306.002V24.85ZM303.302 24.85H298.302V27.55H303.302H308.302V24.85H303.302ZM303.302 27.55V22.55H300.602V27.55V32.55H303.302V27.55ZM300.602 27.55H295.602V30.25H300.602H305.602V27.55H300.602ZM300.602 30.25V25.25H297.902V30.25V35.25H300.602V30.25ZM297.902 30.25H292.902V32.9H297.902H302.902V30.25H297.902ZM297.902 32.9V27.9H295.202V32.9V37.9H297.902V32.9ZM295.202 32.9H290.202V35.6H295.202H300.202V32.9H295.202ZM295.202 35.6V40.6H311.352V35.6V30.6H295.202V35.6ZM311.352 35.6H306.352V41H311.352H316.352V35.6H311.352ZM311.352 41V36H284.452V41V46H311.352V41ZM284.452 41H289.452V35.6H284.452H279.452V41H284.452ZM284.452 35.6V40.6H287.102V35.6V30.6H284.452V35.6ZM287.102 35.6H292.102V32.9H287.102H282.102V35.6H287.102ZM287.102 32.9V37.9H289.802V32.9V27.9H287.102V32.9ZM289.802 32.9H294.802V30.2H289.802H284.802V32.9H289.802ZM289.802 30.2V35.2H292.502V30.2V25.2H289.802V30.2ZM292.502 30.2H297.502V27.55H292.502H287.502V30.2H292.502ZM292.502 27.55V32.55H295.202V27.55V22.55H292.502V27.55ZM295.202 27.55H300.202V24.85H295.202H290.202V27.55H295.202ZM295.202 24.85V29.85H297.902V24.85V19.85H295.202V24.85ZM297.902 24.85H302.902V22.15H297.902H292.902V24.85H297.902ZM297.902 22.15V27.15H300.602V22.15V17.15H297.902V22.15ZM300.602 22.15H305.602V19.45H300.602H295.602V22.15H300.602ZM300.602 19.45V24.45H303.302V19.45V14.45H300.602V19.45ZM303.302 19.45H308.302V16.75H303.302H298.302V19.45H303.302ZM303.302 16.75V21.75H305.952V16.75V11.75H303.302V16.75ZM305.952 16.75H310.952V14.1H305.952H300.952V16.75H305.952ZM305.952 14.1V9.1H303.302V14.1V19.1H305.952V14.1ZM303.302 14.1H308.302V11.4H303.302H298.302V14.1H303.302ZM303.302 11.4V6.4H292.452V11.4V16.4H303.302V11.4ZM292.452 11.4H287.452V14.1H292.452H297.452V11.4H292.452ZM292.452 14.1V9.1H289.752V14.1V19.1H292.452V14.1ZM289.752 14.1H284.752V19.45H289.752H294.752V14.1H289.752ZM289.752 19.45V14.45H284.452V19.45V24.45H289.752V19.45ZM284.452 19.45H289.452V11.4H284.452H279.452V19.45H284.452ZM284.452 11.4V16.4H287.102V11.4V6.4H284.452V11.4ZM319.441 14.1V9.1H314.441V14.1H319.441ZM319.441 19.45H314.441V24.45H319.441V19.45ZM335.591 19.45H340.591V14.45H335.591V19.45ZM335.591 22.15H330.591V27.15H335.591V22.15ZM338.291 22.15H343.291V17.15H338.291V22.15ZM338.291 24.85H333.291V29.85H338.291V24.85ZM340.991 24.85H345.991V19.85H340.991V24.85ZM340.991 35.6V40.6H345.991V35.6H340.991ZM338.291 35.6V30.6H333.291V35.6H338.291ZM338.291 38.3V43.3H343.291V38.3H338.291ZM335.591 38.3V33.3H330.591V38.3H335.591ZM335.591 41V46H340.591V41H335.591ZM319.441 41H314.441V46H319.441V41ZM319.441 38.3H324.441V33.3H319.441V38.3ZM316.741 38.3H311.741V43.3H316.741V38.3ZM316.741 35.6H321.741V30.6H316.741V35.6ZM314.041 35.6H309.041V40.6H314.041V35.6ZM314.041 30.2V25.2H309.041V30.2H314.041ZM319.441 30.2H324.441V25.2H319.441V30.2ZM319.441 32.9H314.441V37.9H319.441V32.9ZM322.141 32.9H327.141V27.9H322.141V32.9ZM322.141 35.6H317.141V40.6H322.141V35.6ZM332.891 35.6V40.6H337.891V35.6H332.891ZM332.891 32.9V27.9H327.891V32.9H332.891ZM335.591 32.9V37.9H340.591V32.9H335.591ZM335.591 27.55H340.591V22.55H335.591V27.55ZM332.891 27.55H327.891V32.55H332.891V27.55ZM332.891 24.85H337.891V19.85H332.891V24.85ZM322.141 24.85V19.85H317.141V24.85H322.141ZM322.141 27.55V32.55H327.141V27.55H322.141ZM314.041 27.55H309.041V32.55H314.041V27.55ZM314.041 11.45V6.45H309.041V11.45H314.041ZM316.741 11.45V16.45H321.741V11.45H316.741ZM316.741 6V0.999998H311.741V6H316.741ZM338.291 6H343.291V0.999998H338.291V6ZM338.291 11.4V16.4H343.291V11.4H338.291ZM322.141 11.4V6.4H317.141V11.4H322.141ZM322.141 14.1V19.1H327.141V14.1H322.141ZM319.441 14.1H314.441V19.45H319.441H324.441V14.1H319.441ZM319.441 19.45V24.45H335.591V19.45V14.45H319.441V19.45ZM335.591 19.45H330.591V22.15H335.591H340.591V19.45H335.591ZM335.591 22.15V27.15H338.291V22.15V17.15H335.591V22.15ZM338.291 22.15H333.291V24.85H338.291H343.291V22.15H338.291ZM338.291 24.85V29.85H340.991V24.85V19.85H338.291V24.85ZM340.991 24.85H335.991V35.6H340.991H345.991V24.85H340.991ZM340.991 35.6V30.6H338.291V35.6V40.6H340.991V35.6ZM338.291 35.6H333.291V38.3H338.291H343.291V35.6H338.291ZM338.291 38.3V33.3H335.591V38.3V43.3H338.291V38.3ZM335.591 38.3H330.591V41H335.591H340.591V38.3H335.591ZM335.591 41V36H319.441V41V46H335.591V41ZM319.441 41H324.441V38.3H319.441H314.441V41H319.441ZM319.441 38.3V33.3H316.741V38.3V43.3H319.441V38.3ZM316.741 38.3H321.741V35.6H316.741H311.741V38.3H316.741ZM316.741 35.6V30.6H314.041V35.6V40.6H316.741V35.6ZM314.041 35.6H319.041V30.2H314.041H309.041V35.6H314.041ZM314.041 30.2V35.2H319.441V30.2V25.2H314.041V30.2ZM319.441 30.2H314.441V32.9H319.441H324.441V30.2H319.441ZM319.441 32.9V37.9H322.141V32.9V27.9H319.441V32.9ZM322.141 32.9H317.141V35.6H322.141H327.141V32.9H322.141ZM322.141 35.6V40.6H332.891V35.6V30.6H322.141V35.6ZM332.891 35.6H337.891V32.9H332.891H327.891V35.6H332.891ZM332.891 32.9V37.9H335.591V32.9V27.9H332.891V32.9ZM335.591 32.9H340.591V27.55H335.591H330.591V32.9H335.591ZM335.591 27.55V22.55H332.891V27.55V32.55H335.591V27.55ZM332.891 27.55H337.891V24.85H332.891H327.891V27.55H332.891ZM332.891 24.85V19.85H322.141V24.85V29.85H332.891V24.85ZM322.141 24.85H317.141V27.55H322.141H327.141V24.85H322.141ZM322.141 27.55V22.55H314.041V27.55V32.55H322.141V27.55ZM314.041 27.55H319.041V11.45H314.041H309.041V27.55H314.041ZM314.041 11.45V16.45H316.741V11.45V6.45H314.041V11.45ZM316.741 11.45H321.741V6H316.741H311.741V11.45H316.741ZM316.741 6V11H338.291V6V0.999998H316.741V6ZM338.291 6H333.291V11.4H338.291H343.291V6H338.291ZM338.291 11.4V6.4H322.141V11.4V16.4H338.291V11.4ZM322.141 11.4H317.141V14.1H322.141H327.141V11.4H322.141ZM322.141 14.1V9.1H319.441V14.1V19.1H322.141V14.1Z" fill="black" mask="url(#path-1-outside-1_111_200)"/>
</svg>
