<svg width="250" height="59" viewBox="0 0 250 59" fill="none" xmlns="http://www.w3.org/2000/svg">
<mask id="path-1-outside-1_264_597" maskUnits="userSpaceOnUse" x="0.459687" y="0.3604" width="246.477" height="53.8956" fill="black">
<rect fill="white" x="0.459687" y="0.3604" width="246.477" height="53.8956"/>
<path d="M7.26335 49.0644L5.98829 14.0876L11.3847 13.8909L12.6598 48.8677L7.26335 49.0644ZM15.3634 48.7691L14.0884 13.7923L19.4848 13.5956L20.5631 43.176L36.7024 42.5876L36.8991 47.984L15.3634 48.7691ZM39.6149 47.885L38.3398 12.9083L43.7363 12.7115L44.8146 42.2919L60.9539 41.7035L61.1506 47.1L39.6149 47.885ZM69.2128 46.8061L69.1145 44.1078L66.4662 44.2044L66.3679 41.5062L63.6697 41.6045L62.5913 12.0242L67.9877 11.8275L68.9677 38.7096L71.6659 38.6112L71.7643 41.3095L79.8089 41.0162L79.7106 38.318L82.3588 38.2214L81.3788 11.3393L86.7752 11.1426L87.8536 40.7229L85.1554 40.8213L85.2537 43.5195L82.6055 43.616L82.7039 46.3142L69.2128 46.8061ZM94.9725 13.5455L97.6707 13.4472L97.8675 18.8436L100.566 18.7452L100.761 24.0917L103.459 23.9933L103.655 29.3897L109.052 29.193L108.855 23.7966L111.553 23.6982L111.358 18.3518L114.057 18.2534L113.86 12.857L116.558 12.7586L116.46 10.0604L121.856 9.86371L123.131 44.8405L117.735 45.0372L116.95 23.5015L114.252 23.5999L114.448 28.9963L111.75 29.0946L111.947 34.4911L109.249 34.5894L109.442 39.8859L104.045 40.0826L103.852 34.7861L101.154 34.8845L100.957 29.4881L98.2591 29.5865L98.0624 24.19L95.3642 24.2884L96.1492 45.8241L90.7528 46.0208L89.4777 11.0441L94.8742 10.8473L94.9725 13.5455ZM125.837 44.7418L124.562 9.76508L129.958 9.56835L131.233 44.5451L125.837 44.7418ZM133.937 44.4466L132.662 9.46979L138.058 9.27307L138.157 11.9713L140.805 11.8747L141.002 17.2711L143.7 17.1728L143.796 19.821L146.495 19.7227L146.691 25.1191L149.39 25.0207L149.488 27.7189L152.186 27.6206L152.383 33.017L155.081 32.9186L154.983 30.2204L154.933 30.2222L154.148 8.68654L159.544 8.48981L160.819 43.4666L155.423 43.6633L155.324 40.9651L152.676 41.0616L152.578 38.3634L149.88 38.4618L149.783 35.8135L147.085 35.9119L146.888 30.5155L144.19 30.6139L144.092 27.9157L141.393 28.014L141.197 22.6176L138.548 22.7141L139.333 44.2498L133.937 44.4466ZM173.81 29.5341L184.553 29.1424L184.356 23.746L181.658 23.8444L181.365 15.7997L176.018 15.9946L176.312 24.0393L173.613 24.1377L173.81 29.5341ZM163.507 43.3686L163.212 35.274L165.91 35.1756L165.715 29.8292L168.414 29.7308L168.217 24.3344L170.915 24.236L170.622 16.1914L173.32 16.093L173.123 10.6966L175.822 10.5982L175.723 7.90001L181.12 7.70328L181.218 10.4015L183.866 10.305L184.063 15.7014L186.761 15.603L187.054 23.6477L189.753 23.5493L189.949 28.9457L192.648 28.8474L192.842 34.1938L195.541 34.0954L195.836 42.1901L190.439 42.3868L190.243 36.9904L187.544 37.0887L187.448 34.4405L171.309 35.0288L171.405 37.6771L168.707 37.7754L168.904 43.1719L163.507 43.3686ZM198.502 42.0929L197.423 12.5125L186.68 12.9042L186.484 7.50774L213.316 6.52958L213.513 11.926L202.82 12.3158L203.898 41.8962L198.502 42.0929ZM217.28 41.4083L216.005 6.43155L240.239 5.54811L240.436 10.9445L221.598 11.6312L221.891 19.6759L238.031 19.0875L238.227 24.484L222.088 25.0723L222.48 35.8152L241.317 35.1285L241.514 40.5249L217.28 41.4083Z"/>
</mask>
<path d="M7.26335 49.0644L5.98829 14.0876L11.3847 13.8909L12.6598 48.8677L7.26335 49.0644ZM15.3634 48.7691L14.0884 13.7923L19.4848 13.5956L20.5631 43.176L36.7024 42.5876L36.8991 47.984L15.3634 48.7691ZM39.6149 47.885L38.3398 12.9083L43.7363 12.7115L44.8146 42.2919L60.9539 41.7035L61.1506 47.1L39.6149 47.885ZM69.2128 46.8061L69.1145 44.1078L66.4662 44.2044L66.3679 41.5062L63.6697 41.6045L62.5913 12.0242L67.9877 11.8275L68.9677 38.7096L71.6659 38.6112L71.7643 41.3095L79.8089 41.0162L79.7106 38.318L82.3588 38.2214L81.3788 11.3393L86.7752 11.1426L87.8536 40.7229L85.1554 40.8213L85.2537 43.5195L82.6055 43.616L82.7039 46.3142L69.2128 46.8061ZM94.9725 13.5455L97.6707 13.4472L97.8675 18.8436L100.566 18.7452L100.761 24.0917L103.459 23.9933L103.655 29.3897L109.052 29.193L108.855 23.7966L111.553 23.6982L111.358 18.3518L114.057 18.2534L113.86 12.857L116.558 12.7586L116.46 10.0604L121.856 9.86371L123.131 44.8405L117.735 45.0372L116.95 23.5015L114.252 23.5999L114.448 28.9963L111.75 29.0946L111.947 34.4911L109.249 34.5894L109.442 39.8859L104.045 40.0826L103.852 34.7861L101.154 34.8845L100.957 29.4881L98.2591 29.5865L98.0624 24.19L95.3642 24.2884L96.1492 45.8241L90.7528 46.0208L89.4777 11.0441L94.8742 10.8473L94.9725 13.5455ZM125.837 44.7418L124.562 9.76508L129.958 9.56835L131.233 44.5451L125.837 44.7418ZM133.937 44.4466L132.662 9.46979L138.058 9.27307L138.157 11.9713L140.805 11.8747L141.002 17.2711L143.7 17.1728L143.796 19.821L146.495 19.7227L146.691 25.1191L149.39 25.0207L149.488 27.7189L152.186 27.6206L152.383 33.017L155.081 32.9186L154.983 30.2204L154.933 30.2222L154.148 8.68654L159.544 8.48981L160.819 43.4666L155.423 43.6633L155.324 40.9651L152.676 41.0616L152.578 38.3634L149.88 38.4618L149.783 35.8135L147.085 35.9119L146.888 30.5155L144.19 30.6139L144.092 27.9157L141.393 28.014L141.197 22.6176L138.548 22.7141L139.333 44.2498L133.937 44.4466ZM173.81 29.5341L184.553 29.1424L184.356 23.746L181.658 23.8444L181.365 15.7997L176.018 15.9946L176.312 24.0393L173.613 24.1377L173.81 29.5341ZM163.507 43.3686L163.212 35.274L165.91 35.1756L165.715 29.8292L168.414 29.7308L168.217 24.3344L170.915 24.236L170.622 16.1914L173.32 16.093L173.123 10.6966L175.822 10.5982L175.723 7.90001L181.12 7.70328L181.218 10.4015L183.866 10.305L184.063 15.7014L186.761 15.603L187.054 23.6477L189.753 23.5493L189.949 28.9457L192.648 28.8474L192.842 34.1938L195.541 34.0954L195.836 42.1901L190.439 42.3868L190.243 36.9904L187.544 37.0887L187.448 34.4405L171.309 35.0288L171.405 37.6771L168.707 37.7754L168.904 43.1719L163.507 43.3686ZM198.502 42.0929L197.423 12.5125L186.68 12.9042L186.484 7.50774L213.316 6.52958L213.513 11.926L202.82 12.3158L203.898 41.8962L198.502 42.0929ZM217.28 41.4083L216.005 6.43155L240.239 5.54811L240.436 10.9445L221.598 11.6312L221.891 19.6759L238.031 19.0875L238.227 24.484L222.088 25.0723L222.48 35.8152L241.317 35.1285L241.514 40.5249L217.28 41.4083Z" fill="white"/>
<path d="M7.26335 49.0644L2.26667 49.2466L2.44882 54.2432L7.4455 54.0611L7.26335 49.0644ZM5.98829 14.0876L5.80613 9.09095L0.809454 9.27311L0.991607 14.2698L5.98829 14.0876ZM11.3847 13.8909L16.3814 13.7088L16.1992 8.71208L11.2026 8.89423L11.3847 13.8909ZM12.6598 48.8677L12.8419 53.8644L17.8386 53.6822L17.6564 48.6855L12.6598 48.8677ZM7.26335 49.0644L12.26 48.8822L10.985 13.9055L5.98829 14.0876L0.991607 14.2698L2.26667 49.2466L7.26335 49.0644ZM5.98829 14.0876L6.17044 19.0843L11.5669 18.8876L11.3847 13.8909L11.2026 8.89423L5.80613 9.09095L5.98829 14.0876ZM11.3847 13.8909L6.38802 14.0731L7.66309 49.0498L12.6598 48.8677L17.6564 48.6855L16.3814 13.7088L11.3847 13.8909ZM12.6598 48.8677L12.4776 43.871L7.0812 44.0677L7.26335 49.0644L7.4455 54.0611L12.8419 53.8644L12.6598 48.8677ZM15.3634 48.7691L10.3668 48.9513L10.5489 53.9479L15.5456 53.7658L15.3634 48.7691ZM14.0884 13.7923L13.9062 8.79567L8.90954 8.97782L9.09169 13.9745L14.0884 13.7923ZM19.4848 13.5956L24.4815 13.4135L24.2993 8.41679L19.3026 8.59894L19.4848 13.5956ZM20.5631 43.176L15.5665 43.3581L15.7486 48.3548L20.7453 48.1727L20.5631 43.176ZM36.7024 42.5876L41.6991 42.4055L41.5169 37.4088L36.5203 37.5909L36.7024 42.5876ZM36.8991 47.984L37.0813 52.9807L42.078 52.7986L41.8958 47.8019L36.8991 47.984ZM15.3634 48.7691L20.3601 48.587L19.0851 13.6102L14.0884 13.7923L9.09169 13.9745L10.3668 48.9513L15.3634 48.7691ZM14.0884 13.7923L14.2705 18.789L19.6669 18.5923L19.4848 13.5956L19.3026 8.59894L13.9062 8.79567L14.0884 13.7923ZM19.4848 13.5956L14.4881 13.7778L15.5665 43.3581L20.5631 43.176L25.5598 42.9938L24.4815 13.4135L19.4848 13.5956ZM20.5631 43.176L20.7453 48.1727L36.8846 47.5843L36.7024 42.5876L36.5203 37.5909L20.381 38.1793L20.5631 43.176ZM36.7024 42.5876L31.7057 42.7698L31.9025 48.1662L36.8991 47.984L41.8958 47.8019L41.6991 42.4055L36.7024 42.5876ZM36.8991 47.984L36.717 42.9874L15.1813 43.7724L15.3634 48.7691L15.5456 53.7658L37.0813 52.9807L36.8991 47.984ZM39.6149 47.885L34.6182 48.0672L34.8004 53.0639L39.7971 52.8817L39.6149 47.885ZM38.3398 12.9083L38.1577 7.91159L33.161 8.09374L33.3432 13.0904L38.3398 12.9083ZM43.7363 12.7115L48.7329 12.5294L48.5508 7.53271L43.5541 7.71486L43.7363 12.7115ZM44.8146 42.2919L39.8179 42.474L40.0001 47.4707L44.9968 47.2886L44.8146 42.2919ZM60.9539 41.7035L65.9506 41.5214L65.7684 36.5247L60.7717 36.7069L60.9539 41.7035ZM61.1506 47.1L61.3328 52.0966L66.3294 51.9145L66.1473 46.9178L61.1506 47.1ZM39.6149 47.885L44.6116 47.7029L43.3365 12.7261L38.3398 12.9083L33.3432 13.0904L34.6182 48.0672L39.6149 47.885ZM38.3398 12.9083L38.522 17.905L43.9184 17.7082L43.7363 12.7115L43.5541 7.71486L38.1577 7.91159L38.3398 12.9083ZM43.7363 12.7115L38.7396 12.8937L39.8179 42.474L44.8146 42.2919L49.8113 42.1097L48.7329 12.5294L43.7363 12.7115ZM44.8146 42.2919L44.9968 47.2886L61.136 46.7002L60.9539 41.7035L60.7717 36.7069L44.6324 37.2952L44.8146 42.2919ZM60.9539 41.7035L55.9572 41.8857L56.1539 47.2821L61.1506 47.1L66.1473 46.9178L65.9506 41.5214L60.9539 41.7035ZM61.1506 47.1L60.9685 42.1033L39.4328 42.8884L39.6149 47.885L39.7971 52.8817L61.3328 52.0966L61.1506 47.1ZM69.2128 46.8061L64.2161 46.9882L64.3983 51.9849L69.395 51.8027L69.2128 46.8061ZM69.1145 44.1078L74.1111 43.9257L73.929 38.929L68.9323 39.1112L69.1145 44.1078ZM66.4662 44.2044L61.4695 44.3865L61.6517 49.3832L66.6484 49.2011L66.4662 44.2044ZM66.3679 41.5062L71.3645 41.324L71.1824 36.3273L66.1857 36.5095L66.3679 41.5062ZM63.6696 41.6045L58.673 41.7867L58.8551 46.7834L63.8518 46.6012L63.6696 41.6045ZM62.5913 12.0242L62.4092 7.02751L57.4125 7.20966L57.5946 12.2063L62.5913 12.0242ZM67.9877 11.8275L72.9844 11.6453L72.8023 6.64863L67.8056 6.83079L67.9877 11.8275ZM68.9677 38.7096L63.971 38.8918L64.1532 43.8884L69.1499 43.7063L68.9677 38.7096ZM71.6659 38.6112L76.6626 38.4291L76.4804 33.4324L71.4838 33.6146L71.6659 38.6112ZM71.7643 41.3095L66.7676 41.4916L66.9497 46.4883L71.9464 46.3061L71.7643 41.3095ZM79.8089 41.0162L79.9911 46.0129L84.9878 45.8307L84.8056 40.834L79.8089 41.0162ZM79.7106 38.318L79.5284 33.3213L74.5317 33.5035L74.7139 38.5001L79.7106 38.318ZM82.3588 38.2214L82.541 43.2181L87.5376 43.036L87.3555 38.0393L82.3588 38.2214ZM81.3788 11.3393L81.1967 6.34262L76.2 6.52477L76.3821 11.5215L81.3788 11.3393ZM86.7752 11.1426L91.7719 10.9604L91.5898 5.96374L86.5931 6.14589L86.7752 11.1426ZM87.8536 40.7229L88.0357 45.7196L93.0324 45.5375L92.8503 40.5408L87.8536 40.7229ZM85.1554 40.8213L84.9732 35.8246L79.9765 36.0068L80.1587 41.0034L85.1554 40.8213ZM85.2537 43.5195L85.4359 48.5162L90.4326 48.334L90.2504 43.3373L85.2537 43.5195ZM82.6055 43.616L82.4233 38.6194L77.4267 38.8015L77.6088 43.7982L82.6055 43.616ZM82.7039 46.3142L82.886 51.3109L87.8827 51.1288L87.7005 46.1321L82.7039 46.3142ZM69.2128 46.8061L74.2095 46.6239L74.1111 43.9257L69.1145 44.1078L64.1178 44.29L64.2161 46.9882L69.2128 46.8061ZM69.1145 44.1078L68.9323 39.1112L66.2841 39.2077L66.4662 44.2044L66.6484 49.2011L69.2966 49.1045L69.1145 44.1078ZM66.4662 44.2044L71.4629 44.0222L71.3645 41.324L66.3679 41.5062L61.3712 41.6883L61.4695 44.3865L66.4662 44.2044ZM66.3679 41.5062L66.1857 36.5095L63.4875 36.6079L63.6696 41.6045L63.8518 46.6012L66.55 46.5029L66.3679 41.5062ZM63.6696 41.6045L68.6663 41.4224L67.588 11.842L62.5913 12.0242L57.5946 12.2063L58.673 41.7867L63.6696 41.6045ZM62.5913 12.0242L62.7735 17.0209L68.1699 16.8241L67.9877 11.8275L67.8056 6.83079L62.4092 7.02751L62.5913 12.0242ZM67.9877 11.8275L62.991 12.0096L63.971 38.8918L68.9677 38.7096L73.9644 38.5275L72.9844 11.6453L67.9877 11.8275ZM68.9677 38.7096L69.1499 43.7063L71.8481 43.6079L71.6659 38.6112L71.4838 33.6146L68.7856 33.7129L68.9677 38.7096ZM71.6659 38.6112L66.6692 38.7934L66.7676 41.4916L71.7643 41.3095L76.761 41.1273L76.6626 38.4291L71.6659 38.6112ZM71.7643 41.3095L71.9464 46.3061L79.9911 46.0129L79.8089 41.0162L79.6268 36.0195L71.5821 36.3128L71.7643 41.3095ZM79.8089 41.0162L84.8056 40.834L84.7072 38.1358L79.7106 38.318L74.7139 38.5001L74.8122 41.1983L79.8089 41.0162ZM79.7106 38.318L79.8927 43.3147L82.541 43.2181L82.3588 38.2214L82.1767 33.2248L79.5284 33.3213L79.7106 38.318ZM82.3588 38.2214L87.3555 38.0393L86.3755 11.1571L81.3788 11.3393L76.3821 11.5215L77.3621 38.4036L82.3588 38.2214ZM81.3788 11.3393L81.561 16.336L86.9574 16.1393L86.7752 11.1426L86.5931 6.14589L81.1967 6.34262L81.3788 11.3393ZM86.7752 11.1426L81.7786 11.3247L82.8569 40.9051L87.8536 40.7229L92.8503 40.5408L91.7719 10.9604L86.7752 11.1426ZM87.8536 40.7229L87.6714 35.7262L84.9732 35.8246L85.1554 40.8213L85.3375 45.818L88.0357 45.7196L87.8536 40.7229ZM85.1554 40.8213L80.1587 41.0034L80.2571 43.7016L85.2537 43.5195L90.2504 43.3373L90.1521 40.6391L85.1554 40.8213ZM85.2537 43.5195L85.0716 38.5228L82.4233 38.6194L82.6055 43.616L82.7876 48.6127L85.4359 48.5162L85.2537 43.5195ZM82.6055 43.616L77.6088 43.7982L77.7072 46.4964L82.7039 46.3142L87.7005 46.1321L87.6022 43.4339L82.6055 43.616ZM82.7039 46.3142L82.5217 41.3176L69.0307 41.8094L69.2128 46.8061L69.395 51.8027L82.886 51.3109L82.7039 46.3142ZM94.9725 13.5455L89.9758 13.7277L90.158 18.7244L95.1547 18.5422L94.9725 13.5455ZM97.6707 13.4472L102.667 13.265L102.485 8.26834L97.4886 8.4505L97.6707 13.4472ZM97.8675 18.8436L92.8708 19.0257L93.0529 24.0224L98.0496 23.8403L97.8675 18.8436ZM100.566 18.7452L105.562 18.5631L105.38 13.5664L100.384 13.7485L100.566 18.7452ZM100.761 24.0917L95.7639 24.2738L95.946 29.2705L100.943 29.0884L100.761 24.0917ZM103.459 23.9933L108.455 23.8112L108.273 18.8145L103.277 18.9966L103.459 23.9933ZM103.655 29.3897L98.6588 29.5719L98.841 34.5686L103.838 34.3864L103.655 29.3897ZM109.052 29.193L109.234 34.1897L114.231 34.0075L114.049 29.0109L109.052 29.193ZM108.855 23.7966L108.673 18.7999L103.676 18.9821L103.859 23.9787L108.855 23.7966ZM111.553 23.6982L111.736 28.6949L116.732 28.5128L116.55 23.5161L111.553 23.6982ZM111.358 18.3518L111.176 13.3551L106.18 13.5373L106.362 18.5339L111.358 18.3518ZM114.057 18.2534L114.239 23.2501L119.236 23.0679L119.053 18.0713L114.057 18.2534ZM113.86 12.857L113.678 7.86032L108.681 8.04248L108.863 13.0392L113.86 12.857ZM116.558 12.7586L116.74 17.7553L121.737 17.5732L121.555 12.5765L116.558 12.7586ZM116.46 10.0604L116.278 5.06375L111.281 5.24591L111.463 10.2426L116.46 10.0604ZM121.856 9.86371L126.853 9.68156L126.671 4.68488L121.674 4.86703L121.856 9.86371ZM123.131 44.8405L123.313 49.8372L128.31 49.655L128.128 44.6583L123.131 44.8405ZM117.735 45.0372L112.738 45.2194L112.92 50.216L117.917 50.0339L117.735 45.0372ZM116.95 23.5015L121.946 23.3194L121.764 18.3227L116.768 18.5048L116.95 23.5015ZM114.252 23.5999L114.069 18.6032L109.073 18.7853L109.255 23.782L114.252 23.5999ZM114.448 28.9963L114.63 33.993L119.627 33.8108L119.445 28.8141L114.448 28.9963ZM111.75 29.0946L111.568 24.098L106.571 24.2801L106.753 29.2768L111.75 29.0946ZM111.947 34.4911L112.129 39.4877L117.126 39.3056L116.944 34.3089L111.947 34.4911ZM109.249 34.5894L109.066 29.5927L104.07 29.7749L104.252 34.7716L109.249 34.5894ZM109.442 39.8859L109.624 44.8826L114.621 44.7004L114.438 39.7038L109.442 39.8859ZM104.045 40.0826L99.0486 40.2648L99.2308 45.2615L104.227 45.0793L104.045 40.0826ZM103.852 34.7861L108.849 34.604L108.667 29.6073L103.67 29.7895L103.852 34.7861ZM101.154 34.8845L96.1573 35.0667L96.3395 40.0633L101.336 39.8812L101.154 34.8845ZM100.957 29.4881L105.954 29.3059L105.772 24.3093L100.775 24.4914L100.957 29.4881ZM98.2591 29.5865L93.2624 29.7686L93.4446 34.7653L98.4412 34.5831L98.2591 29.5865ZM98.0624 24.19L103.059 24.0079L102.877 19.0112L97.8802 19.1934L98.0624 24.19ZM95.3642 24.2884L95.182 19.2917L90.1853 19.4739L90.3675 24.4706L95.3642 24.2884ZM96.1492 45.8241L96.3314 50.8208L101.328 50.6386L101.146 45.6419L96.1492 45.8241ZM90.7528 46.0208L85.7561 46.203L85.9383 51.1997L90.935 51.0175L90.7528 46.0208ZM89.4777 11.0441L89.2956 6.04737L84.2989 6.22953L84.4811 11.2262L89.4777 11.0441ZM94.8742 10.8473L99.8708 10.6652L99.6887 5.6685L94.692 5.85065L94.8742 10.8473ZM94.9725 13.5455L95.1547 18.5422L97.8529 18.4439L97.6707 13.4472L97.4886 8.4505L94.7904 8.54886L94.9725 13.5455ZM97.6707 13.4472L92.674 13.6293L92.8708 19.0257L97.8675 18.8436L102.864 18.6614L102.667 13.265L97.6707 13.4472ZM97.8675 18.8436L98.0496 23.8403L100.748 23.7419L100.566 18.7452L100.384 13.7485L97.6853 13.8469L97.8675 18.8436ZM100.566 18.7452L95.569 18.9274L95.7639 24.2738L100.761 24.0917L105.757 23.9095L105.562 18.5631L100.566 18.7452ZM100.761 24.0917L100.943 29.0884L103.641 28.99L103.459 23.9933L103.277 18.9966L100.578 19.095L100.761 24.0917ZM103.459 23.9933L98.4621 24.1755L98.6588 29.5719L103.655 29.3897L108.652 29.2076L108.455 23.8112L103.459 23.9933ZM103.655 29.3897L103.838 34.3864L109.234 34.1897L109.052 29.193L108.87 24.1963L103.473 24.3931L103.655 29.3897ZM109.052 29.193L114.049 29.0109L113.852 23.6144L108.855 23.7966L103.859 23.9787L104.055 29.3752L109.052 29.193ZM108.855 23.7966L109.037 28.7933L111.736 28.6949L111.553 23.6982L111.371 18.7015L108.673 18.7999L108.855 23.7966ZM111.553 23.6982L116.55 23.5161L116.355 18.1696L111.358 18.3518L106.362 18.5339L106.557 23.8804L111.553 23.6982ZM111.358 18.3518L111.541 23.3485L114.239 23.2501L114.057 18.2534L113.875 13.2567L111.176 13.3551L111.358 18.3518ZM114.057 18.2534L119.053 18.0713L118.857 12.6749L113.86 12.857L108.863 13.0392L109.06 18.4356L114.057 18.2534ZM113.86 12.857L114.042 17.8537L116.74 17.7553L116.558 12.7586L116.376 7.76196L113.678 7.86032L113.86 12.857ZM116.558 12.7586L121.555 12.5765L121.456 9.87828L116.46 10.0604L111.463 10.2426L111.562 12.9408L116.558 12.7586ZM116.46 10.0604L116.642 15.0571L122.038 14.8604L121.856 9.86371L121.674 4.86703L116.278 5.06375L116.46 10.0604ZM121.856 9.86371L116.86 10.0459L118.135 45.0226L123.131 44.8405L128.128 44.6583L126.853 9.68156L121.856 9.86371ZM123.131 44.8405L122.949 39.8438L117.553 40.0405L117.735 45.0372L117.917 50.0339L123.313 49.8372L123.131 44.8405ZM117.735 45.0372L122.732 44.855L121.946 23.3194L116.95 23.5015L111.953 23.6837L112.738 45.2194L117.735 45.0372ZM116.95 23.5015L116.768 18.5048L114.069 18.6032L114.252 23.5999L114.434 28.5965L117.132 28.4982L116.95 23.5015ZM114.252 23.5999L109.255 23.782L109.452 29.1784L114.448 28.9963L119.445 28.8141L119.248 23.4177L114.252 23.5999ZM114.448 28.9963L114.266 23.9996L111.568 24.098L111.75 29.0946L111.932 34.0913L114.63 33.993L114.448 28.9963ZM111.75 29.0946L106.753 29.2768L106.95 34.6732L111.947 34.4911L116.944 34.3089L116.747 28.9125L111.75 29.0946ZM111.947 34.4911L111.765 29.4944L109.066 29.5927L109.249 34.5894L109.431 39.5861L112.129 39.4877L111.947 34.4911ZM109.249 34.5894L104.252 34.7716L104.445 40.0681L109.442 39.8859L114.438 39.7038L114.245 34.4073L109.249 34.5894ZM109.442 39.8859L109.26 34.8892L103.863 35.0859L104.045 40.0826L104.227 45.0793L109.624 44.8826L109.442 39.8859ZM104.045 40.0826L109.042 39.9005L108.849 34.604L103.852 34.7861L98.8555 34.9683L99.0486 40.2648L104.045 40.0826ZM103.852 34.7861L103.67 29.7895L100.972 29.8878L101.154 34.8845L101.336 39.8812L104.034 39.7828L103.852 34.7861ZM101.154 34.8845L106.151 34.7024L105.954 29.3059L100.957 29.4881L95.9606 29.6702L96.1573 35.0667L101.154 34.8845ZM100.957 29.4881L100.775 24.4914L98.0769 24.5898L98.2591 29.5865L98.4412 34.5831L101.139 34.4848L100.957 29.4881ZM98.2591 29.5865L103.256 29.4043L103.059 24.0079L98.0624 24.19L93.0657 24.3722L93.2624 29.7686L98.2591 29.5865ZM98.0624 24.19L97.8802 19.1934L95.182 19.2917L95.3642 24.2884L95.5463 29.2851L98.2445 29.1867L98.0624 24.19ZM95.3642 24.2884L90.3675 24.4706L91.1525 46.0063L96.1492 45.8241L101.146 45.6419L100.361 24.1063L95.3642 24.2884ZM96.1492 45.8241L95.9671 40.8274L90.5707 41.0241L90.7528 46.0208L90.935 51.0175L96.3314 50.8208L96.1492 45.8241ZM90.7528 46.0208L95.7495 45.8387L94.4744 10.8619L89.4777 11.0441L84.4811 11.2262L85.7561 46.203L90.7528 46.0208ZM89.4777 11.0441L89.6599 16.0407L95.0563 15.844L94.8742 10.8473L94.692 5.85065L89.2956 6.04737L89.4777 11.0441ZM94.8742 10.8473L89.8775 11.0295L89.9758 13.7277L94.9725 13.5455L99.9692 13.3634L99.8708 10.6652L94.8742 10.8473ZM125.837 44.7418L120.84 44.924L121.022 49.9207L126.019 49.7385L125.837 44.7418ZM124.562 9.76508L124.38 4.7684L119.383 4.95055L119.565 9.94723L124.562 9.76508ZM129.958 9.56835L134.955 9.3862L134.773 4.38952L129.776 4.57167L129.958 9.56835ZM131.233 44.5451L131.415 49.5418L136.412 49.3596L136.23 44.363L131.233 44.5451ZM125.837 44.7418L130.834 44.5597L129.559 9.58292L124.562 9.76508L119.565 9.94723L120.84 44.924L125.837 44.7418ZM124.562 9.76508L124.744 14.7618L130.14 14.565L129.958 9.56835L129.776 4.57167L124.38 4.7684L124.562 9.76508ZM129.958 9.56835L124.962 9.7505L126.237 44.7273L131.233 44.5451L136.23 44.363L134.955 9.3862L129.958 9.56835ZM131.233 44.5451L131.051 39.5484L125.655 39.7452L125.837 44.7418L126.019 49.7385L131.415 49.5418L131.233 44.5451ZM133.937 44.4466L128.94 44.6287L129.122 49.6254L134.119 49.4432L133.937 44.4466ZM132.662 9.46979L132.48 4.47311L127.483 4.65526L127.665 9.65194L132.662 9.46979ZM138.058 9.27307L143.055 9.09091L142.873 4.09423L137.876 4.27639L138.058 9.27307ZM138.157 11.9713L133.16 12.1534L133.342 17.1501L138.339 16.968L138.157 11.9713ZM140.805 11.8747L145.802 11.6926L145.619 6.6959L140.623 6.87805L140.805 11.8747ZM141.002 17.2711L136.005 17.4533L136.187 22.45L141.184 22.2678L141.002 17.2711ZM143.7 17.1728L148.697 16.9906L148.514 11.994L143.518 12.1761L143.7 17.1728ZM143.796 19.821L138.8 20.0032L138.982 24.9999L143.979 24.8177L143.796 19.821ZM146.495 19.7227L151.491 19.5405L151.309 14.5438L146.312 14.726L146.495 19.7227ZM146.691 25.1191L141.695 25.3012L141.877 30.2979L146.874 30.1158L146.691 25.1191ZM149.39 25.0207L154.386 24.8386L154.204 19.8419L149.207 20.024L149.39 25.0207ZM149.488 27.7189L144.491 27.9011L144.673 32.8978L149.67 32.7156L149.488 27.7189ZM152.186 27.6206L157.183 27.4384L157.001 22.4417L152.004 22.6239L152.186 27.6206ZM152.383 33.017L147.386 33.1991L147.568 38.1958L152.565 38.0137L152.383 33.017ZM155.081 32.9186L155.263 37.9153L160.26 37.7331L160.078 32.7365L155.081 32.9186ZM154.983 30.2204L159.979 30.0383L159.797 25.0416L154.801 25.2237L154.983 30.2204ZM154.933 30.2222L149.936 30.4044L150.118 35.4011L155.115 35.2189L154.933 30.2222ZM154.148 8.68654L153.966 3.68986L148.969 3.87201L149.151 8.86869L154.148 8.68654ZM159.544 8.48981L164.541 8.30766L164.359 3.31098L159.362 3.49313L159.544 8.48981ZM160.819 43.4666L161.001 48.4633L165.998 48.2811L165.816 43.2844L160.819 43.4666ZM155.423 43.6633L150.426 43.8455L150.608 48.8421L155.605 48.66L155.423 43.6633ZM155.324 40.9651L160.321 40.7829L160.139 35.7863L155.142 35.9684L155.324 40.9651ZM152.676 41.0616L147.679 41.2438L147.862 46.2405L152.858 46.0583L152.676 41.0616ZM152.578 38.3634L157.574 38.1813L157.392 33.1846L152.396 33.3667L152.578 38.3634ZM149.88 38.4618L144.883 38.6439L145.065 43.6406L150.062 43.4585L149.88 38.4618ZM149.783 35.8135L154.78 35.6314L154.598 30.6347L149.601 30.8169L149.783 35.8135ZM147.085 35.9119L142.088 36.0941L142.27 41.0907L147.267 40.9086L147.085 35.9119ZM146.888 30.5155L151.885 30.3333L151.703 25.3367L146.706 25.5188L146.888 30.5155ZM144.19 30.6139L139.193 30.796L139.375 35.7927L144.372 35.6105L144.19 30.6139ZM144.092 27.9157L149.088 27.7335L148.906 22.7368L143.909 22.919L144.092 27.9157ZM141.393 28.014L136.397 28.1962L136.579 33.1928L141.575 33.0107L141.393 28.014ZM141.197 22.6176L146.193 22.4354L146.011 17.4388L141.014 17.6209L141.197 22.6176ZM138.548 22.7141L138.366 17.7175L133.37 17.8996L133.552 22.8963L138.548 22.7141ZM139.333 44.2498L139.516 49.2465L144.512 49.0644L144.33 44.0677L139.333 44.2498ZM133.937 44.4466L138.934 44.2644L137.659 9.28764L132.662 9.46979L127.665 9.65194L128.94 44.6287L133.937 44.4466ZM132.662 9.46979L132.844 14.4665L138.241 14.2697L138.058 9.27307L137.876 4.27639L132.48 4.47311L132.662 9.46979ZM138.058 9.27307L133.062 9.45522L133.16 12.1534L138.157 11.9713L143.153 11.7891L143.055 9.09091L138.058 9.27307ZM138.157 11.9713L138.339 16.968L140.987 16.8714L140.805 11.8747L140.623 6.87805L137.975 6.97459L138.157 11.9713ZM140.805 11.8747L135.808 12.0569L136.005 17.4533L141.002 17.2711L145.998 17.089L145.802 11.6926L140.805 11.8747ZM141.002 17.2711L141.184 22.2678L143.882 22.1695L143.7 17.1728L143.518 12.1761L140.82 12.2745L141.002 17.2711ZM143.7 17.1728L138.703 17.3549L138.8 20.0032L143.796 19.821L148.793 19.6389L148.697 16.9906L143.7 17.1728ZM143.796 19.821L143.979 24.8177L146.677 24.7193L146.495 19.7227L146.312 14.726L143.614 14.8243L143.796 19.821ZM146.495 19.7227L141.498 19.9048L141.695 25.3012L146.691 25.1191L151.688 24.9369L151.491 19.5405L146.495 19.7227ZM146.691 25.1191L146.874 30.1158L149.572 30.0174L149.39 25.0207L149.207 20.024L146.509 20.1224L146.691 25.1191ZM149.39 25.0207L144.393 25.2029L144.491 27.9011L149.488 27.7189L154.485 27.5368L154.386 24.8386L149.39 25.0207ZM149.488 27.7189L149.67 32.7156L152.368 32.6172L152.186 27.6206L152.004 22.6239L149.306 22.7222L149.488 27.7189ZM152.186 27.6206L147.189 27.8027L147.386 33.1991L152.383 33.017L157.38 32.8348L157.183 27.4384L152.186 27.6206ZM152.383 33.017L152.565 38.0137L155.263 37.9153L155.081 32.9186L154.899 27.9219L152.201 28.0203L152.383 33.017ZM155.081 32.9186L160.078 32.7365L159.979 30.0383L154.983 30.2204L149.986 30.4026L150.084 33.1008L155.081 32.9186ZM154.983 30.2204L154.801 25.2237L154.751 25.2256L154.933 30.2222L155.115 35.2189L155.165 35.2171L154.983 30.2204ZM154.933 30.2222L159.929 30.0401L159.144 8.50438L154.148 8.68654L149.151 8.86869L149.936 30.4044L154.933 30.2222ZM154.148 8.68654L154.33 13.6832L159.726 13.4865L159.544 8.48981L159.362 3.49313L153.966 3.68986L154.148 8.68654ZM159.544 8.48981L154.547 8.67196L155.822 43.6487L160.819 43.4666L165.816 43.2844L164.541 8.30766L159.544 8.48981ZM160.819 43.4666L160.637 38.4699L155.241 38.6666L155.423 43.6633L155.605 48.66L161.001 48.4633L160.819 43.4666ZM155.423 43.6633L160.419 43.4812L160.321 40.7829L155.324 40.9651L150.328 41.1472L150.426 43.8455L155.423 43.6633ZM155.324 40.9651L155.142 35.9684L152.494 36.065L152.676 41.0616L152.858 46.0583L155.507 45.9618L155.324 40.9651ZM152.676 41.0616L157.673 40.8795L157.574 38.1813L152.578 38.3634L147.581 38.5456L147.679 41.2438L152.676 41.0616ZM152.578 38.3634L152.396 33.3667L149.697 33.4651L149.88 38.4618L150.062 43.4585L152.76 43.3601L152.578 38.3634ZM149.88 38.4618L154.876 38.2796L154.78 35.6314L149.783 35.8135L144.786 35.9957L144.883 38.6439L149.88 38.4618ZM149.783 35.8135L149.601 30.8169L146.903 30.9152L147.085 35.9119L147.267 40.9086L149.965 40.8102L149.783 35.8135ZM147.085 35.9119L152.082 35.7298L151.885 30.3333L146.888 30.5155L141.891 30.6976L142.088 36.0941L147.085 35.9119ZM146.888 30.5155L146.706 25.5188L144.008 25.6172L144.19 30.6139L144.372 35.6105L147.07 35.5122L146.888 30.5155ZM144.19 30.6139L149.187 30.4317L149.088 27.7335L144.092 27.9157L139.095 28.0978L139.193 30.796L144.19 30.6139ZM144.092 27.9157L143.909 22.919L141.211 23.0173L141.393 28.014L141.575 33.0107L144.274 32.9123L144.092 27.9157ZM141.393 28.014L146.39 27.8319L146.193 22.4354L141.197 22.6176L136.2 22.7998L136.397 28.1962L141.393 28.014ZM141.197 22.6176L141.014 17.6209L138.366 17.7175L138.548 22.7141L138.731 27.7108L141.379 27.6143L141.197 22.6176ZM138.548 22.7141L133.552 22.8963L134.337 44.432L139.333 44.2498L144.33 44.0677L143.545 22.532L138.548 22.7141ZM139.333 44.2498L139.151 39.2532L133.755 39.4499L133.937 44.4466L134.119 49.4432L139.516 49.2465L139.333 44.2498ZM173.81 29.5341L168.813 29.7162L168.996 34.7129L173.992 34.5307L173.81 29.5341ZM184.553 29.1424L184.735 34.1391L189.732 33.957L189.55 28.9603L184.553 29.1424ZM184.356 23.746L189.353 23.5639L189.171 18.5672L184.174 18.7493L184.356 23.746ZM181.658 23.8444L176.661 24.0265L176.843 29.0232L181.84 28.8411L181.658 23.8444ZM181.365 15.7997L186.361 15.6176L186.179 10.6209L181.183 10.803L181.365 15.7997ZM176.018 15.9946L175.836 10.998L170.839 11.1801L171.022 16.1768L176.018 15.9946ZM176.312 24.0393L176.494 29.036L181.49 28.8538L181.308 23.8571L176.312 24.0393ZM173.613 24.1377L173.431 19.141L168.434 19.3231L168.617 24.3198L173.613 24.1377ZM163.507 43.3686L158.511 43.5507L158.693 48.5474L163.689 48.3653L163.507 43.3686ZM163.212 35.274L163.03 30.2773L158.033 30.4594L158.215 35.4561L163.212 35.274ZM165.91 35.1756L166.092 40.1723L171.089 39.9901L170.907 34.9934L165.91 35.1756ZM165.715 29.8292L165.533 24.8325L160.537 25.0146L160.719 30.0113L165.715 29.8292ZM168.414 29.7308L168.596 34.7275L173.592 34.5453L173.41 29.5486L168.414 29.7308ZM168.217 24.3344L168.035 19.3377L163.038 19.5198L163.22 24.5165L168.217 24.3344ZM170.915 24.236L171.097 29.2327L176.094 29.0505L175.912 24.0539L170.915 24.236ZM170.622 16.1914L170.44 11.1947L165.443 11.3768L165.625 16.3735L170.622 16.1914ZM173.32 16.093L173.502 21.0897L178.499 20.9075L178.317 15.9108L173.32 16.093ZM173.123 10.6966L172.941 5.6999L167.945 5.88205L168.127 10.8787L173.123 10.6966ZM175.822 10.5982L176.004 15.5949L181 15.4127L180.818 10.4161L175.822 10.5982ZM175.723 7.90001L175.541 2.90333L170.544 3.08548L170.727 8.08216L175.723 7.90001ZM181.12 7.70328L186.116 7.52113L185.934 2.52445L180.937 2.7066L181.12 7.70328ZM181.218 10.4015L176.221 10.5836L176.403 15.5803L181.4 15.3982L181.218 10.4015ZM183.866 10.305L188.863 10.1228L188.681 5.12612L183.684 5.30827L183.866 10.305ZM184.063 15.7014L179.066 15.8835L179.248 20.8802L184.245 20.698L184.063 15.7014ZM186.761 15.603L191.758 15.4209L191.576 10.4242L186.579 10.6063L186.761 15.603ZM187.054 23.6477L182.058 23.8298L182.24 28.8265L187.237 28.6443L187.054 23.6477ZM189.753 23.5493L194.749 23.3671L194.567 18.3705L189.57 18.5526L189.753 23.5493ZM189.949 28.9457L184.953 29.1279L185.135 34.1245L190.131 33.9424L189.949 28.9457ZM192.648 28.8474L197.644 28.6652L197.462 23.6685L192.465 23.8507L192.648 28.8474ZM192.842 34.1938L187.846 34.376L188.028 39.3726L193.025 39.1905L192.842 34.1938ZM195.541 34.0954L200.537 33.9133L200.355 28.9166L195.358 29.0988L195.541 34.0954ZM195.836 42.1901L196.018 47.1867L201.015 47.0046L200.832 42.0079L195.836 42.1901ZM190.439 42.3868L185.443 42.5689L185.625 47.5656L190.621 47.3835L190.439 42.3868ZM190.243 36.9904L195.239 36.8082L195.057 31.8115L190.06 31.9937L190.243 36.9904ZM187.544 37.0887L182.548 37.2709L182.73 42.2676L187.727 42.0854L187.544 37.0887ZM187.448 34.4405L192.445 34.2583L192.262 29.2617L187.266 29.4438L187.448 34.4405ZM171.309 35.0288L171.126 30.0322L166.13 30.2143L166.312 35.211L171.309 35.0288ZM171.405 37.6771L171.587 42.6738L176.584 42.4916L176.402 37.4949L171.405 37.6771ZM168.707 37.7754L168.525 32.7788L163.528 32.9609L163.71 37.9576L168.707 37.7754ZM168.904 43.1719L169.086 48.1685L174.082 47.9864L173.9 42.9897L168.904 43.1719ZM173.81 29.5341L173.992 34.5307L184.735 34.1391L184.553 29.1424L184.371 24.1458L173.628 24.5374L173.81 29.5341ZM184.553 29.1424L189.55 28.9603L189.353 23.5639L184.356 23.746L179.36 23.9282L179.556 29.3246L184.553 29.1424ZM184.356 23.746L184.174 18.7493L181.476 18.8477L181.658 23.8444L181.84 28.8411L184.538 28.7427L184.356 23.746ZM181.658 23.8444L186.655 23.6622L186.361 15.6176L181.365 15.7997L176.368 15.9819L176.661 24.0265L181.658 23.8444ZM181.365 15.7997L181.183 10.803L175.836 10.998L176.018 15.9946L176.2 20.9913L181.547 20.7964L181.365 15.7997ZM176.018 15.9946L171.022 16.1768L171.315 24.2214L176.312 24.0393L181.308 23.8571L181.015 15.8125L176.018 15.9946ZM176.312 24.0393L176.129 19.0426L173.431 19.141L173.613 24.1377L173.795 29.1343L176.494 29.036L176.312 24.0393ZM173.613 24.1377L168.617 24.3198L168.813 29.7162L173.81 29.5341L178.807 29.3519L178.61 23.9555L173.613 24.1377ZM163.507 43.3686L168.504 43.1864L168.209 35.0918L163.212 35.274L158.215 35.4561L158.511 43.5507L163.507 43.3686ZM163.212 35.274L163.394 40.2706L166.092 40.1723L165.91 35.1756L165.728 30.1789L163.03 30.2773L163.212 35.274ZM165.91 35.1756L170.907 34.9934L170.712 29.647L165.715 29.8292L160.719 30.0113L160.914 35.3578L165.91 35.1756ZM165.715 29.8292L165.898 34.8258L168.596 34.7275L168.414 29.7308L168.231 24.7341L165.533 24.8325L165.715 29.8292ZM168.414 29.7308L173.41 29.5486L173.214 24.1522L168.217 24.3344L163.22 24.5165L163.417 29.9129L168.414 29.7308ZM168.217 24.3344L168.399 29.3311L171.097 29.2327L170.915 24.236L170.733 19.2393L168.035 19.3377L168.217 24.3344ZM170.915 24.236L175.912 24.0539L175.619 16.0092L170.622 16.1914L165.625 16.3735L165.918 24.4182L170.915 24.236ZM170.622 16.1914L170.804 21.188L173.502 21.0897L173.32 16.093L173.138 11.0963L170.44 11.1947L170.622 16.1914ZM173.32 16.093L178.317 15.9108L178.12 10.5144L173.123 10.6966L168.127 10.8787L168.323 16.2751L173.32 16.093ZM173.123 10.6966L173.305 15.6933L176.004 15.5949L175.822 10.5982L175.639 5.60154L172.941 5.6999L173.123 10.6966ZM175.822 10.5982L180.818 10.4161L180.72 7.71786L175.723 7.90001L170.727 8.08216L170.825 10.7804L175.822 10.5982ZM175.723 7.90001L175.905 12.8967L181.302 12.7L181.12 7.70328L180.937 2.7066L175.541 2.90333L175.723 7.90001ZM181.12 7.70328L176.123 7.88544L176.221 10.5836L181.218 10.4015L186.215 10.2193L186.116 7.52113L181.12 7.70328ZM181.218 10.4015L181.4 15.3982L184.048 15.3016L183.866 10.305L183.684 5.30827L181.036 5.40481L181.218 10.4015ZM183.866 10.305L178.87 10.4871L179.066 15.8835L184.063 15.7014L189.06 15.5192L188.863 10.1228L183.866 10.305ZM184.063 15.7014L184.245 20.698L186.943 20.5997L186.761 15.603L186.579 10.6063L183.881 10.7047L184.063 15.7014ZM186.761 15.603L181.764 15.7852L182.058 23.8298L187.054 23.6477L192.051 23.4655L191.758 15.4209L186.761 15.603ZM187.054 23.6477L187.237 28.6443L189.935 28.546L189.753 23.5493L189.57 18.5526L186.872 18.651L187.054 23.6477ZM189.753 23.5493L184.756 23.7315L184.953 29.1279L189.949 28.9457L194.946 28.7636L194.749 23.3671L189.753 23.5493ZM189.949 28.9457L190.131 33.9424L192.83 33.844L192.648 28.8474L192.465 23.8507L189.767 23.949L189.949 28.9457ZM192.648 28.8474L187.651 29.0295L187.846 34.376L192.842 34.1938L197.839 34.0116L197.644 28.6652L192.648 28.8474ZM192.842 34.1938L193.025 39.1905L195.723 39.0921L195.541 34.0954L195.358 29.0988L192.66 29.1971L192.842 34.1938ZM195.541 34.0954L190.544 34.2776L190.839 42.3722L195.836 42.1901L200.832 42.0079L200.537 33.9133L195.541 34.0954ZM195.836 42.1901L195.654 37.1934L190.257 37.3901L190.439 42.3868L190.621 47.3835L196.018 47.1867L195.836 42.1901ZM190.439 42.3868L195.436 42.2046L195.239 36.8082L190.243 36.9904L185.246 37.1725L185.443 42.5689L190.439 42.3868ZM190.243 36.9904L190.06 31.9937L187.362 32.0921L187.544 37.0887L187.727 42.0854L190.425 41.9871L190.243 36.9904ZM187.544 37.0887L192.541 36.9066L192.445 34.2583L187.448 34.4405L182.451 34.6226L182.548 37.2709L187.544 37.0887ZM187.448 34.4405L187.266 29.4438L171.126 30.0322L171.309 35.0288L171.491 40.0255L187.63 39.4372L187.448 34.4405ZM171.309 35.0288L166.312 35.211L166.408 37.8592L171.405 37.6771L176.402 37.4949L176.305 34.8467L171.309 35.0288ZM171.405 37.6771L171.223 32.6804L168.525 32.7788L168.707 37.7754L168.889 42.7721L171.587 42.6738L171.405 37.6771ZM168.707 37.7754L163.71 37.9576L163.907 43.354L168.904 43.1719L173.9 42.9897L173.704 37.5933L168.707 37.7754ZM168.904 43.1719L168.721 38.1752L163.325 38.3719L163.507 43.3686L163.689 48.3653L169.086 48.1685L168.904 43.1719ZM198.502 42.0929L193.505 42.275L193.687 47.2717L198.684 47.0896L198.502 42.0929ZM197.423 12.5125L202.42 12.3304L202.238 7.3337L197.241 7.51585L197.423 12.5125ZM186.68 12.9042L181.684 13.0863L181.866 18.083L186.862 17.9008L186.68 12.9042ZM186.484 7.50774L186.301 2.51106L181.305 2.69321L181.487 7.68989L186.484 7.50774ZM213.316 6.52958L218.312 6.34743L218.13 1.35075L213.134 1.5329L213.316 6.52958ZM213.513 11.926L213.695 16.9227L218.691 16.7405L218.509 11.7438L213.513 11.926ZM202.82 12.3158L202.637 7.31913L197.641 7.50128L197.823 12.498L202.82 12.3158ZM203.898 41.8962L204.08 46.8928L209.077 46.7107L208.895 41.714L203.898 41.8962ZM198.502 42.0929L203.498 41.9107L202.42 12.3304L197.423 12.5125L192.427 12.6947L193.505 42.275L198.502 42.0929ZM197.423 12.5125L197.241 7.51585L186.498 7.90748L186.68 12.9042L186.862 17.9008L197.605 17.5092L197.423 12.5125ZM186.68 12.9042L191.677 12.722L191.48 7.32559L186.484 7.50774L181.487 7.68989L181.684 13.0863L186.68 12.9042ZM186.484 7.50774L186.666 12.5044L213.498 11.5263L213.316 6.52958L213.134 1.5329L186.301 2.51106L186.484 7.50774ZM213.316 6.52958L208.319 6.71174L208.516 12.1082L213.513 11.926L218.509 11.7438L218.312 6.34743L213.316 6.52958ZM213.513 11.926L213.33 6.92932L202.637 7.31913L202.82 12.3158L203.002 17.3125L213.695 16.9227L213.513 11.926ZM202.82 12.3158L197.823 12.498L198.901 42.0783L203.898 41.8962L208.895 41.714L207.816 12.1337L202.82 12.3158ZM203.898 41.8962L203.716 36.8995L198.319 37.0962L198.502 42.0929L198.684 47.0896L204.08 46.8928L203.898 41.8962ZM217.28 41.4083L212.283 41.5905L212.466 46.5871L217.462 46.405L217.28 41.4083ZM216.005 6.43155L215.823 1.43487L210.826 1.61702L211.008 6.6137L216.005 6.43155ZM240.239 5.54811L245.236 5.36596L245.053 0.369278L240.057 0.55143L240.239 5.54811ZM240.436 10.9445L240.618 15.9412L245.614 15.7591L245.432 10.7624L240.436 10.9445ZM221.598 11.6312L221.416 6.63456L216.419 6.81671L216.601 11.8134L221.598 11.6312ZM221.891 19.6759L216.895 19.858L217.077 24.8547L222.074 24.6726L221.891 19.6759ZM238.031 19.0875L243.027 18.9054L242.845 13.9087L237.849 14.0909L238.031 19.0875ZM238.227 24.484L238.41 29.4806L243.406 29.2985L243.224 24.3018L238.227 24.484ZM222.088 25.0723L221.906 20.0756L216.909 20.2578L217.091 25.2545L222.088 25.0723ZM222.48 35.8152L217.483 35.9973L217.665 40.994L222.662 40.8119L222.48 35.8152ZM241.317 35.1285L246.314 34.9463L246.132 29.9496L241.135 30.1318L241.317 35.1285ZM241.514 40.5249L241.696 45.5216L246.693 45.3394L246.511 40.3427L241.514 40.5249ZM217.28 41.4083L222.277 41.2262L221.002 6.2494L216.005 6.43155L211.008 6.6137L212.283 41.5905L217.28 41.4083ZM216.005 6.43155L216.187 11.4282L240.421 10.5448L240.239 5.54811L240.057 0.55143L215.823 1.43487L216.005 6.43155ZM240.239 5.54811L235.242 5.73026L235.439 11.1267L240.436 10.9445L245.432 10.7624L245.236 5.36596L240.239 5.54811ZM240.436 10.9445L240.253 5.94785L221.416 6.63456L221.598 11.6312L221.78 16.6279L240.618 15.9412L240.436 10.9445ZM221.598 11.6312L216.601 11.8134L216.895 19.858L221.891 19.6759L226.888 19.4937L226.595 11.4491L221.598 11.6312ZM221.891 19.6759L222.074 24.6726L238.213 24.0842L238.031 19.0875L237.849 14.0909L221.709 14.6792L221.891 19.6759ZM238.031 19.0875L233.034 19.2697L233.231 24.6661L238.227 24.484L243.224 24.3018L243.027 18.9054L238.031 19.0875ZM238.227 24.484L238.045 19.4873L221.906 20.0756L222.088 25.0723L222.27 30.069L238.41 29.4806L238.227 24.484ZM222.088 25.0723L217.091 25.2545L217.483 35.9973L222.48 35.8152L227.476 35.633L227.085 24.8902L222.088 25.0723ZM222.48 35.8152L222.662 40.8119L241.499 40.1251L241.317 35.1285L241.135 30.1318L222.298 30.8185L222.48 35.8152ZM241.317 35.1285L236.321 35.3106L236.517 40.707L241.514 40.5249L246.511 40.3427L246.314 34.9463L241.317 35.1285ZM241.514 40.5249L241.332 35.5282L217.098 36.4116L217.28 41.4083L217.462 46.405L241.696 45.5216L241.514 40.5249Z" fill="black" mask="url(#path-1-outside-1_264_597)"/>
<mask id="path-3-outside-2_264_597" maskUnits="userSpaceOnUse" x="1.56809" y="3.32183" width="246.477" height="53.8956" fill="black">
<rect fill="white" x="1.56809" y="3.32183" width="246.477" height="53.8956"/>
<path d="M8.37175 52.0258L7.09669 17.0491L12.4931 16.8523L13.7682 51.8291L8.37175 52.0258ZM16.4718 51.7305L15.1968 16.7538L20.5932 16.557L21.6715 46.1374L37.8108 45.549L38.0075 50.9455L16.4718 51.7305ZM40.7233 50.8465L39.4482 15.8697L44.8447 15.673L45.923 45.2533L62.0623 44.665L62.259 50.0614L40.7233 50.8465ZM70.3212 49.7675L70.2229 47.0693L67.5746 47.1658L67.4763 44.4676L64.778 44.566L63.6997 14.9856L69.0961 14.7889L70.0761 41.671L72.7743 41.5727L72.8727 44.2709L80.9173 43.9776L80.819 41.2794L83.4672 41.1829L82.4872 14.3007L87.8836 14.104L88.962 43.6844L86.2638 43.7827L86.3621 46.4809L83.7139 46.5775L83.8123 49.2757L70.3212 49.7675ZM96.0809 16.507L98.7791 16.4086L98.9759 21.805L101.674 21.7067L101.869 27.0531L104.567 26.9547L104.764 32.3512L110.16 32.1544L109.964 26.758L112.662 26.6597L112.467 21.3132L115.165 21.2148L114.968 15.8184L117.667 15.7201L117.568 13.0219L122.965 12.8251L124.24 47.8019L118.843 47.9986L118.058 26.4629L115.36 26.5613L115.557 31.9577L112.859 32.0561L113.055 37.4525L110.357 37.5508L110.55 42.8473L105.154 43.0441L104.961 37.7476L102.262 37.8459L102.066 32.4495L99.3675 32.5479L99.1708 27.1515L96.4725 27.2498L97.2576 48.7855L91.8612 48.9822L90.5861 14.0055L95.9826 13.8088L96.0809 16.507ZM126.945 47.7033L125.67 12.7265L131.067 12.5298L132.342 47.5065L126.945 47.7033ZM135.045 47.408L133.77 12.4312L139.167 12.2345L139.265 14.9327L141.913 14.8362L142.11 20.2326L144.808 20.1342L144.905 22.7825L147.603 22.6841L147.8 28.0805L150.498 27.9821L150.596 30.6804L153.295 30.582L153.491 35.9784L156.189 35.88L156.091 33.1818L156.041 33.1837L155.256 11.648L160.652 11.4512L161.928 46.428L156.531 46.6247L156.433 43.9265L153.785 44.0231L153.686 41.3249L150.988 41.4232L150.891 38.775L148.193 38.8733L147.996 33.4769L145.298 33.5753L145.2 30.8771L142.502 30.9754L142.305 25.579L139.657 25.6756L140.442 47.2113L135.045 47.408ZM174.918 32.4955L185.661 32.1039L185.465 26.7075L182.766 26.8058L182.473 18.7612L177.127 18.9561L177.42 27.0007L174.722 27.0991L174.918 32.4955ZM164.616 46.33L164.321 38.2354L167.019 38.137L166.824 32.7906L169.522 32.6922L169.325 27.2958L172.024 27.1974L171.73 19.1528L174.428 19.0544L174.232 13.658L176.93 13.5596L176.832 10.8614L182.228 10.6647L182.326 13.3629L184.975 13.2664L185.171 18.6628L187.87 18.5644L188.163 26.6091L190.861 26.5107L191.058 31.9071L193.756 31.8088L193.951 37.1552L196.649 37.0569L196.944 45.1515L191.548 45.3482L191.351 39.9518L188.653 40.0502L188.556 37.4019L172.417 37.9903L172.514 40.6385L169.815 40.7369L170.012 46.1333L164.616 46.33ZM199.61 45.0543L198.532 15.474L187.789 15.8656L187.592 10.4692L214.424 9.49101L214.621 14.8874L203.928 15.2772L205.006 44.8576L199.61 45.0543ZM218.388 44.3697L217.113 9.39297L241.347 8.50954L241.544 13.906L222.707 14.5927L223 22.6373L239.139 22.049L239.336 27.4454L223.197 28.0337L223.588 38.7766L242.426 38.0899L242.622 43.4863L218.388 44.3697Z"/>
</mask>
<path d="M8.37175 52.0258L7.09669 17.0491L12.4931 16.8523L13.7682 51.8291L8.37175 52.0258ZM16.4718 51.7305L15.1968 16.7538L20.5932 16.557L21.6715 46.1374L37.8108 45.549L38.0075 50.9455L16.4718 51.7305ZM40.7233 50.8465L39.4482 15.8697L44.8447 15.673L45.923 45.2533L62.0623 44.665L62.259 50.0614L40.7233 50.8465ZM70.3212 49.7675L70.2229 47.0693L67.5746 47.1658L67.4763 44.4676L64.778 44.566L63.6997 14.9856L69.0961 14.7889L70.0761 41.671L72.7743 41.5727L72.8727 44.2709L80.9173 43.9776L80.819 41.2794L83.4672 41.1829L82.4872 14.3007L87.8836 14.104L88.962 43.6844L86.2638 43.7827L86.3621 46.4809L83.7139 46.5775L83.8123 49.2757L70.3212 49.7675ZM96.0809 16.507L98.7791 16.4086L98.9759 21.805L101.674 21.7067L101.869 27.0531L104.567 26.9547L104.764 32.3512L110.16 32.1544L109.964 26.758L112.662 26.6597L112.467 21.3132L115.165 21.2148L114.968 15.8184L117.667 15.7201L117.568 13.0219L122.965 12.8251L124.24 47.8019L118.843 47.9986L118.058 26.4629L115.36 26.5613L115.557 31.9577L112.859 32.0561L113.055 37.4525L110.357 37.5508L110.55 42.8473L105.154 43.0441L104.961 37.7476L102.262 37.8459L102.066 32.4495L99.3675 32.5479L99.1708 27.1515L96.4725 27.2498L97.2576 48.7855L91.8612 48.9822L90.5861 14.0055L95.9826 13.8088L96.0809 16.507ZM126.945 47.7033L125.67 12.7265L131.067 12.5298L132.342 47.5065L126.945 47.7033ZM135.045 47.408L133.77 12.4312L139.167 12.2345L139.265 14.9327L141.913 14.8362L142.11 20.2326L144.808 20.1342L144.905 22.7825L147.603 22.6841L147.8 28.0805L150.498 27.9821L150.596 30.6804L153.295 30.582L153.491 35.9784L156.189 35.88L156.091 33.1818L156.041 33.1837L155.256 11.648L160.652 11.4512L161.928 46.428L156.531 46.6247L156.433 43.9265L153.785 44.0231L153.686 41.3249L150.988 41.4232L150.891 38.775L148.193 38.8733L147.996 33.4769L145.298 33.5753L145.2 30.8771L142.502 30.9754L142.305 25.579L139.657 25.6756L140.442 47.2113L135.045 47.408ZM174.918 32.4955L185.661 32.1039L185.465 26.7075L182.766 26.8058L182.473 18.7612L177.127 18.9561L177.42 27.0007L174.722 27.0991L174.918 32.4955ZM164.616 46.33L164.321 38.2354L167.019 38.137L166.824 32.7906L169.522 32.6922L169.325 27.2958L172.024 27.1974L171.73 19.1528L174.428 19.0544L174.232 13.658L176.93 13.5596L176.832 10.8614L182.228 10.6647L182.326 13.3629L184.975 13.2664L185.171 18.6628L187.87 18.5644L188.163 26.6091L190.861 26.5107L191.058 31.9071L193.756 31.8088L193.951 37.1552L196.649 37.0569L196.944 45.1515L191.548 45.3482L191.351 39.9518L188.653 40.0502L188.556 37.4019L172.417 37.9903L172.514 40.6385L169.815 40.7369L170.012 46.1333L164.616 46.33ZM199.61 45.0543L198.532 15.474L187.789 15.8656L187.592 10.4692L214.424 9.49101L214.621 14.8874L203.928 15.2772L205.006 44.8576L199.61 45.0543ZM218.388 44.3697L217.113 9.39297L241.347 8.50954L241.544 13.906L222.707 14.5927L223 22.6373L239.139 22.049L239.336 27.4454L223.197 28.0337L223.588 38.7766L242.426 38.0899L242.622 43.4863L218.388 44.3697Z" fill="white"/>
<path d="M8.37175 52.0258L3.37507 52.208L3.55722 57.2047L8.5539 57.0225L8.37175 52.0258ZM7.09669 17.0491L6.91453 12.0524L1.91785 12.2345L2.10001 17.2312L7.09669 17.0491ZM12.4931 16.8523L17.4898 16.6702L17.3076 11.6735L12.3109 11.8557L12.4931 16.8523ZM13.7682 51.8291L13.9503 56.8258L18.947 56.6436L18.7648 51.6469L13.7682 51.8291ZM8.37175 52.0258L13.3684 51.8437L12.0934 16.8669L7.09669 17.0491L2.10001 17.2312L3.37507 52.208L8.37175 52.0258ZM7.09669 17.0491L7.27884 22.0457L12.6753 21.849L12.4931 16.8523L12.3109 11.8557L6.91453 12.0524L7.09669 17.0491ZM12.4931 16.8523L7.49642 17.0345L8.77149 52.0113L13.7682 51.8291L18.7648 51.6469L17.4898 16.6702L12.4931 16.8523ZM13.7682 51.8291L13.586 46.8324L8.1896 47.0291L8.37175 52.0258L8.5539 57.0225L13.9503 56.8258L13.7682 51.8291ZM16.4718 51.7305L11.4752 51.9127L11.6573 56.9094L16.654 56.7272L16.4718 51.7305ZM15.1968 16.7538L15.0146 11.7571L10.0179 11.9392L10.2001 16.9359L15.1968 16.7538ZM20.5932 16.557L25.5899 16.3749L25.4077 11.3782L20.411 11.5604L20.5932 16.557ZM21.6715 46.1374L16.6748 46.3196L16.857 51.3162L21.8537 51.1341L21.6715 46.1374ZM37.8108 45.549L42.8075 45.3669L42.6253 40.3702L37.6287 40.5524L37.8108 45.549ZM38.0075 50.9455L38.1897 55.9421L43.1864 55.76L43.0042 50.7633L38.0075 50.9455ZM16.4718 51.7305L21.4685 51.5484L20.1935 16.5716L15.1968 16.7538L10.2001 16.9359L11.4752 51.9127L16.4718 51.7305ZM15.1968 16.7538L15.3789 21.7505L20.7753 21.5537L20.5932 16.557L20.411 11.5604L15.0146 11.7571L15.1968 16.7538ZM20.5932 16.557L15.5965 16.7392L16.6748 46.3196L21.6715 46.1374L26.6682 45.9552L25.5899 16.3749L20.5932 16.557ZM21.6715 46.1374L21.8537 51.1341L37.993 50.5457L37.8108 45.549L37.6287 40.5524L21.4894 41.1407L21.6715 46.1374ZM37.8108 45.549L32.8141 45.7312L33.0109 51.1276L38.0075 50.9455L43.0042 50.7633L42.8075 45.3669L37.8108 45.549ZM38.0075 50.9455L37.8254 45.9488L16.2897 46.7339L16.4718 51.7305L16.654 56.7272L38.1897 55.9421L38.0075 50.9455ZM40.7233 50.8465L35.7266 51.0286L35.9088 56.0253L40.9055 55.8431L40.7233 50.8465ZM39.4482 15.8697L39.2661 10.873L34.2694 11.0552L34.4516 16.0518L39.4482 15.8697ZM44.8447 15.673L49.8413 15.4908L49.6592 10.4941L44.6625 10.6763L44.8447 15.673ZM45.923 45.2533L40.9263 45.4355L41.1085 50.4322L46.1051 50.25L45.923 45.2533ZM62.0623 44.665L67.059 44.4828L66.8768 39.4861L61.8801 39.6683L62.0623 44.665ZM62.259 50.0614L62.4412 55.0581L67.4378 54.8759L67.2557 49.8792L62.259 50.0614ZM40.7233 50.8465L45.72 50.6643L44.4449 15.6875L39.4482 15.8697L34.4516 16.0518L35.7266 51.0286L40.7233 50.8465ZM39.4482 15.8697L39.6304 20.8664L45.0268 20.6697L44.8447 15.673L44.6625 10.6763L39.2661 10.873L39.4482 15.8697ZM44.8447 15.673L39.848 15.8551L40.9263 45.4355L45.923 45.2533L50.9197 45.0712L49.8413 15.4908L44.8447 15.673ZM45.923 45.2533L46.1051 50.25L62.2444 49.6616L62.0623 44.665L61.8801 39.6683L45.7408 40.2566L45.923 45.2533ZM62.0623 44.665L57.0656 44.8471L57.2623 50.2435L62.259 50.0614L67.2557 49.8792L67.059 44.4828L62.0623 44.665ZM62.259 50.0614L62.0768 45.0647L40.5412 45.8498L40.7233 50.8465L40.9055 55.8431L62.4412 55.0581L62.259 50.0614ZM70.3212 49.7675L65.3245 49.9496L65.5067 54.9463L70.5034 54.7642L70.3212 49.7675ZM70.2229 47.0693L75.2195 46.8871L75.0374 41.8904L70.0407 42.0726L70.2229 47.0693ZM67.5746 47.1658L62.5779 47.348L62.7601 52.3446L67.7568 52.1625L67.5746 47.1658ZM67.4763 44.4676L72.4729 44.2855L72.2908 39.2888L67.2941 39.4709L67.4763 44.4676ZM64.778 44.566L59.7814 44.7481L59.9635 49.7448L64.9602 49.5626L64.778 44.566ZM63.6997 14.9856L63.5176 9.98894L58.5209 10.1711L58.703 15.1678L63.6997 14.9856ZM69.0961 14.7889L74.0928 14.6067L73.9107 9.61006L68.914 9.79221L69.0961 14.7889ZM70.0761 41.671L65.0794 41.8532L65.2616 46.8499L70.2583 46.6677L70.0761 41.671ZM72.7743 41.5727L77.771 41.3905L77.5888 36.3938L72.5922 36.576L72.7743 41.5727ZM72.8727 44.2709L67.876 44.453L68.0581 49.4497L73.0548 49.2676L72.8727 44.2709ZM80.9173 43.9776L81.0995 48.9743L86.0962 48.7921L85.914 43.7955L80.9173 43.9776ZM80.819 41.2794L80.6368 36.2827L75.6401 36.4649L75.8223 41.4616L80.819 41.2794ZM83.4672 41.1829L83.6494 46.1796L88.646 45.9974L88.4639 41.0007L83.4672 41.1829ZM82.4872 14.3007L82.3051 9.30404L77.3084 9.4862L77.4905 14.4829L82.4872 14.3007ZM87.8836 14.104L92.8803 13.9218L92.6982 8.92517L87.7015 9.10732L87.8836 14.104ZM88.962 43.6844L89.1441 48.681L94.1408 48.4989L93.9587 43.5022L88.962 43.6844ZM86.2638 43.7827L86.0816 38.786L81.0849 38.9682L81.2671 43.9649L86.2638 43.7827ZM86.3621 46.4809L86.5443 51.4776L91.541 51.2954L91.3588 46.2988L86.3621 46.4809ZM83.7139 46.5775L83.5317 41.5808L78.5351 41.7629L78.7172 46.7596L83.7139 46.5775ZM83.8123 49.2757L83.9944 54.2724L88.9911 54.0902L88.8089 49.0935L83.8123 49.2757ZM70.3212 49.7675L75.3179 49.5853L75.2195 46.8871L70.2229 47.0693L65.2262 47.2514L65.3245 49.9496L70.3212 49.7675ZM70.2229 47.0693L70.0407 42.0726L67.3925 42.1691L67.5746 47.1658L67.7568 52.1625L70.405 52.066L70.2229 47.0693ZM67.5746 47.1658L72.5713 46.9837L72.4729 44.2855L67.4763 44.4676L62.4796 44.6498L62.5779 47.348L67.5746 47.1658ZM67.4763 44.4676L67.2941 39.4709L64.5959 39.5693L64.778 44.566L64.9602 49.5626L67.6584 49.4643L67.4763 44.4676ZM64.778 44.566L69.7747 44.3838L68.6964 14.8035L63.6997 14.9856L58.703 15.1678L59.7814 44.7481L64.778 44.566ZM63.6997 14.9856L63.8819 19.9823L69.2783 19.7856L69.0961 14.7889L68.914 9.79221L63.5176 9.98894L63.6997 14.9856ZM69.0961 14.7889L64.0994 14.971L65.0794 41.8532L70.0761 41.671L75.0728 41.4889L74.0928 14.6067L69.0961 14.7889ZM70.0761 41.671L70.2583 46.6677L72.9565 46.5694L72.7743 41.5727L72.5922 36.576L69.8939 36.6744L70.0761 41.671ZM72.7743 41.5727L67.7776 41.7548L67.876 44.453L72.8727 44.2709L77.8693 44.0887L77.771 41.3905L72.7743 41.5727ZM72.8727 44.2709L73.0548 49.2676L81.0995 48.9743L80.9173 43.9776L80.7352 38.9809L72.6905 39.2742L72.8727 44.2709ZM80.9173 43.9776L85.914 43.7955L85.8156 41.0973L80.819 41.2794L75.8223 41.4616L75.9206 44.1598L80.9173 43.9776ZM80.819 41.2794L81.0011 46.2761L83.6494 46.1796L83.4672 41.1829L83.2851 36.1862L80.6368 36.2827L80.819 41.2794ZM83.4672 41.1829L88.4639 41.0007L87.4839 14.1186L82.4872 14.3007L77.4905 14.4829L78.4705 41.365L83.4672 41.1829ZM82.4872 14.3007L82.6694 19.2974L88.0658 19.1007L87.8836 14.104L87.7015 9.10732L82.3051 9.30404L82.4872 14.3007ZM87.8836 14.104L82.887 14.2862L83.9653 43.8665L88.962 43.6844L93.9587 43.5022L92.8803 13.9218L87.8836 14.104ZM88.962 43.6844L88.7798 38.6877L86.0816 38.786L86.2638 43.7827L86.4459 48.7794L89.1441 48.681L88.962 43.6844ZM86.2638 43.7827L81.2671 43.9649L81.3655 46.6631L86.3621 46.4809L91.3588 46.2988L91.2605 43.6006L86.2638 43.7827ZM86.3621 46.4809L86.18 41.4842L83.5317 41.5808L83.7139 46.5775L83.896 51.5741L86.5443 51.4776L86.3621 46.4809ZM83.7139 46.5775L78.7172 46.7596L78.8156 49.4578L83.8123 49.2757L88.8089 49.0935L88.7106 46.3953L83.7139 46.5775ZM83.8123 49.2757L83.6301 44.279L70.1391 44.7708L70.3212 49.7675L70.5034 54.7642L83.9944 54.2724L83.8123 49.2757ZM96.0809 16.507L91.0842 16.6891L91.2664 21.6858L96.2631 21.5036L96.0809 16.507ZM98.7791 16.4086L103.776 16.2265L103.594 11.2298L98.597 11.4119L98.7791 16.4086ZM98.9759 21.805L93.9792 21.9872L94.1613 26.9839L99.158 26.8017L98.9759 21.805ZM101.674 21.7067L106.671 21.5245L106.489 16.5278L101.492 16.71L101.674 21.7067ZM101.869 27.0531L96.8723 27.2353L97.0544 32.2319L102.051 32.0498L101.869 27.0531ZM104.567 26.9547L109.564 26.7726L109.382 21.7759L104.385 21.9581L104.567 26.9547ZM104.764 32.3512L99.7672 32.5333L99.9494 37.53L104.946 37.3478L104.764 32.3512ZM110.16 32.1544L110.342 37.1511L115.339 36.969L115.157 31.9723L110.16 32.1544ZM109.964 26.758L109.781 21.7613L104.785 21.9435L104.967 26.9402L109.964 26.758ZM112.662 26.6597L112.844 31.6563L117.841 31.4742L117.658 26.4775L112.662 26.6597ZM112.467 21.3132L112.285 16.3165L107.288 16.4987L107.47 21.4954L112.467 21.3132ZM115.165 21.2148L115.347 26.2115L120.344 26.0294L120.162 21.0327L115.165 21.2148ZM114.968 15.8184L114.786 10.8217L109.79 11.0039L109.972 16.0006L114.968 15.8184ZM117.667 15.7201L117.849 20.7167L122.845 20.5346L122.663 15.5379L117.667 15.7201ZM117.568 13.0219L117.386 8.02518L112.389 8.20733L112.572 13.204L117.568 13.0219ZM122.965 12.8251L127.961 12.643L127.779 7.6463L122.782 7.82845L122.965 12.8251ZM124.24 47.8019L124.422 52.7986L129.419 52.6164L129.236 47.6197L124.24 47.8019ZM118.843 47.9986L113.847 48.1808L114.029 53.1775L119.025 52.9953L118.843 47.9986ZM118.058 26.4629L123.055 26.2808L122.873 21.2841L117.876 21.4663L118.058 26.4629ZM115.36 26.5613L115.178 21.5646L110.181 21.7468L110.363 26.7434L115.36 26.5613ZM115.557 31.9577L115.739 36.9544L120.736 36.7722L120.553 31.7756L115.557 31.9577ZM112.859 32.0561L112.676 27.0594L107.68 27.2415L107.862 32.2382L112.859 32.0561ZM113.055 37.4525L113.237 42.4492L118.234 42.267L118.052 37.2703L113.055 37.4525ZM110.357 37.5508L110.175 32.5542L105.178 32.7363L105.36 37.733L110.357 37.5508ZM110.55 42.8473L110.732 47.844L115.729 47.6619L115.547 42.6652L110.55 42.8473ZM105.154 43.0441L100.157 43.2262L100.339 48.2229L105.336 48.0407L105.154 43.0441ZM104.961 37.7476L109.957 37.5654L109.775 32.5687L104.778 32.7509L104.961 37.7476ZM102.262 37.8459L97.2657 38.0281L97.4479 43.0248L102.445 42.8426L102.262 37.8459ZM102.066 32.4495L107.062 32.2674L106.88 27.2707L101.884 27.4528L102.066 32.4495ZM99.3675 32.5479L94.3708 32.73L94.5529 37.7267L99.5496 37.5446L99.3675 32.5479ZM99.1708 27.1515L104.167 26.9693L103.985 21.9726L98.9886 22.1548L99.1708 27.1515ZM96.4725 27.2498L96.2904 22.2531L91.2937 22.4353L91.4759 27.432L96.4725 27.2498ZM97.2576 48.7855L97.4398 53.7822L102.436 53.6001L102.254 48.6034L97.2576 48.7855ZM91.8612 48.9822L86.8645 49.1644L87.0467 54.1611L92.0434 53.9789L91.8612 48.9822ZM90.5861 14.0055L90.404 9.0088L85.4073 9.19095L85.5895 14.1876L90.5861 14.0055ZM95.9826 13.8088L100.979 13.6266L100.797 8.62992L95.8004 8.81208L95.9826 13.8088ZM96.0809 16.507L96.2631 21.5036L98.9613 21.4053L98.7791 16.4086L98.597 11.4119L95.8988 11.5103L96.0809 16.507ZM98.7791 16.4086L93.7824 16.5908L93.9792 21.9872L98.9759 21.805L103.973 21.6229L103.776 16.2265L98.7791 16.4086ZM98.9759 21.805L99.158 26.8017L101.856 26.7033L101.674 21.7067L101.492 16.71L98.7937 16.8083L98.9759 21.805ZM101.674 21.7067L96.6774 21.8888L96.8723 27.2353L101.869 27.0531L106.866 26.871L106.671 21.5245L101.674 21.7067ZM101.869 27.0531L102.051 32.0498L104.749 31.9514L104.567 26.9547L104.385 21.9581L101.687 22.0564L101.869 27.0531ZM104.567 26.9547L99.5705 27.1369L99.7672 32.5333L104.764 32.3512L109.761 32.169L109.564 26.7726L104.567 26.9547ZM104.764 32.3512L104.946 37.3478L110.342 37.1511L110.16 32.1544L109.978 27.1578L104.582 27.3545L104.764 32.3512ZM110.16 32.1544L115.157 31.9723L114.96 26.5759L109.964 26.758L104.967 26.9402L105.164 32.3366L110.16 32.1544ZM109.964 26.758L110.146 31.7547L112.844 31.6563L112.662 26.6597L112.48 21.663L109.781 21.7613L109.964 26.758ZM112.662 26.6597L117.658 26.4775L117.464 21.1311L112.467 21.3132L107.47 21.4954L107.665 26.8418L112.662 26.6597ZM112.467 21.3132L112.649 26.3099L115.347 26.2115L115.165 21.2148L114.983 16.2182L112.285 16.3165L112.467 21.3132ZM115.165 21.2148L120.162 21.0327L119.965 15.6363L114.968 15.8184L109.972 16.0006L110.168 21.397L115.165 21.2148ZM114.968 15.8184L115.151 20.8151L117.849 20.7167L117.667 15.7201L117.484 10.7234L114.786 10.8217L114.968 15.8184ZM117.667 15.7201L122.663 15.5379L122.565 12.8397L117.568 13.0219L112.572 13.204L112.67 15.9022L117.667 15.7201ZM117.568 13.0219L117.75 18.0185L123.147 17.8218L122.965 12.8251L122.782 7.82845L117.386 8.02518L117.568 13.0219ZM122.965 12.8251L117.968 13.0073L119.243 47.9841L124.24 47.8019L129.236 47.6197L127.961 12.643L122.965 12.8251ZM124.24 47.8019L124.058 42.8052L118.661 43.0019L118.843 47.9986L119.025 52.9953L124.422 52.7986L124.24 47.8019ZM118.843 47.9986L123.84 47.8165L123.055 26.2808L118.058 26.4629L113.062 26.6451L113.847 48.1808L118.843 47.9986ZM118.058 26.4629L117.876 21.4663L115.178 21.5646L115.36 26.5613L115.542 31.558L118.24 31.4596L118.058 26.4629ZM115.36 26.5613L110.363 26.7434L110.56 32.1399L115.557 31.9577L120.553 31.7756L120.357 26.3791L115.36 26.5613ZM115.557 31.9577L115.375 26.961L112.676 27.0594L112.859 32.0561L113.041 37.0528L115.739 36.9544L115.557 31.9577ZM112.859 32.0561L107.862 32.2382L108.059 37.6346L113.055 37.4525L118.052 37.2703L117.855 31.8739L112.859 32.0561ZM113.055 37.4525L112.873 32.4558L110.175 32.5542L110.357 37.5508L110.539 42.5475L113.237 42.4492L113.055 37.4525ZM110.357 37.5508L105.36 37.733L105.553 43.0295L110.55 42.8473L115.547 42.6652L115.354 37.3687L110.357 37.5508ZM110.55 42.8473L110.368 37.8506L104.972 38.0474L105.154 43.0441L105.336 48.0407L110.732 47.844L110.55 42.8473ZM105.154 43.0441L110.15 42.8619L109.957 37.5654L104.961 37.7476L99.9639 37.9297L100.157 43.2262L105.154 43.0441ZM104.961 37.7476L104.778 32.7509L102.08 32.8493L102.262 37.8459L102.445 42.8426L105.143 42.7443L104.961 37.7476ZM102.262 37.8459L107.259 37.6638L107.062 32.2674L102.066 32.4495L97.069 32.6317L97.2657 38.0281L102.262 37.8459ZM102.066 32.4495L101.884 27.4528L99.1853 27.5512L99.3675 32.5479L99.5496 37.5446L102.248 37.4462L102.066 32.4495ZM99.3675 32.5479L104.364 32.3657L104.167 26.9693L99.1708 27.1515L94.1741 27.3336L94.3708 32.73L99.3675 32.5479ZM99.1708 27.1515L98.9886 22.1548L96.2904 22.2531L96.4725 27.2498L96.6547 32.2465L99.3529 32.1481L99.1708 27.1515ZM96.4725 27.2498L91.4759 27.432L92.2609 48.9677L97.2576 48.7855L102.254 48.6034L101.469 27.0677L96.4725 27.2498ZM97.2576 48.7855L97.0755 43.7888L91.6791 43.9856L91.8612 48.9822L92.0434 53.9789L97.4398 53.7822L97.2576 48.7855ZM91.8612 48.9822L96.8579 48.8001L95.5828 13.8233L90.5861 14.0055L85.5895 14.1876L86.8645 49.1644L91.8612 48.9822ZM90.5861 14.0055L90.7683 19.0022L96.1647 18.8054L95.9826 13.8088L95.8004 8.81208L90.404 9.0088L90.5861 14.0055ZM95.9826 13.8088L90.9859 13.9909L91.0842 16.6891L96.0809 16.507L101.078 16.3248L100.979 13.6266L95.9826 13.8088ZM126.945 47.7033L121.949 47.8854L122.131 52.8821L127.127 52.6999L126.945 47.7033ZM125.67 12.7265L125.488 7.72982L120.491 7.91197L120.674 12.9087L125.67 12.7265ZM131.067 12.5298L136.063 12.3476L135.881 7.35095L130.885 7.5331L131.067 12.5298ZM132.342 47.5065L132.524 52.5032L137.521 52.3211L137.338 47.3244L132.342 47.5065ZM126.945 47.7033L131.942 47.5211L130.667 12.5444L125.67 12.7265L120.674 12.9087L121.949 47.8854L126.945 47.7033ZM125.67 12.7265L125.852 17.7232L131.249 17.5265L131.067 12.5298L130.885 7.5331L125.488 7.72982L125.67 12.7265ZM131.067 12.5298L126.07 12.7119L127.345 47.6887L132.342 47.5065L137.338 47.3244L136.063 12.3476L131.067 12.5298ZM132.342 47.5065L132.16 42.5099L126.763 42.7066L126.945 47.7033L127.127 52.6999L132.524 52.5032L132.342 47.5065ZM135.045 47.408L130.049 47.5901L130.231 52.5868L135.228 52.4047L135.045 47.408ZM133.77 12.4312L133.588 7.43454L128.592 7.61669L128.774 12.6134L133.77 12.4312ZM139.167 12.2345L144.163 12.0523L143.981 7.05566L138.985 7.23781L139.167 12.2345ZM139.265 14.9327L134.268 15.1149L134.451 20.1115L139.447 19.9294L139.265 14.9327ZM141.913 14.8362L146.91 14.654L146.728 9.65733L141.731 9.83948L141.913 14.8362ZM142.11 20.2326L137.113 20.4147L137.296 25.4114L142.292 25.2293L142.11 20.2326ZM144.808 20.1342L149.805 19.9521L149.623 14.9554L144.626 15.1375L144.808 20.1342ZM144.905 22.7825L139.908 22.9646L140.09 27.9613L145.087 27.7791L144.905 22.7825ZM147.603 22.6841L152.6 22.5019L152.418 17.5053L147.421 17.6874L147.603 22.6841ZM147.8 28.0805L142.803 28.2627L142.985 33.2593L147.982 33.0772L147.8 28.0805ZM150.498 27.9821L155.495 27.8L155.313 22.8033L150.316 22.9855L150.498 27.9821ZM150.596 30.6804L145.6 30.8625L145.782 35.8592L150.778 35.677L150.596 30.6804ZM153.295 30.582L158.291 30.3998L158.109 25.4032L153.112 25.5853L153.295 30.582ZM153.491 35.9784L148.495 36.1606L148.677 41.1572L153.673 40.9751L153.491 35.9784ZM156.189 35.88L156.372 40.8767L161.368 40.6946L161.186 35.6979L156.189 35.88ZM156.091 33.1818L161.088 32.9997L160.906 28.003L155.909 28.1852L156.091 33.1818ZM156.041 33.1837L151.044 33.3658L151.227 38.3625L156.223 38.1803L156.041 33.1837ZM155.256 11.648L155.074 6.65128L150.077 6.83343L150.259 11.8301L155.256 11.648ZM160.652 11.4512L165.649 11.2691L165.467 6.2724L160.47 6.45456L160.652 11.4512ZM161.928 46.428L162.11 51.4247L167.106 51.2425L166.924 46.2459L161.928 46.428ZM156.531 46.6247L151.534 46.8069L151.717 51.8036L156.713 51.6214L156.531 46.6247ZM156.433 43.9265L161.429 43.7444L161.247 38.7477L156.251 38.9298L156.433 43.9265ZM153.785 44.0231L148.788 44.2052L148.97 49.2019L153.967 49.0197L153.785 44.0231ZM153.686 41.3249L158.683 41.1427L158.501 36.146L153.504 36.3282L153.686 41.3249ZM150.988 41.4232L145.991 41.6054L146.173 46.602L151.17 46.4199L150.988 41.4232ZM150.891 38.775L155.888 38.5928L155.706 33.5961L150.709 33.7783L150.891 38.775ZM148.193 38.8733L143.197 39.0555L143.379 44.0522L148.375 43.87L148.193 38.8733ZM147.996 33.4769L152.993 33.2948L152.811 28.2981L147.814 28.4802L147.996 33.4769ZM145.298 33.5753L140.302 33.7574L140.484 38.7541L145.48 38.572L145.298 33.5753ZM145.2 30.8771L150.197 30.6949L150.014 25.6982L145.018 25.8804L145.2 30.8771ZM142.502 30.9754L137.505 31.1576L137.687 36.1543L142.684 35.9721L142.502 30.9754ZM142.305 25.579L147.302 25.3969L147.12 20.4002L142.123 20.5823L142.305 25.579ZM139.657 25.6756L139.475 20.6789L134.478 20.861L134.66 25.8577L139.657 25.6756ZM140.442 47.2113L140.624 52.2079L145.621 52.0258L145.439 47.0291L140.442 47.2113ZM135.045 47.408L140.042 47.2258L138.767 12.2491L133.77 12.4312L128.774 12.6134L130.049 47.5901L135.045 47.408ZM133.77 12.4312L133.953 17.4279L139.349 17.2312L139.167 12.2345L138.985 7.23781L133.588 7.43454L133.77 12.4312ZM139.167 12.2345L134.17 12.4166L134.268 15.1149L139.265 14.9327L144.262 14.7505L144.163 12.0523L139.167 12.2345ZM139.265 14.9327L139.447 19.9294L142.096 19.8328L141.913 14.8362L141.731 9.83948L139.083 9.93602L139.265 14.9327ZM141.913 14.8362L136.917 15.0183L137.113 20.4147L142.11 20.2326L147.107 20.0504L146.91 14.654L141.913 14.8362ZM142.11 20.2326L142.292 25.2293L144.99 25.1309L144.808 20.1342L144.626 15.1375L141.928 15.2359L142.11 20.2326ZM144.808 20.1342L139.812 20.3164L139.908 22.9646L144.905 22.7825L149.902 22.6003L149.805 19.9521L144.808 20.1342ZM144.905 22.7825L145.087 27.7791L147.785 27.6808L147.603 22.6841L147.421 17.6874L144.723 17.7858L144.905 22.7825ZM147.603 22.6841L142.606 22.8662L142.803 28.2627L147.8 28.0805L152.796 27.8984L152.6 22.5019L147.603 22.6841ZM147.8 28.0805L147.982 33.0772L150.68 32.9788L150.498 27.9821L150.316 22.9855L147.618 23.0838L147.8 28.0805ZM150.498 27.9821L145.501 28.1643L145.6 30.8625L150.596 30.6804L155.593 30.4982L155.495 27.8L150.498 27.9821ZM150.596 30.6804L150.778 35.677L153.477 35.5787L153.295 30.582L153.112 25.5853L150.414 25.6837L150.596 30.6804ZM153.295 30.582L148.298 30.7641L148.495 36.1606L153.491 35.9784L158.488 35.7963L158.291 30.3998L153.295 30.582ZM153.491 35.9784L153.673 40.9751L156.372 40.8767L156.189 35.88L156.007 30.8834L153.309 30.9817L153.491 35.9784ZM156.189 35.88L161.186 35.6979L161.088 32.9997L156.091 33.1818L151.094 33.364L151.193 36.0622L156.189 35.88ZM156.091 33.1818L155.909 28.1852L155.859 28.187L156.041 33.1837L156.223 38.1803L156.273 38.1785L156.091 33.1818ZM156.041 33.1837L161.038 33.0015L160.253 11.4658L155.256 11.648L150.259 11.8301L151.044 33.3658L156.041 33.1837ZM155.256 11.648L155.438 16.6446L160.835 16.4479L160.652 11.4512L160.47 6.45456L155.074 6.65128L155.256 11.648ZM160.652 11.4512L155.656 11.6334L156.931 46.6102L161.928 46.428L166.924 46.2459L165.649 11.2691L160.652 11.4512ZM161.928 46.428L161.745 41.4313L156.349 41.628L156.531 46.6247L156.713 51.6214L162.11 51.4247L161.928 46.428ZM156.531 46.6247L161.528 46.4426L161.429 43.7444L156.433 43.9265L151.436 44.1087L151.534 46.8069L156.531 46.6247ZM156.433 43.9265L156.251 38.9298L153.602 39.0264L153.785 44.0231L153.967 49.0197L156.615 48.9232L156.433 43.9265ZM153.785 44.0231L158.781 43.8409L158.683 41.1427L153.686 41.3249L148.689 41.507L148.788 44.2052L153.785 44.0231ZM153.686 41.3249L153.504 36.3282L150.806 36.4265L150.988 41.4232L151.17 46.4199L153.868 46.3215L153.686 41.3249ZM150.988 41.4232L155.985 41.2411L155.888 38.5928L150.891 38.775L145.895 38.9571L145.991 41.6054L150.988 41.4232ZM150.891 38.775L150.709 33.7783L148.011 33.8767L148.193 38.8733L148.375 43.87L151.074 43.7717L150.891 38.775ZM148.193 38.8733L153.19 38.6912L152.993 33.2948L147.996 33.4769L143 33.6591L143.197 39.0555L148.193 38.8733ZM147.996 33.4769L147.814 28.4802L145.116 28.5786L145.298 33.5753L145.48 38.572L148.179 38.4736L147.996 33.4769ZM145.298 33.5753L150.295 33.3931L150.197 30.6949L145.2 30.8771L140.203 31.0592L140.302 33.7574L145.298 33.5753ZM145.2 30.8771L145.018 25.8804L142.32 25.9788L142.502 30.9754L142.684 35.9721L145.382 35.8738L145.2 30.8771ZM142.502 30.9754L147.498 30.7933L147.302 25.3969L142.305 25.579L137.308 25.7612L137.505 31.1576L142.502 30.9754ZM142.305 25.579L142.123 20.5823L139.475 20.6789L139.657 25.6756L139.839 30.6722L142.487 30.5757L142.305 25.579ZM139.657 25.6756L134.66 25.8577L135.445 47.3934L140.442 47.2113L145.439 47.0291L144.653 25.4934L139.657 25.6756ZM140.442 47.2113L140.26 42.2146L134.863 42.4113L135.045 47.408L135.228 52.4047L140.624 52.2079L140.442 47.2113ZM174.918 32.4955L169.922 32.6776L170.104 37.6743L175.101 37.4922L174.918 32.4955ZM185.661 32.1039L185.843 37.1005L190.84 36.9184L190.658 31.9217L185.661 32.1039ZM185.465 26.7074L190.461 26.5253L190.279 21.5286L185.282 21.7108L185.465 26.7074ZM182.766 26.8058L177.77 26.988L177.952 31.9846L182.949 31.8025L182.766 26.8058ZM182.473 18.7612L187.47 18.579L187.288 13.5823L182.291 13.7645L182.473 18.7612ZM177.127 18.9561L176.945 13.9594L171.948 14.1415L172.13 19.1382L177.127 18.9561ZM177.42 27.0007L177.602 31.9974L182.599 31.8152L182.417 26.8186L177.42 27.0007ZM174.722 27.0991L174.54 22.1024L169.543 22.2845L169.725 27.2812L174.722 27.0991ZM164.616 46.33L159.619 46.5122L159.801 51.5088L164.798 51.3267L164.616 46.33ZM164.321 38.2354L164.138 33.2387L159.142 33.4209L159.324 38.4175L164.321 38.2354ZM167.019 38.137L167.201 43.1337L172.198 42.9516L172.015 37.9549L167.019 38.137ZM166.824 32.7906L166.642 27.7939L161.645 27.976L161.827 32.9727L166.824 32.7906ZM169.522 32.6922L169.704 37.6889L174.701 37.5067L174.519 32.5101L169.522 32.6922ZM169.325 27.2958L169.143 22.2991L164.146 22.4813L164.329 27.478L169.325 27.2958ZM172.024 27.1974L172.206 32.1941L177.202 32.012L177.02 27.0153L172.024 27.1974ZM171.73 19.1528L171.548 14.1561L166.551 14.3383L166.734 19.3349L171.73 19.1528ZM174.428 19.0544L174.611 24.0511L179.607 23.8689L179.425 18.8723L174.428 19.0544ZM174.232 13.658L174.05 8.66132L169.053 8.84348L169.235 13.8402L174.232 13.658ZM176.93 13.5596L177.112 18.5563L182.109 18.3742L181.927 13.3775L176.93 13.5596ZM176.832 10.8614L176.649 5.86475L171.653 6.04691L171.835 11.0436L176.832 10.8614ZM182.228 10.6647L187.225 10.4826L187.043 5.48588L182.046 5.66803L182.228 10.6647ZM182.326 13.3629L177.33 13.5451L177.512 18.5418L182.509 18.3596L182.326 13.3629ZM184.975 13.2664L189.971 13.0842L189.789 8.08754L184.792 8.2697L184.975 13.2664ZM185.171 18.6628L180.175 18.8449L180.357 23.8416L185.353 23.6595L185.171 18.6628ZM187.87 18.5644L192.866 18.3823L192.684 13.3856L187.687 13.5677L187.87 18.5644ZM188.163 26.6091L183.166 26.7912L183.348 31.7879L188.345 31.6058L188.163 26.6091ZM190.861 26.5107L195.858 26.3286L195.676 21.3319L190.679 21.514L190.861 26.5107ZM191.058 31.9071L186.061 32.0893L186.243 37.086L191.24 36.9038L191.058 31.9071ZM193.756 31.8088L198.753 31.6266L198.57 26.6299L193.574 26.8121L193.756 31.8088ZM193.951 37.1552L188.954 37.3374L189.136 42.3341L194.133 42.1519L193.951 37.1552ZM196.649 37.0569L201.646 36.8747L201.464 31.878L196.467 32.0602L196.649 37.0569ZM196.944 45.1515L197.126 50.1482L202.123 49.966L201.941 44.9693L196.944 45.1515ZM191.548 45.3482L186.551 45.5304L186.733 50.527L191.73 50.3449L191.548 45.3482ZM191.351 39.9518L196.348 39.7696L196.166 34.773L191.169 34.9551L191.351 39.9518ZM188.653 40.0502L183.656 40.2323L183.838 45.229L188.835 45.0468L188.653 40.0502ZM188.556 37.4019L193.553 37.2198L193.371 32.2231L188.374 32.4052L188.556 37.4019ZM172.417 37.9903L172.235 32.9936L167.238 33.1757L167.42 38.1724L172.417 37.9903ZM172.514 40.6385L172.696 45.6352L177.692 45.453L177.51 40.4564L172.514 40.6385ZM169.815 40.7369L169.633 35.7402L164.636 35.9223L164.819 40.919L169.815 40.7369ZM170.012 46.1333L170.194 51.13L175.191 50.9478L175.009 45.9511L170.012 46.1333ZM174.918 32.4955L175.101 37.4922L185.843 37.1005L185.661 32.1039L185.479 27.1072L174.736 27.4988L174.918 32.4955ZM185.661 32.1039L190.658 31.9217L190.461 26.5253L185.465 26.7074L180.468 26.8896L180.665 32.286L185.661 32.1039ZM185.465 26.7074L185.282 21.7108L182.584 21.8091L182.766 26.8058L182.949 31.8025L185.647 31.7041L185.465 26.7074ZM182.766 26.8058L187.763 26.6237L187.47 18.579L182.473 18.7612L177.476 18.9433L177.77 26.988L182.766 26.8058ZM182.473 18.7612L182.291 13.7645L176.945 13.9594L177.127 18.9561L177.309 23.9527L182.655 23.7578L182.473 18.7612ZM177.127 18.9561L172.13 19.1382L172.423 27.1829L177.42 27.0007L182.417 26.8186L182.123 18.7739L177.127 18.9561ZM177.42 27.0007L177.238 22.004L174.54 22.1024L174.722 27.0991L174.904 32.0958L177.602 31.9974L177.42 27.0007ZM174.722 27.0991L169.725 27.2812L169.922 32.6776L174.918 32.4955L179.915 32.3133L179.718 26.9169L174.722 27.0991ZM164.616 46.33L169.612 46.1479L169.317 38.0532L164.321 38.2354L159.324 38.4175L159.619 46.5122L164.616 46.33ZM164.321 38.2354L164.503 43.2321L167.201 43.1337L167.019 38.137L166.837 33.1403L164.138 33.2387L164.321 38.2354ZM167.019 38.137L172.015 37.9549L171.821 32.6084L166.824 32.7906L161.827 32.9727L162.022 38.3192L167.019 38.137ZM166.824 32.7906L167.006 37.7873L169.704 37.6889L169.522 32.6922L169.34 27.6955L166.642 27.7939L166.824 32.7906ZM169.522 32.6922L174.519 32.5101L174.322 27.1136L169.325 27.2958L164.329 27.478L164.525 32.8744L169.522 32.6922ZM169.325 27.2958L169.507 32.2925L172.206 32.1941L172.024 27.1974L171.841 22.2008L169.143 22.2991L169.325 27.2958ZM172.024 27.1974L177.02 27.0153L176.727 18.9706L171.73 19.1528L166.734 19.3349L167.027 27.3796L172.024 27.1974ZM171.73 19.1528L171.912 24.1495L174.611 24.0511L174.428 19.0544L174.246 14.0577L171.548 14.1561L171.73 19.1528ZM174.428 19.0544L179.425 18.8723L179.228 13.4759L174.232 13.658L169.235 13.8402L169.432 19.2366L174.428 19.0544ZM174.232 13.658L174.414 18.6547L177.112 18.5563L176.93 13.5596L176.748 8.56296L174.05 8.66132L174.232 13.658ZM176.93 13.5596L181.927 13.3775L181.828 10.6793L176.832 10.8614L171.835 11.0436L171.933 13.7418L176.93 13.5596ZM176.832 10.8614L177.014 15.8581L182.41 15.6614L182.228 10.6647L182.046 5.66803L176.649 5.86475L176.832 10.8614ZM182.228 10.6647L177.231 10.8469L177.33 13.5451L182.326 13.3629L187.323 13.1808L187.225 10.4826L182.228 10.6647ZM182.326 13.3629L182.509 18.3596L185.157 18.2631L184.975 13.2664L184.792 8.2697L182.144 8.36624L182.326 13.3629ZM184.975 13.2664L179.978 13.4485L180.175 18.8449L185.171 18.6628L190.168 18.4806L189.971 13.0842L184.975 13.2664ZM185.171 18.6628L185.353 23.6595L188.052 23.5611L187.87 18.5644L187.687 13.5677L184.989 13.6661L185.171 18.6628ZM187.87 18.5644L182.873 18.7466L183.166 26.7912L188.163 26.6091L193.159 26.4269L192.866 18.3823L187.87 18.5644ZM188.163 26.6091L188.345 31.6058L191.043 31.5074L190.861 26.5107L190.679 21.514L187.981 21.6124L188.163 26.6091ZM190.861 26.5107L185.864 26.6929L186.061 32.0893L191.058 31.9071L196.054 31.725L195.858 26.3286L190.861 26.5107ZM191.058 31.9071L191.24 36.9038L193.938 36.8055L193.756 31.8088L193.574 26.8121L190.876 26.9105L191.058 31.9071ZM193.756 31.8088L188.759 31.9909L188.954 37.3374L193.951 37.1552L198.948 36.9731L198.753 31.6266L193.756 31.8088ZM193.951 37.1552L194.133 42.1519L196.831 42.0535L196.649 37.0569L196.467 32.0602L193.769 32.1585L193.951 37.1552ZM196.649 37.0569L191.652 37.239L191.947 45.3336L196.944 45.1515L201.941 44.9693L201.646 36.8747L196.649 37.0569ZM196.944 45.1515L196.762 40.1548L191.366 40.3515L191.548 45.3482L191.73 50.3449L197.126 50.1482L196.944 45.1515ZM191.548 45.3482L196.544 45.1661L196.348 39.7696L191.351 39.9518L186.354 40.1339L186.551 45.5304L191.548 45.3482ZM191.351 39.9518L191.169 34.9551L188.471 35.0535L188.653 40.0502L188.835 45.0468L191.533 44.9485L191.351 39.9518ZM188.653 40.0502L193.649 39.868L193.553 37.2198L188.556 37.4019L183.56 37.5841L183.656 40.2323L188.653 40.0502ZM188.556 37.4019L188.374 32.4052L172.235 32.9936L172.417 37.9903L172.599 42.987L188.738 42.3986L188.556 37.4019ZM172.417 37.9903L167.42 38.1724L167.517 40.8207L172.514 40.6385L177.51 40.4564L177.414 37.8081L172.417 37.9903ZM172.514 40.6385L172.331 35.6418L169.633 35.7402L169.815 40.7369L169.997 45.7336L172.696 45.6352L172.514 40.6385ZM169.815 40.7369L164.819 40.919L165.015 46.3154L170.012 46.1333L175.009 45.9511L174.812 40.5547L169.815 40.7369ZM170.012 46.1333L169.83 41.1366L164.433 41.3333L164.616 46.33L164.798 51.3267L170.194 51.13L170.012 46.1333ZM199.61 45.0543L194.613 45.2365L194.795 50.2331L199.792 50.051L199.61 45.0543ZM198.532 15.474L203.528 15.2918L203.346 10.2951L198.349 10.4773L198.532 15.474ZM187.789 15.8656L182.792 16.0477L182.974 21.0444L187.971 20.8623L187.789 15.8656ZM187.592 10.4692L187.41 5.47249L182.413 5.65464L182.595 10.6513L187.592 10.4692ZM214.424 9.49101L219.421 9.30886L219.239 4.31218L214.242 4.49433L214.424 9.49101ZM214.621 14.8874L214.803 19.8841L219.8 19.702L219.618 14.7053L214.621 14.8874ZM203.928 15.2772L203.746 10.2806L198.749 10.4627L198.931 15.4594L203.928 15.2772ZM205.006 44.8576L205.189 49.8543L210.185 49.6721L210.003 44.6754L205.006 44.8576ZM199.61 45.0543L204.607 44.8722L203.528 15.2918L198.532 15.474L193.535 15.6561L194.613 45.2365L199.61 45.0543ZM198.532 15.474L198.349 10.4773L187.607 10.8689L187.789 15.8656L187.971 20.8623L198.714 20.4706L198.532 15.474ZM187.789 15.8656L192.785 15.6834L192.589 10.287L187.592 10.4692L182.595 10.6513L182.792 16.0477L187.789 15.8656ZM187.592 10.4692L187.774 15.4658L214.606 14.4877L214.424 9.49101L214.242 4.49433L187.41 5.47249L187.592 10.4692ZM214.424 9.49101L209.428 9.67316L209.624 15.0696L214.621 14.8874L219.618 14.7053L219.421 9.30886L214.424 9.49101ZM214.621 14.8874L214.439 9.89075L203.746 10.2806L203.928 15.2772L204.11 20.2739L214.803 19.8841L214.621 14.8874ZM203.928 15.2772L198.931 15.4594L200.01 45.0397L205.006 44.8576L210.003 44.6754L208.925 15.0951L203.928 15.2772ZM205.006 44.8576L204.824 39.8609L199.428 40.0576L199.61 45.0543L199.792 50.051L205.189 49.8543L205.006 44.8576ZM218.388 44.3697L213.392 44.5519L213.574 49.5486L218.571 49.3664L218.388 44.3697ZM217.113 9.39297L216.931 4.39629L211.935 4.57845L212.117 9.57513L217.113 9.39297ZM241.347 8.50954L246.344 8.32738L246.162 3.3307L241.165 3.51286L241.347 8.50954ZM241.544 13.906L241.726 18.9026L246.723 18.7205L246.541 13.7238L241.544 13.906ZM222.707 14.5927L222.524 9.59599L217.528 9.77814L217.71 14.7748L222.707 14.5927ZM223 22.6373L218.003 22.8195L218.185 27.8162L223.182 27.634L223 22.6373ZM239.139 22.049L244.136 21.8668L243.954 16.8701L238.957 17.0523L239.139 22.049ZM239.336 27.4454L239.518 32.4421L244.515 32.2599L244.333 27.2632L239.336 27.4454ZM223.197 28.0337L223.014 23.0371L218.018 23.2192L218.2 28.2159L223.197 28.0337ZM223.588 38.7766L218.591 38.9588L218.774 43.9554L223.77 43.7733L223.588 38.7766ZM242.426 38.0899L247.422 37.9077L247.24 32.9111L242.244 33.0932L242.426 38.0899ZM242.622 43.4863L242.805 48.483L247.801 48.3008L247.619 43.3042L242.622 43.4863ZM218.388 44.3697L223.385 44.1876L222.11 9.21082L217.113 9.39297L212.117 9.57513L213.392 44.5519L218.388 44.3697ZM217.113 9.39297L217.296 14.3897L241.529 13.5062L241.347 8.50954L241.165 3.51286L216.931 4.39629L217.113 9.39297ZM241.347 8.50954L236.351 8.69169L236.547 14.0881L241.544 13.906L246.541 13.7238L246.344 8.32738L241.347 8.50954ZM241.544 13.906L241.362 8.90927L222.524 9.59599L222.707 14.5927L222.889 19.5893L241.726 18.9026L241.544 13.906ZM222.707 14.5927L217.71 14.7748L218.003 22.8195L223 22.6373L227.997 22.4552L227.703 14.4105L222.707 14.5927ZM223 22.6373L223.182 27.634L239.321 27.0457L239.139 22.049L238.957 17.0523L222.818 17.6406L223 22.6373ZM239.139 22.049L234.142 22.2311L234.339 27.6275L239.336 27.4454L244.333 27.2632L244.136 21.8668L239.139 22.049ZM239.336 27.4454L239.154 22.4487L223.014 23.0371L223.197 28.0337L223.379 33.0304L239.518 32.4421L239.336 27.4454ZM223.197 28.0337L218.2 28.2159L218.591 38.9588L223.588 38.7766L228.585 38.5944L228.193 27.8516L223.197 28.0337ZM223.588 38.7766L223.77 43.7733L242.608 43.0866L242.426 38.0899L242.244 33.0932L223.406 33.7799L223.588 38.7766ZM242.426 38.0899L237.429 38.272L237.626 43.6685L242.622 43.4863L247.619 43.3042L247.422 37.9077L242.426 38.0899ZM242.622 43.4863L242.44 38.4896L218.206 39.3731L218.388 44.3697L218.571 49.3664L242.805 48.483L242.622 43.4863Z" fill="black" mask="url(#path-3-outside-2_264_597)"/>
</svg>
