<svg width="1440" height="640" viewBox="0 0 1440 640" fill="none" xmlns="http://www.w3.org/2000/svg">
<g style="mix-blend-mode:overlay">
<path d="M-36.9713 0.662842H-73V34.2621M-36.9713 0.662842V34.2621M-36.9713 0.662842H-0.942581M-36.9713 34.2621H-73M-36.9713 34.2621V67.8614M-36.9713 34.2621H-0.942581M-73 34.2621V67.8614M-36.9713 67.8614H-73M-36.9713 67.8614V101.461M-36.9713 67.8614H-0.942581M-73 67.8614V101.461M-36.9713 101.461H-73M-36.9713 101.461V135.06M-36.9713 101.461H-0.942581M-73 101.461V135.06M-36.9713 135.06H-73M-36.9713 135.06V168.659M-36.9713 135.06H-0.942581M-73 135.06V168.659M-36.9713 168.659H-73M-36.9713 168.659V202.259M-36.9713 168.659H-0.942581M-73 168.659V202.259M-36.9713 202.259H-73M-36.9713 202.259V235.858M-36.9713 202.259H-0.942581M-73 202.259V235.858M-36.9713 235.858H-73M-36.9713 235.858V269.457M-36.9713 235.858H-0.942581M-73 235.858V269.457M-36.9713 269.457H-73M-36.9713 269.457V303.056M-36.9713 269.457H-0.942581M-73 269.457V303.056M-36.9713 303.056H-73M-36.9713 303.056V336.656M-36.9713 303.056H-0.942581M-73 303.056V336.656M-36.9713 336.656H-73M-36.9713 336.656V370.255M-36.9713 336.656H-0.942581M-73 336.656V370.255M-36.9713 370.255H-73M-36.9713 370.255V403.854M-36.9713 370.255H-0.942581M-73 370.255V403.854M-36.9713 403.854H-73M-36.9713 403.854V437.454M-36.9713 403.854H-0.942581M-73 403.854V437.454M-36.9713 437.454H-73M-36.9713 437.454V471.053M-36.9713 437.454H-0.942581M-73 437.454V471.053M-36.9713 471.053H-73M-36.9713 471.053V504.652M-36.9713 471.053H-0.942581M-73 471.053V504.652M-36.9713 504.652H-73M-36.9713 504.652V538.251M-36.9713 504.652H-0.942581M-73 504.652V538.251M-36.9713 538.251H-73M-36.9713 538.251V571.851M-36.9713 538.251H-0.942581M-73 538.251V571.851M-36.9713 571.851H-73M-36.9713 571.851V605.45M-36.9713 571.851H-0.942581M-73 571.851V605.45M-36.9713 605.45H-73M-36.9713 605.45V639.049M-36.9713 605.45H-0.942581M-73 605.45V639.049H-36.9713M-36.9713 639.049H-0.942581M-0.942581 0.662842V34.2621M-0.942581 0.662842H35.0861M-0.942581 34.2621V67.8614M-0.942581 34.2621H35.0861M-0.942581 67.8614V101.461M-0.942581 67.8614H35.0861M-0.942581 101.461V135.06M-0.942581 101.461H35.0861M-0.942581 135.06V168.659M-0.942581 135.06H35.0861M-0.942581 168.659V202.259M-0.942581 168.659H35.0861M-0.942581 202.259V235.858M-0.942581 202.259H35.0861M-0.942581 235.858V269.457M-0.942581 235.858H35.0861M-0.942581 269.457V303.056M-0.942581 269.457H35.0861M-0.942581 303.056V336.656M-0.942581 303.056H35.0861M-0.942581 336.656V370.255M-0.942581 336.656H35.0861M-0.942581 370.255V403.854M-0.942581 370.255H35.0861M-0.942581 403.854V437.454M-0.942581 403.854H35.0861M-0.942581 437.454V471.053M-0.942581 437.454H35.0861M-0.942581 471.053V504.652M-0.942581 471.053H35.0861M-0.942581 504.652V538.251M-0.942581 504.652H35.0861M-0.942581 538.251V571.851M-0.942581 538.251H35.0861M-0.942581 571.851V605.45M-0.942581 571.851H35.0861M-0.942581 605.45V639.049M-0.942581 605.45H35.0861M-0.942581 639.049H35.0861M35.0861 0.662842V34.2621M35.0861 0.662842H71.1148M35.0861 34.2621V67.8614M35.0861 34.2621H71.1148M35.0861 67.8614V101.461M35.0861 67.8614H71.1148M35.0861 101.461V135.06M35.0861 101.461H71.1148M35.0861 135.06V168.659M35.0861 135.06H71.1148M35.0861 168.659V202.259M35.0861 168.659H71.1148M35.0861 202.259V235.858M35.0861 202.259H71.1148M35.0861 235.858V269.457M35.0861 235.858H71.1148M35.0861 269.457V303.056M35.0861 269.457H71.1148M35.0861 303.056V336.656M35.0861 303.056H71.1148M35.0861 336.656V370.255M35.0861 336.656H71.1148M35.0861 370.255V403.854M35.0861 370.255H71.1148M35.0861 403.854V437.454M35.0861 403.854H71.1148M35.0861 437.454V471.053M35.0861 437.454H71.1148M35.0861 471.053V504.652M35.0861 471.053H71.1148M35.0861 504.652V538.251M35.0861 504.652H71.1148M35.0861 538.251V571.851M35.0861 538.251H71.1148M35.0861 571.851V605.45M35.0861 571.851H71.1148M35.0861 605.45V639.049M35.0861 605.45H71.1148M35.0861 639.049H71.1148M71.1148 0.662842V34.2621M71.1148 0.662842H107.144M71.1148 34.2621V67.8614M71.1148 34.2621H107.144M71.1148 67.8614V101.461M71.1148 67.8614H107.144M71.1148 101.461V135.06M71.1148 101.461H107.144M71.1148 135.06V168.659M71.1148 135.06H107.144M71.1148 168.659V202.259M71.1148 168.659H107.144M71.1148 202.259V235.858M71.1148 202.259H107.144M71.1148 235.858V269.457M71.1148 235.858H107.144M71.1148 269.457V303.056M71.1148 269.457H107.144M71.1148 303.056V336.656M71.1148 303.056H107.144M71.1148 336.656V370.255M71.1148 336.656H107.144M71.1148 370.255V403.854M71.1148 370.255H107.144M71.1148 403.854V437.454M71.1148 403.854H107.144M71.1148 437.454V471.053M71.1148 437.454H107.144M71.1148 471.053V504.652M71.1148 471.053H107.144M71.1148 504.652V538.251M71.1148 504.652H107.144M71.1148 538.251V571.851M71.1148 538.251H107.144M71.1148 571.851V605.45M71.1148 571.851H107.144M71.1148 605.45V639.049M71.1148 605.45H107.144M71.1148 639.049H107.144M107.144 0.662842V34.2621M107.144 0.662842H143.172M107.144 34.2621V67.8614M107.144 34.2621H143.172M107.144 67.8614V101.461M107.144 67.8614H143.172M107.144 101.461V135.06M107.144 101.461H143.172M107.144 135.06V168.659M107.144 135.06H143.172M107.144 168.659V202.259M107.144 168.659H143.172M107.144 202.259V235.858M107.144 202.259H143.172M107.144 235.858V269.457M107.144 235.858H143.172M107.144 269.457V303.056M107.144 269.457H143.172M107.144 303.056V336.656M107.144 303.056H143.172M107.144 336.656V370.255M107.144 336.656H143.172M107.144 370.255V403.854M107.144 370.255H143.172M107.144 403.854V437.454M107.144 403.854H143.172M107.144 437.454V471.053M107.144 437.454H143.172M107.144 471.053V504.652M107.144 471.053H143.172M107.144 504.652V538.251M107.144 504.652H143.172M107.144 538.251V571.851M107.144 538.251H143.172M107.144 571.851V605.45M107.144 571.851H143.172M107.144 605.45V639.049M107.144 605.45H143.172M107.144 639.049H143.172M143.172 0.662842V34.2621M143.172 0.662842H179.201M143.172 34.2621V67.8614M143.172 34.2621H179.201M143.172 67.8614V101.461M143.172 67.8614H179.201M143.172 101.461V135.06M143.172 101.461H179.201M143.172 135.06V168.659M143.172 135.06H179.201M143.172 168.659V202.259M143.172 168.659H179.201M143.172 202.259V235.858M143.172 202.259H179.201M143.172 235.858V269.457M143.172 235.858H179.201M143.172 269.457V303.056M143.172 269.457H179.201M143.172 303.056V336.656M143.172 303.056H179.201M143.172 336.656V370.255M143.172 336.656H179.201M143.172 370.255V403.854M143.172 370.255H179.201M143.172 403.854V437.454M143.172 403.854H179.201M143.172 437.454V471.053M143.172 437.454H179.201M143.172 471.053V504.652M143.172 471.053H179.201M143.172 504.652V538.251M143.172 504.652H179.201M143.172 538.251V571.851M143.172 538.251H179.201M143.172 571.851V605.45M143.172 571.851H179.201M143.172 605.45V639.049M143.172 605.45H179.201M143.172 639.049H179.201M179.201 0.662842V34.2621M179.201 0.662842H215.23M179.201 34.2621V67.8614M179.201 34.2621H215.23M179.201 67.8614V101.461M179.201 67.8614H215.23M179.201 101.461V135.06M179.201 101.461H215.23M179.201 135.06V168.659M179.201 135.06H215.23M179.201 168.659V202.259M179.201 168.659H215.23M179.201 202.259V235.858M179.201 202.259H215.23M179.201 235.858V269.457M179.201 235.858H215.23M179.201 269.457V303.056M179.201 269.457H215.23M179.201 303.056V336.656M179.201 303.056H215.23M179.201 336.656V370.255M179.201 336.656H215.23M179.201 370.255V403.854M179.201 370.255H215.23M179.201 403.854V437.454M179.201 403.854H215.23M179.201 437.454V471.053M179.201 437.454H215.23M179.201 471.053V504.652M179.201 471.053H215.23M179.201 504.652V538.251M179.201 504.652H215.23M179.201 538.251V571.851M179.201 538.251H215.23M179.201 571.851V605.45M179.201 571.851H215.23M179.201 605.45V639.049M179.201 605.45H215.23M179.201 639.049H215.23M215.23 0.662842V34.2621M215.23 0.662842H251.258M215.23 34.2621V67.8614M215.23 34.2621H251.258M215.23 67.8614V101.461M215.23 67.8614H251.258M215.23 101.461V135.06M215.23 101.461H251.258M215.23 135.06V168.659M215.23 135.06H251.258M215.23 168.659V202.259M215.23 168.659H251.258M215.23 202.259V235.858M215.23 202.259H251.258M215.23 235.858V269.457M215.23 235.858H251.258M215.23 269.457V303.056M215.23 269.457H251.258M215.23 303.056V336.656M215.23 303.056H251.258M215.23 336.656V370.255M215.23 336.656H251.258M215.23 370.255V403.854M215.23 370.255H251.258M215.23 403.854V437.454M215.23 403.854H251.258M215.23 437.454V471.053M215.23 437.454H251.258M215.23 471.053V504.652M215.23 471.053H251.258M215.23 504.652V538.251M215.23 504.652H251.258M215.23 538.251V571.851M215.23 538.251H251.258M215.23 571.851V605.45M215.23 571.851H251.258M215.23 605.45V639.049M215.23 605.45H251.258M215.23 639.049H251.258M251.258 0.662842V34.2621M251.258 0.662842H287.287M251.258 34.2621V67.8614M251.258 34.2621H287.287M251.258 67.8614V101.461M251.258 67.8614H287.287M251.258 101.461V135.06M251.258 101.461H287.287M251.258 135.06V168.659M251.258 135.06H287.287M251.258 168.659V202.259M251.258 168.659H287.287M251.258 202.259V235.858M251.258 202.259H287.287M251.258 235.858V269.457M251.258 235.858H287.287M251.258 269.457V303.056M251.258 269.457H287.287M251.258 303.056V336.656M251.258 303.056H287.287M251.258 336.656V370.255M251.258 336.656H287.287M251.258 370.255V403.854M251.258 370.255H287.287M251.258 403.854V437.454M251.258 403.854H287.287M251.258 437.454V471.053M251.258 437.454H287.287M251.258 471.053V504.652M251.258 471.053H287.287M251.258 504.652V538.251M251.258 504.652H287.287M251.258 538.251V571.851M251.258 538.251H287.287M251.258 571.851V605.45M251.258 571.851H287.287M251.258 605.45V639.049M251.258 605.45H287.287M251.258 639.049H287.287M287.287 0.662842V34.2621M287.287 0.662842H323.316M287.287 34.2621V67.8614M287.287 34.2621H323.316M287.287 67.8614V101.461M287.287 67.8614H323.316M287.287 101.461V135.06M287.287 101.461H323.316M287.287 135.06V168.659M287.287 135.06H323.316M287.287 168.659V202.259M287.287 168.659H323.316M287.287 202.259V235.858M287.287 202.259H323.316M287.287 235.858V269.457M287.287 235.858H323.316M287.287 269.457V303.056M287.287 269.457H323.316M287.287 303.056V336.656M287.287 303.056H323.316M287.287 336.656V370.255M287.287 336.656H323.316M287.287 370.255V403.854M287.287 370.255H323.316M287.287 403.854V437.454M287.287 403.854H323.316M287.287 437.454V471.053M287.287 437.454H323.316M287.287 471.053V504.652M287.287 471.053H323.316M287.287 504.652V538.251M287.287 504.652H323.316M287.287 538.251V571.851M287.287 538.251H323.316M287.287 571.851V605.45M287.287 571.851H323.316M287.287 605.45V639.049M287.287 605.45H323.316M287.287 639.049H323.316M323.316 0.662842V34.2621M323.316 0.662842H359.345M323.316 34.2621V67.8614M323.316 34.2621H359.345M323.316 67.8614V101.461M323.316 67.8614H359.345M323.316 101.461V135.06M323.316 101.461H359.345M323.316 135.06V168.659M323.316 135.06H359.345M323.316 168.659V202.259M323.316 168.659H359.345M323.316 202.259V235.858M323.316 202.259H359.345M323.316 235.858V269.457M323.316 235.858H359.345M323.316 269.457V303.056M323.316 269.457H359.345M323.316 303.056V336.656M323.316 303.056H359.345M323.316 336.656V370.255M323.316 336.656H359.345M323.316 370.255V403.854M323.316 370.255H359.345M323.316 403.854V437.454M323.316 403.854H359.345M323.316 437.454V471.053M323.316 437.454H359.345M323.316 471.053V504.652M323.316 471.053H359.345M323.316 504.652V538.251M323.316 504.652H359.345M323.316 538.251V571.851M323.316 538.251H359.345M323.316 571.851V605.45M323.316 571.851H359.345M323.316 605.45V639.049M323.316 605.45H359.345M323.316 639.049H359.345M359.345 0.662842V34.2621M359.345 0.662842H395.373M359.345 34.2621V67.8614M359.345 34.2621H395.373M359.345 67.8614V101.461M359.345 67.8614H395.373M359.345 101.461V135.06M359.345 101.461H395.373M359.345 135.06V168.659M359.345 135.06H395.373M359.345 168.659V202.259M359.345 168.659H395.373M359.345 202.259V235.858M359.345 202.259H395.373M359.345 235.858V269.457M359.345 235.858H395.373M359.345 269.457V303.056M359.345 269.457H395.373M359.345 303.056V336.656M359.345 303.056H395.373M359.345 336.656V370.255M359.345 336.656H395.373M359.345 370.255V403.854M359.345 370.255H395.373M359.345 403.854V437.454M359.345 403.854H395.373M359.345 437.454V471.053M359.345 437.454H395.373M359.345 471.053V504.652M359.345 471.053H395.373M359.345 504.652V538.251M359.345 504.652H395.373M359.345 538.251V571.851M359.345 538.251H395.373M359.345 571.851V605.45M359.345 571.851H395.373M359.345 605.45V639.049M359.345 605.45H395.373M359.345 639.049H395.373M395.373 0.662842V34.2621M395.373 0.662842H431.402M395.373 34.2621V67.8614M395.373 34.2621H431.402M395.373 67.8614V101.461M395.373 67.8614H431.402M395.373 101.461V135.06M395.373 101.461H431.402M395.373 135.06V168.659M395.373 135.06H431.402M395.373 168.659V202.259M395.373 168.659H431.402M395.373 202.259V235.858M395.373 202.259H431.402M395.373 235.858V269.457M395.373 235.858H431.402M395.373 269.457V303.056M395.373 269.457H431.402M395.373 303.056V336.656M395.373 303.056H431.402M395.373 336.656V370.255M395.373 336.656H431.402M395.373 370.255V403.854M395.373 370.255H431.402M395.373 403.854V437.454M395.373 403.854H431.402M395.373 437.454V471.053M395.373 437.454H431.402M395.373 471.053V504.652M395.373 471.053H431.402M395.373 504.652V538.251M395.373 504.652H431.402M395.373 538.251V571.851M395.373 538.251H431.402M395.373 571.851V605.45M395.373 571.851H431.402M395.373 605.45V639.049M395.373 605.45H431.402M395.373 639.049H431.402M431.402 0.662842V34.2621M431.402 0.662842H467.431M431.402 34.2621V67.8614M431.402 34.2621H467.431M431.402 67.8614V101.461M431.402 67.8614H467.431M431.402 101.461V135.06M431.402 101.461H467.431M431.402 135.06V168.659M431.402 135.06H467.431M431.402 168.659V202.259M431.402 168.659H467.431M431.402 202.259V235.858M431.402 202.259H467.431M431.402 235.858V269.457M431.402 235.858H467.431M431.402 269.457V303.056M431.402 269.457H467.431M431.402 303.056V336.656M431.402 303.056H467.431M431.402 336.656V370.255M431.402 336.656H467.431M431.402 370.255V403.854M431.402 370.255H467.431M431.402 403.854V437.454M431.402 403.854H467.431M431.402 437.454V471.053M431.402 437.454H467.431M431.402 471.053V504.652M431.402 471.053H467.431M431.402 504.652V538.251M431.402 504.652H467.431M431.402 538.251V571.851M431.402 538.251H467.431M431.402 571.851V605.45M431.402 571.851H467.431M431.402 605.45V639.049M431.402 605.45H467.431M431.402 639.049H467.431M467.431 0.662842V34.2621M467.431 0.662842H503.459M467.431 34.2621V67.8614M467.431 34.2621H503.459M467.431 67.8614V101.461M467.431 67.8614H503.459M467.431 101.461V135.06M467.431 101.461H503.459M467.431 135.06V168.659M467.431 135.06H503.459M467.431 168.659V202.259M467.431 168.659H503.459M467.431 202.259V235.858M467.431 202.259H503.459M467.431 235.858V269.457M467.431 235.858H503.459M467.431 269.457V303.056M467.431 269.457H503.459M467.431 303.056V336.656M467.431 303.056H503.459M467.431 336.656V370.255M467.431 336.656H503.459M467.431 370.255V403.854M467.431 370.255H503.459M467.431 403.854V437.454M467.431 403.854H503.459M467.431 437.454V471.053M467.431 437.454H503.459M467.431 471.053V504.652M467.431 471.053H503.459M467.431 504.652V538.251M467.431 504.652H503.459M467.431 538.251V571.851M467.431 538.251H503.459M467.431 571.851V605.45M467.431 571.851H503.459M467.431 605.45V639.049M467.431 605.45H503.459M467.431 639.049H503.459M503.459 0.662842V34.2621M503.459 0.662842H539.488M503.459 34.2621V67.8614M503.459 34.2621H539.488M503.459 67.8614V101.461M503.459 67.8614H539.488M503.459 101.461V135.06M503.459 101.461H539.488M503.459 135.06V168.659M503.459 135.06H539.488M503.459 168.659V202.259M503.459 168.659H539.488M503.459 202.259V235.858M503.459 202.259H539.488M503.459 235.858V269.457M503.459 235.858H539.488M503.459 269.457V303.056M503.459 269.457H539.488M503.459 303.056V336.656M503.459 303.056H539.488M503.459 336.656V370.255M503.459 336.656H539.488M503.459 370.255V403.854M503.459 370.255H539.488M503.459 403.854V437.454M503.459 403.854H539.488M503.459 437.454V471.053M503.459 437.454H539.488M503.459 471.053V504.652M503.459 471.053H539.488M503.459 504.652V538.251M503.459 504.652H539.488M503.459 538.251V571.851M503.459 538.251H539.488M503.459 571.851V605.45M503.459 571.851H539.488M503.459 605.45V639.049M503.459 605.45H539.488M503.459 639.049H539.488M539.488 0.662842V34.2621M539.488 0.662842H575.517M539.488 34.2621V67.8614M539.488 34.2621H575.517M539.488 67.8614V101.461M539.488 67.8614H575.517M539.488 101.461V135.06M539.488 101.461H575.517M539.488 135.06V168.659M539.488 135.06H575.517M539.488 168.659V202.259M539.488 168.659H575.517M539.488 202.259V235.858M539.488 202.259H575.517M539.488 235.858V269.457M539.488 235.858H575.517M539.488 269.457V303.056M539.488 269.457H575.517M539.488 303.056V336.656M539.488 303.056H575.517M539.488 336.656V370.255M539.488 336.656H575.517M539.488 370.255V403.854M539.488 370.255H575.517M539.488 403.854V437.454M539.488 403.854H575.517M539.488 437.454V471.053M539.488 437.454H575.517M539.488 471.053V504.652M539.488 471.053H575.517M539.488 504.652V538.251M539.488 504.652H575.517M539.488 538.251V571.851M539.488 538.251H575.517M539.488 571.851V605.45M539.488 571.851H575.517M539.488 605.45V639.049M539.488 605.45H575.517M539.488 639.049H575.517M575.517 0.662842V34.2621M575.517 0.662842H611.545M575.517 34.2621V67.8614M575.517 34.2621H611.545M575.517 67.8614V101.461M575.517 67.8614H611.545M575.517 101.461V135.06M575.517 101.461H611.545M575.517 135.06V168.659M575.517 135.06H611.545M575.517 168.659V202.259M575.517 168.659H611.545M575.517 202.259V235.858M575.517 202.259H611.545M575.517 235.858V269.457M575.517 235.858H611.545M575.517 269.457V303.056M575.517 269.457H611.545M575.517 303.056V336.656M575.517 303.056H611.545M575.517 336.656V370.255M575.517 336.656H611.545M575.517 370.255V403.854M575.517 370.255H611.545M575.517 403.854V437.454M575.517 403.854H611.545M575.517 437.454V471.053M575.517 437.454H611.545M575.517 471.053V504.652M575.517 471.053H611.545M575.517 504.652V538.251M575.517 504.652H611.545M575.517 538.251V571.851M575.517 538.251H611.545M575.517 571.851V605.45M575.517 571.851H611.545M575.517 605.45V639.049M575.517 605.45H611.545M575.517 639.049H611.545M611.545 0.662842V34.2621M611.545 0.662842H647.574M611.545 34.2621V67.8614M611.545 34.2621H647.574M611.545 67.8614V101.461M611.545 67.8614H647.574M611.545 101.461V135.06M611.545 101.461H647.574M611.545 135.06V168.659M611.545 135.06H647.574M611.545 168.659V202.259M611.545 168.659H647.574M611.545 202.259V235.858M611.545 202.259H647.574M611.545 235.858V269.457M611.545 235.858H647.574M611.545 269.457V303.056M611.545 269.457H647.574M611.545 303.056V336.656M611.545 303.056H647.574M611.545 336.656V370.255M611.545 336.656H647.574M611.545 370.255V403.854M611.545 370.255H647.574M611.545 403.854V437.454M611.545 403.854H647.574M611.545 437.454V471.053M611.545 437.454H647.574M611.545 471.053V504.652M611.545 471.053H647.574M611.545 504.652V538.251M611.545 504.652H647.574M611.545 538.251V571.851M611.545 538.251H647.574M611.545 571.851V605.45M611.545 571.851H647.574M611.545 605.45V639.049M611.545 605.45H647.574M611.545 639.049H647.574M647.574 0.662842V34.2621M647.574 0.662842H683.603M647.574 34.2621V67.8614M647.574 34.2621H683.603M647.574 67.8614V101.461M647.574 67.8614H683.603M647.574 101.461V135.06M647.574 101.461H683.603M647.574 135.06V168.659M647.574 135.06H683.603M647.574 168.659V202.259M647.574 168.659H683.603M647.574 202.259V235.858M647.574 202.259H683.603M647.574 235.858V269.457M647.574 235.858H683.603M647.574 269.457V303.056M647.574 269.457H683.603M647.574 303.056V336.656M647.574 303.056H683.603M647.574 336.656V370.255M647.574 336.656H683.603M647.574 370.255V403.854M647.574 370.255H683.603M647.574 403.854V437.454M647.574 403.854H683.603M647.574 437.454V471.053M647.574 437.454H683.603M647.574 471.053V504.652M647.574 471.053H683.603M647.574 504.652V538.251M647.574 504.652H683.603M647.574 538.251V571.851M647.574 538.251H683.603M647.574 571.851V605.45M647.574 571.851H683.603M647.574 605.45V639.049M647.574 605.45H683.603M647.574 639.049H683.603M683.603 0.662842V34.2621M683.603 0.662842H719.632M683.603 34.2621V67.8614M683.603 34.2621H719.632M683.603 67.8614V101.461M683.603 67.8614H719.632M683.603 101.461V135.06M683.603 101.461H719.632M683.603 135.06V168.659M683.603 135.06H719.632M683.603 168.659V202.259M683.603 168.659H719.632M683.603 202.259V235.858M683.603 202.259H719.632M683.603 235.858V269.457M683.603 235.858H719.632M683.603 269.457V303.056M683.603 269.457H719.632M683.603 303.056V336.656M683.603 303.056H719.632M683.603 336.656V370.255M683.603 336.656H719.632M683.603 370.255V403.854M683.603 370.255H719.632M683.603 403.854V437.454M683.603 403.854H719.632M683.603 437.454V471.053M683.603 437.454H719.632M683.603 471.053V504.652M683.603 471.053H719.632M683.603 504.652V538.251M683.603 504.652H719.632M683.603 538.251V571.851M683.603 538.251H719.632M683.603 571.851V605.45M683.603 571.851H719.632M683.603 605.45V639.049M683.603 605.45H719.632M683.603 639.049H719.632M719.632 0.662842V34.2621M719.632 0.662842H755.66M719.632 34.2621V67.8614M719.632 34.2621H755.66M719.632 67.8614V101.461M719.632 67.8614H755.66M719.632 101.461V135.06M719.632 101.461H755.66M719.632 135.06V168.659M719.632 135.06H755.66M719.632 168.659V202.259M719.632 168.659H755.66M719.632 202.259V235.858M719.632 202.259H755.66M719.632 235.858V269.457M719.632 235.858H755.66M719.632 269.457V303.056M719.632 269.457H755.66M719.632 303.056V336.656M719.632 303.056H755.66M719.632 336.656V370.255M719.632 336.656H755.66M719.632 370.255V403.854M719.632 370.255H755.66M719.632 403.854V437.454M719.632 403.854H755.66M719.632 437.454V471.053M719.632 437.454H755.66M719.632 471.053V504.652M719.632 471.053H755.66M719.632 504.652V538.251M719.632 504.652H755.66M719.632 538.251V571.851M719.632 538.251H755.66M719.632 571.851V605.45M719.632 571.851H755.66M719.632 605.45V639.049M719.632 605.45H755.66M719.632 639.049H755.66M755.66 0.662842V34.2621M755.66 0.662842H791.689M755.66 34.2621V67.8614M755.66 34.2621H791.689M755.66 67.8614V101.461M755.66 67.8614H791.689M755.66 101.461V135.06M755.66 101.461H791.689M755.66 135.06V168.659M755.66 135.06H791.689M755.66 168.659V202.259M755.66 168.659H791.689M755.66 202.259V235.858M755.66 202.259H791.689M755.66 235.858V269.457M755.66 235.858H791.689M755.66 269.457V303.056M755.66 269.457H791.689M755.66 303.056V336.656M755.66 303.056H791.689M755.66 336.656V370.255M755.66 336.656H791.689M755.66 370.255V403.854M755.66 370.255H791.689M755.66 403.854V437.454M755.66 403.854H791.689M755.66 437.454V471.053M755.66 437.454H791.689M755.66 471.053V504.652M755.66 471.053H791.689M755.66 504.652V538.251M755.66 504.652H791.689M755.66 538.251V571.851M755.66 538.251H791.689M755.66 571.851V605.45M755.66 571.851H791.689M755.66 605.45V639.049M755.66 605.45H791.689M755.66 639.049H791.689M791.689 0.662842V34.2621M791.689 0.662842H827.718M791.689 34.2621V67.8614M791.689 34.2621H827.718M791.689 67.8614V101.461M791.689 67.8614H827.718M791.689 101.461V135.06M791.689 101.461H827.718M791.689 135.06V168.659M791.689 135.06H827.718M791.689 168.659V202.259M791.689 168.659H827.718M791.689 202.259V235.858M791.689 202.259H827.718M791.689 235.858V269.457M791.689 235.858H827.718M791.689 269.457V303.056M791.689 269.457H827.718M791.689 303.056V336.656M791.689 303.056H827.718M791.689 336.656V370.255M791.689 336.656H827.718M791.689 370.255V403.854M791.689 370.255H827.718M791.689 403.854V437.454M791.689 403.854H827.718M791.689 437.454V471.053M791.689 437.454H827.718M791.689 471.053V504.652M791.689 471.053H827.718M791.689 504.652V538.251M791.689 504.652H827.718M791.689 538.251V571.851M791.689 538.251H827.718M791.689 571.851V605.45M791.689 571.851H827.718M791.689 605.45V639.049M791.689 605.45H827.718M791.689 639.049H827.718M827.718 0.662842V34.2621M827.718 0.662842H863.746M827.718 34.2621V67.8614M827.718 34.2621H863.746M827.718 67.8614V101.461M827.718 67.8614H863.746M827.718 101.461V135.06M827.718 101.461H863.746M827.718 135.06V168.659M827.718 135.06H863.746M827.718 168.659V202.259M827.718 168.659H863.746M827.718 202.259V235.858M827.718 202.259H863.746M827.718 235.858V269.457M827.718 235.858H863.746M827.718 269.457V303.056M827.718 269.457H863.746M827.718 303.056V336.656M827.718 303.056H863.746M827.718 336.656V370.255M827.718 336.656H863.746M827.718 370.255V403.854M827.718 370.255H863.746M827.718 403.854V437.454M827.718 403.854H863.746M827.718 437.454V471.053M827.718 437.454H863.746M827.718 471.053V504.652M827.718 471.053H863.746M827.718 504.652V538.251M827.718 504.652H863.746M827.718 538.251V571.851M827.718 538.251H863.746M827.718 571.851V605.45M827.718 571.851H863.746M827.718 605.45V639.049M827.718 605.45H863.746M827.718 639.049H863.746M863.746 0.662842V34.2621M863.746 0.662842H899.775M863.746 34.2621V67.8614M863.746 34.2621H899.775M863.746 67.8614V101.461M863.746 67.8614H899.775M863.746 101.461V135.06M863.746 101.461H899.775M863.746 135.06V168.659M863.746 135.06H899.775M863.746 168.659V202.259M863.746 168.659H899.775M863.746 202.259V235.858M863.746 202.259H899.775M863.746 235.858V269.457M863.746 235.858H899.775M863.746 269.457V303.056M863.746 269.457H899.775M863.746 303.056V336.656M863.746 303.056H899.775M863.746 336.656V370.255M863.746 336.656H899.775M863.746 370.255V403.854M863.746 370.255H899.775M863.746 403.854V437.454M863.746 403.854H899.775M863.746 437.454V471.053M863.746 437.454H899.775M863.746 471.053V504.652M863.746 471.053H899.775M863.746 504.652V538.251M863.746 504.652H899.775M863.746 538.251V571.851M863.746 538.251H899.775M863.746 571.851V605.45M863.746 571.851H899.775M863.746 605.45V639.049M863.746 605.45H899.775M863.746 639.049H899.775M899.775 0.662842V34.2621M899.775 0.662842H935.804M899.775 34.2621V67.8614M899.775 34.2621H935.804M899.775 67.8614V101.461M899.775 67.8614H935.804M899.775 101.461V135.06M899.775 101.461H935.804M899.775 135.06V168.659M899.775 135.06H935.804M899.775 168.659V202.259M899.775 168.659H935.804M899.775 202.259V235.858M899.775 202.259H935.804M899.775 235.858V269.457M899.775 235.858H935.804M899.775 269.457V303.056M899.775 269.457H935.804M899.775 303.056V336.656M899.775 303.056H935.804M899.775 336.656V370.255M899.775 336.656H935.804M899.775 370.255V403.854M899.775 370.255H935.804M899.775 403.854V437.454M899.775 403.854H935.804M899.775 437.454V471.053M899.775 437.454H935.804M899.775 471.053V504.652M899.775 471.053H935.804M899.775 504.652V538.251M899.775 504.652H935.804M899.775 538.251V571.851M899.775 538.251H935.804M899.775 571.851V605.45M899.775 571.851H935.804M899.775 605.45V639.049M899.775 605.45H935.804M899.775 639.049H935.804M935.804 0.662842V34.2621M935.804 0.662842H971.833M935.804 34.2621V67.8614M935.804 34.2621H971.833M935.804 67.8614V101.461M935.804 67.8614H971.833M935.804 101.461V135.06M935.804 101.461H971.833M935.804 135.06V168.659M935.804 135.06H971.833M935.804 168.659V202.259M935.804 168.659H971.833M935.804 202.259V235.858M935.804 202.259H971.833M935.804 235.858V269.457M935.804 235.858H971.833M935.804 269.457V303.056M935.804 269.457H971.833M935.804 303.056V336.656M935.804 303.056H971.833M935.804 336.656V370.255M935.804 336.656H971.833M935.804 370.255V403.854M935.804 370.255H971.833M935.804 403.854V437.454M935.804 403.854H971.833M935.804 437.454V471.053M935.804 437.454H971.833M935.804 471.053V504.652M935.804 471.053H971.833M935.804 504.652V538.251M935.804 504.652H971.833M935.804 538.251V571.851M935.804 538.251H971.833M935.804 571.851V605.45M935.804 571.851H971.833M935.804 605.45V639.049M935.804 605.45H971.833M935.804 639.049H971.833M971.833 0.662842V34.2621M971.833 0.662842H1007.86M971.833 34.2621V67.8614M971.833 34.2621H1007.86M971.833 67.8614V101.461M971.833 67.8614H1007.86M971.833 101.461V135.06M971.833 101.461H1007.86M971.833 135.06V168.659M971.833 135.06H1007.86M971.833 168.659V202.259M971.833 168.659H1007.86M971.833 202.259V235.858M971.833 202.259H1007.86M971.833 235.858V269.457M971.833 235.858H1007.86M971.833 269.457V303.056M971.833 269.457H1007.86M971.833 303.056V336.656M971.833 303.056H1007.86M971.833 336.656V370.255M971.833 336.656H1007.86M971.833 370.255V403.854M971.833 370.255H1007.86M971.833 403.854V437.454M971.833 403.854H1007.86M971.833 437.454V471.053M971.833 437.454H1007.86M971.833 471.053V504.652M971.833 471.053H1007.86M971.833 504.652V538.251M971.833 504.652H1007.86M971.833 538.251V571.851M971.833 538.251H1007.86M971.833 571.851V605.45M971.833 571.851H1007.86M971.833 605.45V639.049M971.833 605.45H1007.86M971.833 639.049H1007.86M1007.86 0.662842V34.2621M1007.86 0.662842H1043.89M1007.86 34.2621V67.8614M1007.86 34.2621H1043.89M1007.86 67.8614V101.461M1007.86 67.8614H1043.89M1007.86 101.461V135.06M1007.86 101.461H1043.89M1007.86 135.06V168.659M1007.86 135.06H1043.89M1007.86 168.659V202.259M1007.86 168.659H1043.89M1007.86 202.259V235.858M1007.86 202.259H1043.89M1007.86 235.858V269.457M1007.86 235.858H1043.89M1007.86 269.457V303.056M1007.86 269.457H1043.89M1007.86 303.056V336.656M1007.86 303.056H1043.89M1007.86 336.656V370.255M1007.86 336.656H1043.89M1007.86 370.255V403.854M1007.86 370.255H1043.89M1007.86 403.854V437.454M1007.86 403.854H1043.89M1007.86 437.454V471.053M1007.86 437.454H1043.89M1007.86 471.053V504.652M1007.86 471.053H1043.89M1007.86 504.652V538.251M1007.86 504.652H1043.89M1007.86 538.251V571.851M1007.86 538.251H1043.89M1007.86 571.851V605.45M1007.86 571.851H1043.89M1007.86 605.45V639.049M1007.86 605.45H1043.89M1007.86 639.049H1043.89M1043.89 0.662842V34.2621M1043.89 0.662842H1079.92M1043.89 34.2621V67.8614M1043.89 34.2621H1079.92M1043.89 67.8614V101.461M1043.89 67.8614H1079.92M1043.89 101.461V135.06M1043.89 101.461H1079.92M1043.89 135.06V168.659M1043.89 135.06H1079.92M1043.89 168.659V202.259M1043.89 168.659H1079.92M1043.89 202.259V235.858M1043.89 202.259H1079.92M1043.89 235.858V269.457M1043.89 235.858H1079.92M1043.89 269.457V303.056M1043.89 269.457H1079.92M1043.89 303.056V336.656M1043.89 303.056H1079.92M1043.89 336.656V370.255M1043.89 336.656H1079.92M1043.89 370.255V403.854M1043.89 370.255H1079.92M1043.89 403.854V437.454M1043.89 403.854H1079.92M1043.89 437.454V471.053M1043.89 437.454H1079.92M1043.89 471.053V504.652M1043.89 471.053H1079.92M1043.89 504.652V538.251M1043.89 504.652H1079.92M1043.89 538.251V571.851M1043.89 538.251H1079.92M1043.89 571.851V605.45M1043.89 571.851H1079.92M1043.89 605.45V639.049M1043.89 605.45H1079.92M1043.89 639.049H1079.92M1079.92 0.662842V34.2621M1079.92 0.662842H1115.95M1079.92 34.2621V67.8614M1079.92 34.2621H1115.95M1079.92 67.8614V101.461M1079.92 67.8614H1115.95M1079.92 101.461V135.06M1079.92 101.461H1115.95M1079.92 135.06V168.659M1079.92 135.06H1115.95M1079.92 168.659V202.259M1079.92 168.659H1115.95M1079.92 202.259V235.858M1079.92 202.259H1115.95M1079.92 235.858V269.457M1079.92 235.858H1115.95M1079.92 269.457V303.056M1079.92 269.457H1115.95M1079.92 303.056V336.656M1079.92 303.056H1115.95M1079.92 336.656V370.255M1079.92 336.656H1115.95M1079.92 370.255V403.854M1079.92 370.255H1115.95M1079.92 403.854V437.454M1079.92 403.854H1115.95M1079.92 437.454V471.053M1079.92 437.454H1115.95M1079.92 471.053V504.652M1079.92 471.053H1115.95M1079.92 504.652V538.251M1079.92 504.652H1115.95M1079.92 538.251V571.851M1079.92 538.251H1115.95M1079.92 571.851V605.45M1079.92 571.851H1115.95M1079.92 605.45V639.049M1079.92 605.45H1115.95M1079.92 639.049H1115.95M1115.95 0.662842V34.2621M1115.95 0.662842H1151.98M1115.95 34.2621V67.8614M1115.95 34.2621H1151.98M1115.95 67.8614V101.461M1115.95 67.8614H1151.98M1115.95 101.461V135.06M1115.95 101.461H1151.98M1115.95 135.06V168.659M1115.95 135.06H1151.98M1115.95 168.659V202.259M1115.95 168.659H1151.98M1115.95 202.259V235.858M1115.95 202.259H1151.98M1115.95 235.858V269.457M1115.95 235.858H1151.98M1115.95 269.457V303.056M1115.95 269.457H1151.98M1115.95 303.056V336.656M1115.95 303.056H1151.98M1115.95 336.656V370.255M1115.95 336.656H1151.98M1115.95 370.255V403.854M1115.95 370.255H1151.98M1115.95 403.854V437.454M1115.95 403.854H1151.98M1115.95 437.454V471.053M1115.95 437.454H1151.98M1115.95 471.053V504.652M1115.95 471.053H1151.98M1115.95 504.652V538.251M1115.95 504.652H1151.98M1115.95 538.251V571.851M1115.95 538.251H1151.98M1115.95 571.851V605.45M1115.95 571.851H1151.98M1115.95 605.45V639.049M1115.95 605.45H1151.98M1115.95 639.049H1151.98M1151.98 0.662842V34.2621M1151.98 0.662842H1188M1151.98 34.2621V67.8614M1151.98 34.2621H1188M1151.98 67.8614V101.461M1151.98 67.8614H1188M1151.98 101.461V135.06M1151.98 101.461H1188M1151.98 135.06V168.659M1151.98 135.06H1188M1151.98 168.659V202.259M1151.98 168.659H1188M1151.98 202.259V235.858M1151.98 202.259H1188M1151.98 235.858V269.457M1151.98 235.858H1188M1151.98 269.457V303.056M1151.98 269.457H1188M1151.98 303.056V336.656M1151.98 303.056H1188M1151.98 336.656V370.255M1151.98 336.656H1188M1151.98 370.255V403.854M1151.98 370.255H1188M1151.98 403.854V437.454M1151.98 403.854H1188M1151.98 437.454V471.053M1151.98 437.454H1188M1151.98 471.053V504.652M1151.98 471.053H1188M1151.98 504.652V538.251M1151.98 504.652H1188M1151.98 538.251V571.851M1151.98 538.251H1188M1151.98 571.851V605.45M1151.98 571.851H1188M1151.98 605.45V639.049M1151.98 605.45H1188M1151.98 639.049H1188M1188 0.662842V34.2621M1188 0.662842H1224.03M1188 34.2621V67.8614M1188 34.2621H1224.03M1188 67.8614V101.461M1188 67.8614H1224.03M1188 101.461V135.06M1188 101.461H1224.03M1188 135.06V168.659M1188 135.06H1224.03M1188 168.659V202.259M1188 168.659H1224.03M1188 202.259V235.858M1188 202.259H1224.03M1188 235.858V269.457M1188 235.858H1224.03M1188 269.457V303.056M1188 269.457H1224.03M1188 303.056V336.656M1188 303.056H1224.03M1188 336.656V370.255M1188 336.656H1224.03M1188 370.255V403.854M1188 370.255H1224.03M1188 403.854V437.454M1188 403.854H1224.03M1188 437.454V471.053M1188 437.454H1224.03M1188 471.053V504.652M1188 471.053H1224.03M1188 504.652V538.251M1188 504.652H1224.03M1188 538.251V571.851M1188 538.251H1224.03M1188 571.851V605.45M1188 571.851H1224.03M1188 605.45V639.049M1188 605.45H1224.03M1188 639.049H1224.03M1224.03 0.662842V34.2621M1224.03 0.662842H1260.06M1224.03 34.2621V67.8614M1224.03 34.2621H1260.06M1224.03 67.8614V101.461M1224.03 67.8614H1260.06M1224.03 101.461V135.06M1224.03 101.461H1260.06M1224.03 135.06V168.659M1224.03 135.06H1260.06M1224.03 168.659V202.259M1224.03 168.659H1260.06M1224.03 202.259V235.858M1224.03 202.259H1260.06M1224.03 235.858V269.457M1224.03 235.858H1260.06M1224.03 269.457V303.056M1224.03 269.457H1260.06M1224.03 303.056V336.656M1224.03 303.056H1260.06M1224.03 336.656V370.255M1224.03 336.656H1260.06M1224.03 370.255V403.854M1224.03 370.255H1260.06M1224.03 403.854V437.454M1224.03 403.854H1260.06M1224.03 437.454V471.053M1224.03 437.454H1260.06M1224.03 471.053V504.652M1224.03 471.053H1260.06M1224.03 504.652V538.251M1224.03 504.652H1260.06M1224.03 538.251V571.851M1224.03 538.251H1260.06M1224.03 571.851V605.45M1224.03 571.851H1260.06M1224.03 605.45V639.049M1224.03 605.45H1260.06M1224.03 639.049H1260.06M1260.06 0.662842V34.2621M1260.06 0.662842H1296.09M1260.06 34.2621V67.8614M1260.06 34.2621H1296.09M1260.06 67.8614V101.461M1260.06 67.8614H1296.09M1260.06 101.461V135.06M1260.06 101.461H1296.09M1260.06 135.06V168.659M1260.06 135.06H1296.09M1260.06 168.659V202.259M1260.06 168.659H1296.09M1260.06 202.259V235.858M1260.06 202.259H1296.09M1260.06 235.858V269.457M1260.06 235.858H1296.09M1260.06 269.457V303.056M1260.06 269.457H1296.09M1260.06 303.056V336.656M1260.06 303.056H1296.09M1260.06 336.656V370.255M1260.06 336.656H1296.09M1260.06 370.255V403.854M1260.06 370.255H1296.09M1260.06 403.854V437.454M1260.06 403.854H1296.09M1260.06 437.454V471.053M1260.06 437.454H1296.09M1260.06 471.053V504.652M1260.06 471.053H1296.09M1260.06 504.652V538.251M1260.06 504.652H1296.09M1260.06 538.251V571.851M1260.06 538.251H1296.09M1260.06 571.851V605.45M1260.06 571.851H1296.09M1260.06 605.45V639.049M1260.06 605.45H1296.09M1260.06 639.049H1296.09M1296.09 0.662842V34.2621M1296.09 0.662842H1332.12M1296.09 34.2621V67.8614M1296.09 34.2621H1332.12M1296.09 67.8614V101.461M1296.09 67.8614H1332.12M1296.09 101.461V135.06M1296.09 101.461H1332.12M1296.09 135.06V168.659M1296.09 135.06H1332.12M1296.09 168.659V202.259M1296.09 168.659H1332.12M1296.09 202.259V235.858M1296.09 202.259H1332.12M1296.09 235.858V269.457M1296.09 235.858H1332.12M1296.09 269.457V303.056M1296.09 269.457H1332.12M1296.09 303.056V336.656M1296.09 303.056H1332.12M1296.09 336.656V370.255M1296.09 336.656H1332.12M1296.09 370.255V403.854M1296.09 370.255H1332.12M1296.09 403.854V437.454M1296.09 403.854H1332.12M1296.09 437.454V471.053M1296.09 437.454H1332.12M1296.09 471.053V504.652M1296.09 471.053H1332.12M1296.09 504.652V538.251M1296.09 504.652H1332.12M1296.09 538.251V571.851M1296.09 538.251H1332.12M1296.09 571.851V605.45M1296.09 571.851H1332.12M1296.09 605.45V639.049M1296.09 605.45H1332.12M1296.09 639.049H1332.12M1332.12 0.662842V34.2621M1332.12 0.662842H1368.15M1332.12 34.2621V67.8614M1332.12 34.2621H1368.15M1332.12 67.8614V101.461M1332.12 67.8614H1368.15M1332.12 101.461V135.06M1332.12 101.461H1368.15M1332.12 135.06V168.659M1332.12 135.06H1368.15M1332.12 168.659V202.259M1332.12 168.659H1368.15M1332.12 202.259V235.858M1332.12 202.259H1368.15M1332.12 235.858V269.457M1332.12 235.858H1368.15M1332.12 269.457V303.056M1332.12 269.457H1368.15M1332.12 303.056V336.656M1332.12 303.056H1368.15M1332.12 336.656V370.255M1332.12 336.656H1368.15M1332.12 370.255V403.854M1332.12 370.255H1368.15M1332.12 403.854V437.454M1332.12 403.854H1368.15M1332.12 437.454V471.053M1332.12 437.454H1368.15M1332.12 471.053V504.652M1332.12 471.053H1368.15M1332.12 504.652V538.251M1332.12 504.652H1368.15M1332.12 538.251V571.851M1332.12 538.251H1368.15M1332.12 571.851V605.45M1332.12 571.851H1368.15M1332.12 605.45V639.049M1332.12 605.45H1368.15M1332.12 639.049H1368.15M1368.15 0.662842V34.2621M1368.15 0.662842H1404.18M1368.15 34.2621V67.8614M1368.15 34.2621H1404.18M1368.15 67.8614V101.461M1368.15 67.8614H1404.18M1368.15 101.461V135.06M1368.15 101.461H1404.18M1368.15 135.06V168.659M1368.15 135.06H1404.18M1368.15 168.659V202.259M1368.15 168.659H1404.18M1368.15 202.259V235.858M1368.15 202.259H1404.18M1368.15 235.858V269.457M1368.15 235.858H1404.18M1368.15 269.457V303.056M1368.15 269.457H1404.18M1368.15 303.056V336.656M1368.15 303.056H1404.18M1368.15 336.656V370.255M1368.15 336.656H1404.18M1368.15 370.255V403.854M1368.15 370.255H1404.18M1368.15 403.854V437.454M1368.15 403.854H1404.18M1368.15 437.454V471.053M1368.15 437.454H1404.18M1368.15 471.053V504.652M1368.15 471.053H1404.18M1368.15 504.652V538.251M1368.15 504.652H1404.18M1368.15 538.251V571.851M1368.15 538.251H1404.18M1368.15 571.851V605.45M1368.15 571.851H1404.18M1368.15 605.45V639.049M1368.15 605.45H1404.18M1368.15 639.049H1404.18M1404.18 0.662842V34.2621M1404.18 0.662842H1440.21M1404.18 34.2621V67.8614M1404.18 34.2621H1440.21M1404.18 67.8614V101.461M1404.18 67.8614H1440.21M1404.18 101.461V135.06M1404.18 101.461H1440.21M1404.18 135.06V168.659M1404.18 135.06H1440.21M1404.18 168.659V202.259M1404.18 168.659H1440.21M1404.18 202.259V235.858M1404.18 202.259H1440.21M1404.18 235.858V269.457M1404.18 235.858H1440.21M1404.18 269.457V303.056M1404.18 269.457H1440.21M1404.18 303.056V336.656M1404.18 303.056H1440.21M1404.18 336.656V370.255M1404.18 336.656H1440.21M1404.18 370.255V403.854M1404.18 370.255H1440.21M1404.18 403.854V437.454M1404.18 403.854H1440.21M1404.18 437.454V471.053M1404.18 437.454H1440.21M1404.18 471.053V504.652M1404.18 471.053H1440.21M1404.18 504.652V538.251M1404.18 504.652H1440.21M1404.18 538.251V571.851M1404.18 538.251H1440.21M1404.18 571.851V605.45M1404.18 571.851H1440.21M1404.18 605.45V639.049M1404.18 605.45H1440.21M1404.18 639.049H1440.21M1440.21 0.662842V34.2621M1440.21 0.662842H1476.23M1440.21 34.2621V67.8614M1440.21 34.2621H1476.23M1440.21 67.8614V101.461M1440.21 67.8614H1476.23M1440.21 101.461V135.06M1440.21 101.461H1476.23M1440.21 135.06V168.659M1440.21 135.06H1476.23M1440.21 168.659V202.259M1440.21 168.659H1476.23M1440.21 202.259V235.858M1440.21 202.259H1476.23M1440.21 235.858V269.457M1440.21 235.858H1476.23M1440.21 269.457V303.056M1440.21 269.457H1476.23M1440.21 303.056V336.656M1440.21 303.056H1476.23M1440.21 336.656V370.255M1440.21 336.656H1476.23M1440.21 370.255V403.854M1440.21 370.255H1476.23M1440.21 403.854V437.454M1440.21 403.854H1476.23M1440.21 437.454V471.053M1440.21 437.454H1476.23M1440.21 471.053V504.652M1440.21 471.053H1476.23M1440.21 504.652V538.251M1440.21 504.652H1476.23M1440.21 538.251V571.851M1440.21 538.251H1476.23M1440.21 571.851V605.45M1440.21 571.851H1476.23M1440.21 605.45V639.049M1440.21 605.45H1476.23M1440.21 639.049H1476.23M1476.23 0.662842V34.2621M1476.23 0.662842H1512.26V34.2621M1476.23 34.2621V67.8614M1476.23 34.2621H1512.26M1476.23 67.8614V101.461M1476.23 67.8614H1512.26M1476.23 101.461V135.06M1476.23 101.461H1512.26M1476.23 135.06V168.659M1476.23 135.06H1512.26M1476.23 168.659V202.259M1476.23 168.659H1512.26M1476.23 202.259V235.858M1476.23 202.259H1512.26M1476.23 235.858V269.457M1476.23 235.858H1512.26M1476.23 269.457V303.056M1476.23 269.457H1512.26M1476.23 303.056V336.656M1476.23 303.056H1512.26M1476.23 336.656V370.255M1476.23 336.656H1512.26M1476.23 370.255V403.854M1476.23 370.255H1512.26M1476.23 403.854V437.454M1476.23 403.854H1512.26M1476.23 437.454V471.053M1476.23 437.454H1512.26M1476.23 471.053V504.652M1476.23 471.053H1512.26M1476.23 504.652V538.251M1476.23 504.652H1512.26M1476.23 538.251V571.851M1476.23 538.251H1512.26M1476.23 571.851V605.45M1476.23 571.851H1512.26M1476.23 605.45V639.049M1476.23 605.45H1512.26M1476.23 639.049H1512.26V605.45M1512.26 34.2621V67.8614M1512.26 67.8614V101.461M1512.26 101.461V135.06M1512.26 135.06V168.659M1512.26 168.659V202.259M1512.26 202.259V235.858M1512.26 235.858V269.457M1512.26 269.457V303.056M1512.26 303.056V336.656M1512.26 336.656V370.255M1512.26 370.255V403.854M1512.26 403.854V437.454M1512.26 437.454V471.053M1512.26 471.053V504.652M1512.26 504.652V538.251M1512.26 538.251V571.851M1512.26 571.851V605.45" stroke="url(#paint0_radial_358_182)" stroke-width="0.900718"/>
</g>
<defs>
<radialGradient id="paint0_radial_358_182" cx="0" cy="0" r="1" gradientUnits="userSpaceOnUse" gradientTransform="translate(719.632 319.856) rotate(90) scale(319.193 640.064)">
<stop stop-color="white"/>
<stop offset="1" stop-color="white" stop-opacity="0.2"/>
</radialGradient>
</defs>
</svg>
