<svg width="1440" height="27" viewBox="0 0 1440 27" fill="none" xmlns="http://www.w3.org/2000/svg">
<path fill-rule="evenodd" clip-rule="evenodd" d="M1440 27H0V16.2622H79.7715L86.649 25.8783L86.6633 25.8535L86.6805 25.8783L98.6565 7.88224H108.347L114.087 16.138H322.498V16.1413L390.7 16.1823L392.246 18.3966L389.755 21.9744H394.747L392.246 18.3966L393.82 16.138H396.702L403.491 25.8783L403.5 25.8664L403.505 25.8783L421.543 0L431.114 13.7154L554.985 13.7564L557.153 10.6493L563.64 19.9599L567.967 13.7564L623.664 13.7154L629.092 21.5026H654.317L663.811 7.88224H667.568L691.003 8.03015L695.627 1.39594L702.562 11.3489L706.082 16.4166H767.367L769.846 19.9642L765.724 25.8783H773.977L769.846 19.9642L772.319 16.4166H881.522L888.399 25.8783L888.413 25.8535L888.43 25.8783L900.406 7.88224H910.097L915.836 16.138H1124.25V16.1639L1154.95 16.1823L1156.5 18.3966L1154.01 21.9744H1159L1156.5 18.3966L1158.07 16.138H1160.95L1167.74 25.8783L1167.75 25.8664L1167.76 25.8783L1185.79 0L1195.36 13.7154L1281.73 13.7564L1283.9 10.6493L1290.39 19.9599L1294.72 13.7564L1350.41 13.7154L1355.84 21.5026H1381.07L1390.56 7.88224H1394.32L1417.75 8.03015L1422.38 1.39594L1429.31 11.3489L1432.83 16.2816H1440V27ZM39.0202 20.2881H35.1233V25.8783H39.0202V20.2881ZM52.02 20.2881H50.7217V25.8783H52.02V20.2881ZM61.1115 20.2881H59.8132V25.8783H61.1115V20.2881ZM63.0825 20.2881H61.782V25.8783H63.0825V20.2881ZM667.487 13.2609H666.187V15.1232H667.487V13.2609ZM667.487 16.9888H666.187V18.8511H667.487V16.9888ZM677.564 13.2609H676.262V18.8511H677.564V13.2609ZM682.544 13.2609H681.243V15.1232H682.544V13.2609ZM840.77 20.2881H836.873V25.8783H840.77V20.2881ZM853.77 20.2881H852.472V25.8783H853.77V20.2881ZM862.862 20.2881H861.564V25.8783H862.862V20.2881ZM864.833 20.2881H863.532V25.8783H864.833V20.2881ZM1394.24 13.2609H1392.94V15.1232H1394.24V13.2609ZM1394.24 16.9888H1392.94V18.8511H1394.24V16.9888ZM1404.31 13.2609H1403.01V18.8511H1404.31V13.2609ZM1409.29 13.2609H1407.99V15.1232H1409.29V13.2609ZM560.231 6.24555L557.153 10.6493L554.083 6.24555H560.231ZM767.347 16.3874H772.339L772.319 16.4166H767.367L767.347 16.3874ZM1286.98 6.24555L1283.9 10.6493L1280.83 6.24555H1286.98Z" fill="#FCFBF8"/>
</svg>
